<svg xmlns="http://www.w3.org/2000/svg" width="24" height="24" viewBox="0 0 24 24">
  <path fill="#344055" fill-rule="evenodd" d="M19,3 C20.6568542,3 22,4.34314575 22,6 C22,7.65685425 20.6568542,9 19,9 C17.6941178,9 16.5831148,8.16562257 16.1710242,7.00090072 L12,7 L12,14 C12,15.5976809 13.24892,16.9036609 14.8237272,16.9949073 L15,17 L16.1706743,17.0000889 C16.5824856,15.8348501 17.6937479,15 19,15 C20.6568542,15 22,16.3431458 22,18 C22,19.6568542 20.6568542,21 19,21 C17.6941178,21 16.5831148,20.1656226 16.1710242,19.0009007 L15,19 C12.3112453,19 10.1181819,16.8776933 10.0046195,14.2168896 L10,14 L10,7 L7.82897577,7.00090072 C7.41688515,8.16562257 6.30588222,9 5,9 C3.34314575,9 2,7.65685425 2,6 C2,4.34314575 3.34314575,3 5,3 C6.30625206,3 7.41751442,3.8348501 7.82932572,5.00008893 L16.1706743,5.00008893 C16.5824856,3.8348501 17.6937479,3 19,3 Z"/>
</svg>
