<svg xmlns="http://www.w3.org/2000/svg" width="24" height="24" viewBox="0 0 24 24">
  <path fill="#344055" fill-rule="evenodd" d="M11.991,4 C16.968,4 21,8.032 21,13 C21,17.968 16.968,22 11.991,22 C7.023,22 3,17.968 3,13 C3,8.032 7.023,4 11.991,4 Z M11.991,6 C8.12990426,6 5,9.13423331 5,13 C5,16.8657667 8.12990426,20 11.991,20 C15.8623472,20 19,16.8645126 19,13 C19,9.1354874 15.8623472,6 11.991,6 Z M12,8 C12.5522847,8 13,8.44771525 13,9 L13,9 L13,12.5857864 L14.7071068,14.2928932 C15.0976311,14.6834175 15.0976311,15.3165825 14.7071068,15.7071068 C14.3165825,16.0976311 13.6834175,16.0976311 13.2928932,15.7071068 L13.2928932,15.7071068 L11.2928932,13.7071068 C11.1053568,13.5195704 11,13.2652165 11,13 L11,13 L11,9 C11,8.44771525 11.4477153,8 12,8 Z M6.12132034,2.29289322 C6.51184464,2.68341751 6.51184464,3.31658249 6.12132034,3.70710678 L3.29289322,6.53553391 C2.90236893,6.9260582 2.26920395,6.9260582 1.87867966,6.53553391 C1.48815536,6.14500961 1.48815536,5.51184464 1.87867966,5.12132034 L4.70710678,2.29289322 C5.09763107,1.90236893 5.73079605,1.90236893 6.12132034,2.29289322 Z M19.2928932,2.29289322 L22.1213203,5.12132034 C22.5118446,5.51184464 22.5118446,6.14500961 22.1213203,6.53553391 C21.7307961,6.9260582 21.0976311,6.9260582 20.7071068,6.53553391 L17.8786797,3.70710678 C17.4881554,3.31658249 17.4881554,2.68341751 17.8786797,2.29289322 C18.2692039,1.90236893 18.9023689,1.90236893 19.2928932,2.29289322 Z"/>
</svg>
