<svg xmlns="http://www.w3.org/2000/svg" width="24" height="24" viewBox="0 0 24 24">
  <path fill="#344055" fill-rule="evenodd" d="M13.5,6.74975 L14.25,6.74975 L14.25,5.99975 L13.5,5.99975 L13.5,6.74975 Z M9.75,6.74975 L10.5,6.74975 L10.5,5.99975 L9.75,5.99975 L9.75,6.74975 Z M14.647,4.61975 L15.623,3.64475 C15.772,3.49475 15.772,3.26275 15.623,3.11175 C15.473,2.96275 15.24,2.96275 15.09,3.11175 L13.98,4.22275 C13.388,3.92275 12.712,3.74975 12,3.74975 C11.28,3.74975 10.605,3.92275 10.005,4.22275 L8.888,3.11175 C8.737,2.96275 8.505,2.96275 8.355,3.11175 C8.205,3.26275 8.205,3.49475 8.355,3.64475 L9.337,4.62775 C8.228,5.44475 7.5,6.75775 7.5,8.24975 L16.5,8.24975 C16.5,6.75775 15.772,5.43675 14.647,4.61975 L14.647,4.61975 Z M18.375,8.99975 C17.752,8.99975 17.25,9.50275 17.25,10.12475 L17.25,15.37475 C17.25,15.99675 17.752,16.49975 18.375,16.49975 C18.998,16.49975 19.5,15.99675 19.5,15.37475 L19.5,10.12475 C19.5,9.50275 18.998,8.99975 18.375,8.99975 L18.375,8.99975 Z M5.625,8.99975 C5.002,8.99975 4.5,9.50275 4.5,10.12475 L4.5,15.37475 C4.5,15.99675 5.002,16.49975 5.625,16.49975 C6.248,16.49975 6.75,15.99675 6.75,15.37475 L6.75,10.12475 C6.75,9.50275 6.248,8.99975 5.625,8.99975 L5.625,8.99975 Z M7.5,16.49975 C7.5,16.91175 7.837,17.24975 8.25,17.24975 L9,17.24975 L9,19.87475 C9,20.49675 9.502,20.99975 10.125,20.99975 C10.748,20.99975 11.25,20.49675 11.25,19.87475 L11.25,17.24975 L12.75,17.24975 L12.75,19.87475 C12.75,20.49675 13.252,20.99975 13.875,20.99975 C14.498,20.99975 15,20.49675 15,19.87475 L15,17.24975 L15.75,17.24975 C16.163,17.24975 16.5,16.91175 16.5,16.49975 L16.5,8.99975 L7.5,8.99975 L7.5,16.49975 Z"/>
</svg>
