<svg xmlns="http://www.w3.org/2000/svg" width="24" height="24" viewBox="0 0 24 24">
  <path fill="#344055" fill-rule="evenodd" d="M15.371,3.36 C15.371,4.26 15.042,5.1 14.387,5.879 C13.595,6.803 12.639,7.338 11.601,7.254 C11.588,7.145 11.58,7.032 11.58,6.913 C11.58,6.048 11.956,5.124 12.624,4.367 C12.958,3.984 13.382,3.666 13.896,3.412 C14.41,3.162 14.895,3.023 15.352,3 C15.365,3.12 15.371,3.24 15.371,3.36 M18.844,17.027 C18.572,17.656 18.249,18.235 17.876,18.767 C17.368,19.493 16.951,19.995 16.63,20.274 C16.132,20.731 15.599,20.965 15.028,20.979 C14.618,20.979 14.123,20.863 13.548,20.626 C12.97,20.39 12.439,20.274 11.954,20.274 C11.445,20.274 10.9,20.39 10.316,20.626 C9.731,20.863 9.26,20.986 8.9,20.998 C8.352,21.021 7.807,20.78 7.262,20.274 C6.914,19.97 6.479,19.451 5.958,18.714 C5.399,17.927 4.939,17.015 4.579,15.975 C4.193,14.851 4,13.764 4,12.711 C4,11.505 4.261,10.464 4.783,9.592 C5.193,8.892 5.739,8.339 6.422,7.934 C7.105,7.528 7.844,7.322 8.639,7.308 C9.074,7.308 9.644,7.443 10.353,7.708 C11.06,7.973 11.514,8.107 11.713,8.107 C11.861,8.107 12.366,7.95 13.22,7.636 C14.029,7.345 14.711,7.225 15.27,7.272 C16.784,7.395 17.922,7.992 18.679,9.067 C17.324,9.888 16.654,11.038 16.667,12.511 C16.68,13.661 17.097,14.616 17.915,15.375 C18.287,15.727 18.701,16 19.162,16.193 C19.062,16.483 18.956,16.76 18.844,17.027"/>
</svg>
