<svg xmlns="http://www.w3.org/2000/svg" width="24" height="24" viewBox="0 0 24 24">
  <path fill="#344055" fill-rule="evenodd" d="M18,20 L18,20 C19.104,20 20,19.104 20,18 C20,16.896 19.104,16 18,16 C16.896,16 16,16.896 16,18 C16,19.104 16.896,20 18,20 M6,8 L6,8 C7.104,8 8,7.104 8,6 C8,4.896 7.104,4 6,4 C4.896,4 4,4.896 4,6 C4,7.104 4.896,8 6,8 M12,8 L12,8 C13.104,8 14,7.104 14,6 C14,4.896 13.104,4 12,4 C10.896,4 10,4.896 10,6 C10,7.104 10.896,8 12,8 M18,8 L18,8 C19.104,8 20,7.104 20,6 C20,4.896 19.104,4 18,4 C16.896,4 16,4.896 16,6 C16,7.104 16.896,8 18,8 M6,14 L6,14 C7.104,14 8,13.104 8,12 C8,10.896 7.104,10 6,10 C4.896,10 4,10.896 4,12 C4,13.104 4.896,14 6,14 M12,14 L12,14 C13.104,14 14,13.104 14,12 C14,10.896 13.104,10 12,10 C10.896,10 10,10.896 10,12 C10,13.104 10.896,14 12,14 M18,14 L18,14 C19.104,14 20,13.104 20,12 C20,10.896 19.104,10 18,10 C16.896,10 16,10.896 16,12 C16,13.104 16.896,14 18,14 M6,20 L6,20 C7.104,20 8,19.104 8,18 C8,16.896 7.104,16 6,16 C4.896,16 4,16.896 4,18 C4,19.104 4.896,20 6,20 M12,20 L12,20 C13.104,20 14,19.104 14,18 C14,16.896 13.104,16 12,16 C10.896,16 10,16.896 10,18 C10,19.104 10.896,20 12,20"/>
</svg>
