<svg xmlns="http://www.w3.org/2000/svg" width="24" height="24" viewBox="0 0 24 24">
  <path fill="#344055" fill-rule="evenodd" d="M9.70710678,16.6066017 C9.31658249,16.997126 8.68341751,16.997126 8.29289322,16.6066017 C7.90236893,16.2160774 7.90236893,15.5829124 8.29289322,15.1923882 L16.7781746,6.70710678 C17.1686989,6.31658249 17.1686989,5.68341751 16.7781746,5.29289322 C16.3876503,4.90236893 15.7544853,4.90236893 15.363961,5.29289322 L6.87867966,13.7781746 C5.70710678,14.9497475 5.70710678,16.8492424 6.87867966,18.0208153 C8.05025253,19.1923882 9.94974747,19.1923882 11.1213203,18.0208153 L18.1923882,10.9497475 C18.5829124,10.5592232 19.2160774,10.5592232 19.6066017,10.9497475 C19.997126,11.3402718 19.997126,11.9734367 19.6066017,12.363961 L12.5355339,19.4350288 C10.5829124,21.3876503 7.41708755,21.3876503 5.46446609,19.4350288 C3.51184464,17.4824074 3.51184464,14.3165825 5.46446609,12.363961 L13.9497475,3.87867966 C15.1213203,2.70710678 17.0208153,2.70710678 18.1923882,3.87867966 C19.363961,5.05025253 19.363961,6.94974747 18.1923882,8.12132034 L9.70710678,16.6066017 Z"/>
</svg>
