<svg xmlns="http://www.w3.org/2000/svg" width="24" height="24" viewBox="0 0 24 24">
  <path fill="#344055" fill-rule="evenodd" d="M20,17 C20,19.209139 18.209139,21 16,21 C13.790861,21 12,19.209139 12,17 C12,14.790861 13.790861,13 16,13 C16.7285743,13 17.4116533,13.1947886 18,13.5351288 L18,9 L10,9 L10,17 C10,19.209139 8.209139,21 6,21 C3.790861,21 2,19.209139 2,17 C2,14.790861 3.790861,13 6,13 C6.72857429,13 7.41165327,13.1947886 8,13.5351288 L8,5 C8.00040868,3.89502188 8.89568256,3 10,3 L18,3 C19.1040654,3 19.9991826,3.89461335 20,4.99848777 L20,17 Z M6,19 C7.1045695,19 8,18.1045695 8,17 C8,15.8954305 7.1045695,15 6,15 C4.8954305,15 4,15.8954305 4,17 C4,18.1045695 4.8954305,19 6,19 Z M16,19 C17.1045695,19 18,18.1045695 18,17 C18,15.8954305 17.1045695,15 16,15 C14.8954305,15 14,15.8954305 14,17 C14,18.1045695 14.8954305,19 16,19 Z M10,5 L10,7 L18,7 L18,5 L10,5 Z"/>
</svg>
