<svg xmlns="http://www.w3.org/2000/svg" width="24" height="24" viewBox="0 0 24 24">
  <path fill="#344055" fill-rule="evenodd" d="M6,12 C6.55228475,12 7,12.4477153 7,13 L7,19 C7,19.5522847 6.55228475,20 6,20 C5.44771525,20 5,19.5522847 5,19 L5,13 C5,12.4477153 5.44771525,12 6,12 Z M18,10 C18.5522847,10 19,10.4477153 19,11 L19,19 C19,19.5522847 18.5522847,20 18,20 C17.4477153,20 17,19.5522847 17,19 L17,11 C17,10.4477153 17.4477153,10 18,10 Z M12,4 C12.5522847,4 13,4.44771525 13,5 L13,19 C13,19.5522847 12.5522847,20 12,20 C11.4477153,20 11,19.5522847 11,19 L11,5 C11,4.44771525 11.4477153,4 12,4 Z"/>
</svg>
