<svg xmlns="http://www.w3.org/2000/svg" width="24" height="24" viewBox="0 0 24 24">
  <path fill="#344055" fill-rule="evenodd" d="M18,2 C20.209139,2 22,3.790861 22,6 L22,18 C22,20.209139 20.209139,22 18,22 L6,22 C3.790861,22 2,20.209139 2,18 L2,6 C2,3.790861 3.790861,2 6,2 L18,2 Z M18,4 L6,4 C4.8954305,4 4,4.8954305 4,6 L4,18 C4,19.1045695 4.8954305,20 6,20 L18,20 C19.1045695,20 20,19.1045695 20,18 L20,6 C20,4.8954305 19.1045695,4 18,4 Z M7,6 C7.55228475,6 8,6.44771525 8,7 L8,17 C8,17.5522847 7.55228475,18 7,18 C6.44771525,18 6,17.5522847 6,17 L6,7 C6,6.44771525 6.44771525,6 7,6 Z M17,6 C17.5522847,6 18,6.44771525 18,7 L18,17 C18,17.5522847 17.5522847,18 17,18 C16.4477153,18 16,17.5522847 16,17 L16,7 C16,6.44771525 16.4477153,6 17,6 Z M14.5,6 C14.7761424,6 15,6.22385763 15,6.5 L15,17.5 C15,17.7761424 14.7761424,18 14.5,18 C14.2238576,18 14,17.7761424 14,17.5 L14,6.5 C14,6.22385763 14.2238576,6 14.5,6 Z M12,6 C12.5522847,6 13,6.44771525 13,7 L13,17 C13,17.5522847 12.5522847,18 12,18 L10,18 C9.44771525,18 9,17.5522847 9,17 L9,7 C9,6.44771525 9.44771525,6 10,6 L12,6 Z"/>
</svg>
