<svg xmlns="http://www.w3.org/2000/svg" width="24" height="24" viewBox="0 0 24 24">
  <path fill="#344055" fill-rule="evenodd" d="M15.3248228,11.2246104 C16.8828566,11.7713155 18,13.2551963 18,15 C18,17.209139 16.209139,19 14,19 L8,19 C6.8954305,19 6,18.1045695 6,17 L6,7 C6,5.8954305 6.8954305,5 8,5 L12,5 C14.209139,5 16,6.790861 16,9 C16,9.82331756 15.7512572,10.5885381 15.3248228,11.2246104 L15.3248228,11.2246104 Z M14,13 L8,13 L8,17 L14,17 C15.1045695,17 16,16.1045695 16,15 C16,13.8954305 15.1045695,13 14,13 Z M12,11 C13.1045695,11 14,10.1045695 14,9 C14,7.8954305 13.1045695,7 12,7 L8,7 L8,11 L12,11 Z"/>
</svg>
