<svg xmlns="http://www.w3.org/2000/svg" width="24" height="24" viewBox="0 0 24 24">
  <path fill="#344055" fill-rule="evenodd" d="M20,3 C20.55,3 21,3.45 21,4 L21,20 C21,20.55 20.55,21 20,21 L4,21 C3.45,21 3,20.55 3,20 L3,4 C3,3.45 3.45,3 4,3 L20,3 Z M5,19 L19,19 L19,5 L5,5 L5,19 Z M13,8 C13,8.552 12.553,9 12,9 C11.447,9 11,8.552 11,8 C11,7.448 11.447,7 12,7 C12.553,7 13,7.448 13,8 Z M13,12 C13,12.552 12.553,13 12,13 C11.447,13 11,12.552 11,12 C11,11.448 11.447,11 12,11 C12.553,11 13,11.448 13,12 Z M13,16 C13,16.552 12.553,17 12,17 C11.447,17 11,16.552 11,16 C11,15.448 11.447,15 12,15 C12.553,15 13,15.448 13,16 Z M17,12 C17,12.552 16.553,13 16,13 C15.447,13 15,12.552 15,12 C15,11.448 15.447,11 16,11 C16.553,11 17,11.448 17,12 Z M9,12 C9,12.552 8.553,13 8,13 C7.447,13 7,12.552 7,12 C7,11.448 7.447,11 8,11 C8.553,11 9,11.448 9,12 Z"/>
</svg>
