<svg xmlns="http://www.w3.org/2000/svg" width="24" height="24" viewBox="0 0 24 24">
  <path fill="#344055" fill-rule="evenodd" d="M15.9995,3 L14.9995,3 L11.9995,3 C11.4475,3 10.9995,3.448 10.9995,4 C10.9995,4.552 11.4475,5 11.9995,5 L14.9995,5 L15.9985,5 C17.6495,5 18.9995,6.351 18.9995,8.002 L18.9995,9 L18.9995,12 C18.9995,12.552 19.4475,13 19.9995,13 C20.5525,13 20.9995,12.552 20.9995,12 L20.9995,9 L20.9995,8 L20.9995,7.897 C20.9995,5.204 18.7955,3 16.1025,3 L15.9995,3 Z M9,4 C9,4.552 8.553,5 8,5 C7.447,5 7,4.552 7,4 C7,3.448 7.447,3 8,3 C8.553,3 9,3.448 9,4 M5,4 C5,4.552 4.553,5 4,5 C3.447,5 3,4.552 3,4 C3,3.448 3.447,3 4,3 C4.553,3 5,3.448 5,4 M5,8 C5,8.552 4.553,9 4,9 C3.447,9 3,8.552 3,8 C3,7.448 3.447,7 4,7 C4.553,7 5,7.448 5,8 M5,12 C5,12.552 4.553,13 4,13 C3.447,13 3,12.552 3,12 C3,11.448 3.447,11 4,11 C4.553,11 5,11.448 5,12 M5,16 C5,16.552 4.553,17 4,17 C3.447,17 3,16.552 3,16 C3,15.448 3.447,15 4,15 C4.553,15 5,15.448 5,16 M5,20 C5,20.552 4.553,21 4,21 C3.447,21 3,20.552 3,20 C3,19.448 3.447,19 4,19 C4.553,19 5,19.448 5,20 M9,20 C9,20.552 8.553,21 8,21 C7.447,21 7,20.552 7,20 C7,19.448 7.447,19 8,19 C8.553,19 9,19.448 9,20 M13,20 C13,20.552 12.553,21 12,21 C11.447,21 11,20.552 11,20 C11,19.448 11.447,19 12,19 C12.553,19 13,19.448 13,20 M17,20 C17,20.552 16.553,21 16,21 C15.447,21 15,20.552 15,20 C15,19.448 15.447,19 16,19 C16.553,19 17,19.448 17,20 M21,20 C21,20.552 20.553,21 20,21 C19.447,21 19,20.552 19,20 C19,19.448 19.447,19 20,19 C20.553,19 21,19.448 21,20 M21,16 C21,16.552 20.553,17 20,17 C19.447,17 19,16.552 19,16 C19,15.448 19.447,15 20,15 C20.553,15 21,15.448 21,16"/>
</svg>
