<svg xmlns="http://www.w3.org/2000/svg" width="24" height="24" viewBox="0 0 24 24">
  <path fill="#344055" fill-rule="evenodd" d="M21,22 L3,22 C2.447,22 2,21.553 2,21 C2,20.447 2.447,20 3,20 L21,20 C21.553,20 22,20.447 22,21 C22,21.553 21.553,22 21,22 Z M19.707,4.293 C20.098,4.684 20.098,5.316 19.707,5.707 L18.207,7.207 L14.793,3.793 L16.293,2.293 C16.684,1.902 17.316,1.902 17.707,2.293 L19.707,4.293 Z M13.793,4.793 L17.207,8.207 L8.707,16.707 C8.598,16.816 8.463,16.899 8.316,16.948 L5.316,17.948 C5.213,17.983 5.105,18 5,18 C4.739,18 4.483,17.897 4.293,17.707 C4.025,17.439 3.932,17.043 4.051,16.684 L5.051,13.684 C5.101,13.536 5.184,13.402 5.293,13.293 L13.793,4.793 Z M14.3785729,8.207 L13.793,7.62142712 L6.87356377,14.5408634 L6.58115144,15.4180977 L7.46063697,15.1249359 L14.3785729,8.207 Z"/>
</svg>
