<svg xmlns="http://www.w3.org/2000/svg" width="24" height="24" viewBox="0 0 24 24">
  <path fill="#344055" fill-rule="evenodd" d="M20,5 L4,5 C3.45,5 3,4.55 3,4 C3,3.45 3.45,3 4,3 L20,3 C20.55,3 21,3.45 21,4 C21,4.55 20.55,5 20,5 M5,8 C5,8.553 4.553,9 4,9 C3.447,9 3,8.553 3,8 C3,7.447 3.447,7 4,7 C4.553,7 5,7.447 5,8 M5,12 C5,12.553 4.553,13 4,13 C3.447,13 3,12.553 3,12 C3,11.447 3.447,11 4,11 C4.553,11 5,11.447 5,12 M5,16 C5,16.553 4.553,17 4,17 C3.447,17 3,16.553 3,16 C3,15.447 3.447,15 4,15 C4.553,15 5,15.447 5,16 M5,20 C5,20.553 4.553,21 4,21 C3.447,21 3,20.553 3,20 C3,19.447 3.447,19 4,19 C4.553,19 5,19.447 5,20 M9,20 C9,20.553 8.553,21 8,21 C7.447,21 7,20.553 7,20 C7,19.447 7.447,19 8,19 C8.553,19 9,19.447 9,20 M13,20 C13,20.553 12.553,21 12,21 C11.447,21 11,20.553 11,20 C11,19.447 11.447,19 12,19 C12.553,19 13,19.447 13,20 M17,20 C17,20.553 16.553,21 16,21 C15.447,21 15,20.553 15,20 C15,19.447 15.447,19 16,19 C16.553,19 17,19.447 17,20 M21,20 C21,20.553 20.553,21 20,21 C19.447,21 19,20.553 19,20 C19,19.447 19.447,19 20,19 C20.553,19 21,19.447 21,20 M21,16 C21,16.553 20.553,17 20,17 C19.447,17 19,16.553 19,16 C19,15.447 19.447,15 20,15 C20.553,15 21,15.447 21,16 M21,12 C21,12.553 20.553,13 20,13 C19.447,13 19,12.553 19,12 C19,11.447 19.447,11 20,11 C20.553,11 21,11.447 21,12 M21,8 C21,8.553 20.553,9 20,9 C19.447,9 19,8.553 19,8 C19,7.447 19.447,7 20,7 C20.553,7 21,7.447 21,8 M13,8 C13,8.553 12.553,9 12,9 C11.447,9 11,8.553 11,8 C11,7.447 11.447,7 12,7 C12.553,7 13,7.447 13,8 M13,12 C13,12.553 12.553,13 12,13 C11.447,13 11,12.553 11,12 C11,11.447 11.447,11 12,11 C12.553,11 13,11.447 13,12 M13,16 C13,16.553 12.553,17 12,17 C11.447,17 11,16.553 11,16 C11,15.447 11.447,15 12,15 C12.553,15 13,15.447 13,16 M17,12 C17,12.553 16.553,13 16,13 C15.447,13 15,12.553 15,12 C15,11.447 15.447,11 16,11 C16.553,11 17,11.447 17,12 M9,12 C9,12.553 8.553,13 8,13 C7.447,13 7,12.553 7,12 C7,11.447 7.447,11 8,11 C8.553,11 9,11.447 9,12"/>
</svg>
