<svg xmlns="http://www.w3.org/2000/svg" width="24" height="24" viewBox="0 0 24 24">
  <path fill="#344055" fill-rule="evenodd" d="M20,21 L20,21 C19.45,21 19,20.55 19,20 L19,4 C19,3.45 19.45,3 20,3 C20.55,3 21,3.45 21,4 L21,20 C21,20.55 20.55,21 20,21 M17,4 C17,4.552 16.553,5 16,5 C15.447,5 15,4.552 15,4 C15,3.448 15.447,3 16,3 C16.553,3 17,3.448 17,4 M13,4 C13,4.552 12.553,5 12,5 C11.447,5 11,4.552 11,4 C11,3.448 11.447,3 12,3 C12.553,3 13,3.448 13,4 M9,4 C9,4.552 8.553,5 8,5 C7.447,5 7,4.552 7,4 C7,3.448 7.447,3 8,3 C8.553,3 9,3.448 9,4 M5,4 C5,4.552 4.553,5 4,5 C3.447,5 3,4.552 3,4 C3,3.448 3.447,3 4,3 C4.553,3 5,3.448 5,4 M5,8 C5,8.552 4.553,9 4,9 C3.447,9 3,8.552 3,8 C3,7.448 3.447,7 4,7 C4.553,7 5,7.448 5,8 M5,12 C5,12.552 4.553,13 4,13 C3.447,13 3,12.552 3,12 C3,11.448 3.447,11 4,11 C4.553,11 5,11.448 5,12 M5,16 C5,16.552 4.553,17 4,17 C3.447,17 3,16.552 3,16 C3,15.448 3.447,15 4,15 C4.553,15 5,15.448 5,16 M5,20 C5,20.552 4.553,21 4,21 C3.447,21 3,20.552 3,20 C3,19.448 3.447,19 4,19 C4.553,19 5,19.448 5,20 M9,20 C9,20.552 8.553,21 8,21 C7.447,21 7,20.552 7,20 C7,19.448 7.447,19 8,19 C8.553,19 9,19.448 9,20 M13,20 C13,20.552 12.553,21 12,21 C11.447,21 11,20.552 11,20 C11,19.448 11.447,19 12,19 C12.553,19 13,19.448 13,20 M17,20 C17,20.552 16.553,21 16,21 C15.447,21 15,20.552 15,20 C15,19.448 15.447,19 16,19 C16.553,19 17,19.448 17,20 M13,8 C13,8.552 12.553,9 12,9 C11.447,9 11,8.552 11,8 C11,7.448 11.447,7 12,7 C12.553,7 13,7.448 13,8 M13,12 C13,12.552 12.553,13 12,13 C11.447,13 11,12.552 11,12 C11,11.448 11.447,11 12,11 C12.553,11 13,11.448 13,12 M13,16 C13,16.552 12.553,17 12,17 C11.447,17 11,16.552 11,16 C11,15.448 11.447,15 12,15 C12.553,15 13,15.448 13,16 M17,12 C17,12.552 16.553,13 16,13 C15.447,13 15,12.552 15,12 C15,11.448 15.447,11 16,11 C16.553,11 17,11.448 17,12 M9,12 C9,12.552 8.553,13 8,13 C7.447,13 7,12.552 7,12 C7,11.448 7.447,11 8,11 C8.553,11 9,11.448 9,12"/>
</svg>
