<?xml version="1.0" encoding="UTF-8"?>
<svg width="24px" height="24px" viewBox="0 0 24 24" version="1.1" xmlns="http://www.w3.org/2000/svg" xmlns:xlink="http://www.w3.org/1999/xlink">
    <title>Icons/Browser</title>
    <g id="Icons/Browser" stroke="none" stroke-width="1" fill="none" fill-rule="evenodd">
        <path d="M22,17 C22,19.209139 20.209139,21 18,21 L6,21 C3.790861,21 2,19.209139 2,17 L2,7 C2,4.790861 3.790861,3 6,3 L18,3 C20.209139,3 22,4.790861 22,7 L22,17 Z M20,9 L4,9 L4,17 C4,18.0543618 4.81587779,18.9181651 5.85073766,18.9945143 L6,19 L18,19 C19.0543618,19 19.9181651,18.1841222 19.9945143,17.1492623 L20,17 L20,9 Z M6,5 C5.44771525,5 5,5.44771525 5,6 C5,6.55228475 5.44771525,7 6,7 C6.55228475,7 7,6.55228475 7,6 C7,5.44771525 6.55228475,5 6,5 Z M10,5 C9.44771525,5 9,5.44771525 9,6 C9,6.55228475 9.44771525,7 10,7 C10.5522847,7 11,6.55228475 11,6 C11,5.44771525 10.5522847,5 10,5 Z M14,5 C13.4477153,5 13,5.44771525 13,6 C13,6.55228475 13.4477153,7 14,7 C14.5522847,7 15,6.55228475 15,6 C15,5.44771525 14.5522847,5 14,5 Z" id="🎨-Icon-Colour" fill="#344055"></path>
    </g>
</svg>