<svg xmlns="http://www.w3.org/2000/svg" width="24" height="24" viewBox="0 0 24 24">
  <path fill="#344055" fill-rule="evenodd" d="M7,14 C8.59768088,14 10,14.790861 10,17 C10,19.209139 8.209139,21 6,21 C4.49336067,21 2.6821247,20.2305503 2,19 C2.81823452,18.7898925 3.99167077,18.6347355 4.00017324,16.9846114 C4.00867572,15.3344873 5.34849476,14 7,14 Z M21.1213203,2.87867966 C22.2460303,4.00338962 22.2910187,5.79895255 21.2562855,6.97733075 L21.1213203,7.12132034 L14.1213203,14.1213203 C12.9497475,15.2928932 11.0502525,15.2928932 9.87867966,14.1213203 C8.7539697,12.9966104 8.7089813,11.2010475 9.74371446,10.0226693 L9.87867966,9.87867966 L16.8786797,2.87867966 C18.0502525,1.70710678 19.9497475,1.70710678 21.1213203,2.87867966 Z M18.2928932,4.29289322 L11.2928932,11.2928932 C10.9023689,11.6834175 10.9023689,12.3165825 11.2928932,12.7071068 C11.6834175,13.0976311 12.3165825,13.0976311 12.7071068,12.7071068 L19.7071068,5.70710678 C20.0976311,5.31658249 20.0976311,4.68341751 19.7071068,4.29289322 C19.3165825,3.90236893 18.6834175,3.90236893 18.2928932,4.29289322 Z"/>
</svg>
