<?xml version="1.0" encoding="UTF-8"?>
<svg width="24px" height="24px" viewBox="0 0 24 24" version="1.1" xmlns="http://www.w3.org/2000/svg" xmlns:xlink="http://www.w3.org/1999/xlink">
    <title>Icons/Bulb</title>
    <g id="Icons/Bulb" stroke="none" stroke-width="1" fill="none" fill-rule="evenodd">
        <path d="M13,20 C13.5522847,20 14,20.4477153 14,21 C14,21.5522847 13.5522847,22 13,22 L11,22 C10.4477153,22 10,21.5522847 10,21 C10,20.4477153 10.4477153,20 11,20 L13,20 Z M17.663961,17.663961 C18.0544853,17.2734367 18.6876503,17.2734367 19.0781746,17.663961 C19.4686989,18.0544853 19.4686989,18.6876503 19.0781746,19.0781746 C18.6876503,19.4686989 18.0544853,19.4686989 17.663961,19.0781746 C17.2734367,18.6876503 17.2734367,18.0544853 17.663961,17.663961 Z M6.34132034,17.663961 C6.73184464,18.0544853 6.73184464,18.6876503 6.34132034,19.0781746 C5.95079605,19.4686989 5.31763107,19.4686989 4.92710678,19.0781746 C4.53658249,18.6876503 4.53658249,18.0544853 4.92710678,17.663961 C5.31763107,17.2734367 5.95079605,17.2734367 6.34132034,17.663961 Z M12,7 C14.7614237,7 17,9.23857625 17,12 C17,13.4843055 16.6815299,14.2804808 15.8320503,15.5547002 L15.8320503,15.5547002 L15.6901246,15.7711082 C15.1546764,16.6036246 15,17.0624359 15,18 C15,18.5522847 14.5522847,19 14,19 L14,19 L10,19 C9.44771525,19 9,18.5522847 9,18 C9,16.9843055 8.81847009,16.5304808 8.16794971,15.5547002 L8.16794971,15.5547002 L8.00507093,15.3058847 C7.27742283,14.1712657 7,13.3853518 7,12 C7,9.23857625 9.23857625,7 12,7 Z M12,9 C10.3431458,9 9,10.3431458 9,12 C9,13.0156945 9.18152991,13.4695192 9.83205029,14.4452998 L9.83205029,14.4452998 L10.0104527,14.7183755 C10.5204619,15.5172248 10.8059527,16.1450903 10.9280293,16.9372426 L10.9280293,16.9372426 L10.936,17 L13.063,17 L13.0719707,16.9372426 C13.1952804,16.1370888 13.4853223,15.5045574 14.0050709,14.6941153 L14.0050709,14.6941153 L14.3098754,14.2288918 C14.8453236,13.3963754 15,12.9375641 15,12 C15,10.3431458 13.6568542,9 12,9 Z M21,11 C21.5522847,11 22,11.4477153 22,12 C22,12.5522847 21.5522847,13 21,13 C20.4477153,13 20,12.5522847 20,12 C20,11.4477153 20.4477153,11 21,11 Z M3,11 C3.55228475,11 4,11.4477153 4,12 C4,12.5522847 3.55228475,13 3,13 C2.44771525,13 2,12.5522847 2,12 C2,11.4477153 2.44771525,11 3,11 Z M19.0781746,4.92710678 C19.4686989,5.31763107 19.4686989,5.95079605 19.0781746,6.34132034 C18.6876503,6.73184464 18.0544853,6.73184464 17.663961,6.34132034 C17.2734367,5.95079605 17.2734367,5.31763107 17.663961,4.92710678 C18.0544853,4.53658249 18.6876503,4.53658249 19.0781746,4.92710678 Z M4.92710678,4.92710678 C5.31763107,4.53658249 5.95079605,4.53658249 6.34132034,4.92710678 C6.73184464,5.31763107 6.73184464,5.95079605 6.34132034,6.34132034 C5.95079605,6.73184464 5.31763107,6.73184464 4.92710678,6.34132034 C4.53658249,5.95079605 4.53658249,5.31763107 4.92710678,4.92710678 Z M12,2 C12.5522847,2 13,2.44771525 13,3 C13,3.55228475 12.5522847,4 12,4 C11.4477153,4 11,3.55228475 11,3 C11,2.44771525 11.4477153,2 12,2 Z" id="🎨-Icon-Colour" fill="#344055"></path>
    </g>
</svg>