<svg xmlns="http://www.w3.org/2000/svg" width="24" height="24" viewBox="0 0 24 24">
  <path fill="#344055" fill-rule="evenodd" d="M16,12 C15.447,12 15,11.552 15,11 C15,10.448 15.447,10 16,10 C16.553,10 17,10.448 17,11 C17,11.552 16.553,12 16,12 Z M8,12 C7.447,12 7,11.552 7,11 C7,10.448 7.447,10 8,10 C8.553,10 9,10.448 9,11 C9,11.552 8.553,12 8,12 Z M7,7.9999 L17,7.9999 C18.1045695,7.9999 19,8.8953305 19,9.9999 L19,17.9999 C19,19.1044695 18.1045695,19.9999 17,19.9999 L7,19.9999 C5.8954305,19.9999 5,19.1044695 5,17.9999 L5,9.9999 C5,8.8953305 5.8954305,7.9999 7,7.9999 Z M12,12 C11.447,12 11,11.552 11,11 C11,10.448 11.447,10 12,10 C12.553,10 13,10.448 13,11 C13,11.552 12.553,12 12,12 Z M17,1.9999 C17.553,1.9999 18,2.4479 18,2.9999 L18,2.9999 L17.9997565,4.12595483 C19.7251073,4.56991294 21,6.13607289 21,8 L21,18 C21,20.209139 19.209139,22 17,22 L7,22 C4.790861,22 3,20.209139 3,18 L3,8 C3,6.13643475 4.27439776,4.57052105 5.99923866,4.12621352 L6,2.9999 C6,2.4479 6.447,1.9999 7,1.9999 C7.553,1.9999 8,2.4479 8,2.9999 L8,2.9999 L8,3.9999 L16,3.9999 L16,2.9999 C16,2.4479 16.447,1.9999 17,1.9999 Z"/>
</svg>
