<svg xmlns="http://www.w3.org/2000/svg" width="24" height="24" viewBox="0 0 24 24">
  <path fill="#344055" fill-rule="evenodd" d="M12,3 C13.6568542,3 15,4.34314575 15,6 C15,7.30588222 14.1656226,8.41688515 13.0009007,8.82897577 L13,12.531 L16.4681082,15.4200584 C16.8690887,15.1814549 17.330419,15.0336756 17.8237272,15.0050927 L18,15 C19.6568542,15 21,16.3431458 21,18 C21,19.6568542 19.6568542,21 18,21 C16.3431458,21 15,19.6568542 15,18 C15,17.633201 15.065828,17.2817769 15.1863146,16.9568973 L11.999,14.302 L8.81368536,16.9568973 C8.91473463,17.2293662 8.97733825,17.5205058 8.99490731,17.8237272 L9,18 C9,19.6568542 7.65685425,21 6,21 C4.34314575,21 3,19.6568542 3,18 C3,16.3431458 4.34314575,15 6,15 C6.55964669,15 7.08350142,15.1532436 7.53189176,15.4200584 L11,12.53 L11.0000889,8.82932572 C9.88763555,8.43616952 9.0763156,7.40549733 9.00509269,6.17627279 L9,6 C9,4.34314575 10.3431458,3 12,3 Z"/>
</svg>
