<svg xmlns="http://www.w3.org/2000/svg" width="24" height="24" viewBox="0 0 24 24">
  <path fill="#344055" fill-rule="evenodd" d="M13.6128994,12.2097046 L13.7071068,12.2928932 L16,14.585 L18.2928932,12.2928932 C18.6834175,11.9023689 19.3165825,11.9023689 19.7071068,12.2928932 C20.0976311,12.6834175 20.0976311,13.3165825 19.7071068,13.7071068 L17.415,16 L19.7071068,18.2928932 C20.0675907,18.6533772 20.0953203,19.2206082 19.7902954,19.6128994 L19.7071068,19.7071068 C19.3466228,20.0675907 18.7793918,20.0953203 18.3871006,19.7902954 L18.2928932,19.7071068 L16,17.415 L13.7071068,19.7071068 C13.3165825,20.0976311 12.6834175,20.0976311 12.2928932,19.7071068 C11.9023689,19.3165825 11.9023689,18.6834175 12.2928932,18.2928932 L14.585,16 L12.2928932,13.7071068 C11.9324093,13.3466228 11.9046797,12.7793918 12.2097046,12.3871006 L12.2928932,12.2928932 C12.6533772,11.9324093 13.2206082,11.9046797 13.6128994,12.2097046 Z M17,4 C17.5522847,4 18,4.44771525 18,5 C18,5.55228475 17.5522847,6 17,6 L11.6177809,6 L5.89442719,17.4472136 C5.66508003,17.9059079 5.13077083,18.1113142 4.66010424,17.9405643 L4.5527864,17.8944272 C4.09409209,17.66508 3.88868578,17.1307708 4.05943572,16.6601042 L4.10557281,16.5527864 L9.38078094,6 L5,6 C4.44771525,6 4,5.55228475 4,5 C4,4.44771525 4.44771525,4 5,4 L17,4 Z"/>
</svg>
