<svg xmlns="http://www.w3.org/2000/svg" width="24" height="24" viewBox="0 0 24 24">
  <path fill="#344055" fill-rule="evenodd" d="M20,12 L18,12 L18,6 C18,4.8954305 17.1045695,4 16,4 L8,4 C6.8954305,4 6,4.8954305 6,6 L6,18 C6,19.1045695 6.8954305,20 8,20 L10,20 L10,22 L8,22 C5.790861,22 4,20.209139 4,18 L4,6 C4,3.790861 5.790861,2 8,2 L16,2 C18.209139,2 20,3.790861 20,6 L20,12 Z M16.75325,21.6590604 C16.57025,21.8670604 16.31025,21.9910604 16.03325,22.0000604 C15.73525,22.0000604 15.48125,21.8950604 15.29325,21.7070604 L12.29325,18.7070604 C11.90225,18.3170604 11.90225,17.6840604 12.29325,17.2930604 C12.68425,16.9030604 13.31625,16.9030604 13.70725,17.2930604 L15.95125,19.5370604 L20.24725,14.3420604 C20.61125,13.9250604 21.24325,13.8840604 21.65825,14.2480604 C22.07425,14.6120604 22.11625,15.2430604 21.75325,15.6590604 L16.75325,21.6590604 Z M9,6 L15,6 C15.5522847,6 16,6.44771525 16,7 C16,7.55228475 15.5522847,8 15,8 L9,8 C8.44771525,8 8,7.55228475 8,7 C8,6.44771525 8.44771525,6 9,6 Z M9,10 L15,10 C15.5522847,10 16,10.4477153 16,11 C16,11.5522847 15.5522847,12 15,12 L9,12 C8.44771525,12 8,11.5522847 8,11 C8,10.4477153 8.44771525,10 9,10 Z"/>
</svg>
