<svg xmlns="http://www.w3.org/2000/svg" width="24" height="24" viewBox="0 0 24 24">
  <path fill="#344055" fill-rule="evenodd" d="M9.00025,18.00025 C8.74425,18.00025 8.48825,17.90225 8.29325,17.70725 L3.29325,12.70725 C2.90225,12.31625 2.90225,11.68425 3.29325,11.29325 L8.29325,6.29325 C8.68425,5.90225 9.31625,5.90225 9.70725,6.29325 C10.09825,6.68425 10.09825,7.31625 9.70725,7.70725 L5.41425,12.00025 L9.70725,16.29325 C10.09825,16.68425 10.09825,17.31625 9.70725,17.70725 C9.51225,17.90225 9.25625,18.00025 9.00025,18.00025 M15.00025,18.00025 C14.74425,18.00025 14.48825,17.90225 14.29325,17.70725 C13.90225,17.31625 13.90225,16.68425 14.29325,16.29325 L18.58625,12.00025 L14.29325,7.70725 C13.90225,7.31625 13.90225,6.68425 14.29325,6.29325 C14.68425,5.90225 15.31625,5.90225 15.70725,6.29325 L20.70725,11.29325 C21.09825,11.68425 21.09825,12.31625 20.70725,12.70725 L15.70725,17.70725 C15.51225,17.90225 15.25625,18.00025 15.00025,18.00025"/>
</svg>
