<svg xmlns="http://www.w3.org/2000/svg" width="24" height="24" viewBox="0 0 24 24">
  <path fill="#344055" fill-rule="evenodd" d="M19.8284271,4.17157288 C21,5.34314575 21,7.24264069 19.8284271,8.41421356 L17.8284661,10.4138932 L18.5355339,11.1213203 C19.3165825,11.9023689 19.3165825,13.1686989 18.5355339,13.9497475 C17.7544853,14.7307961 16.4881554,14.7307961 15.7071068,13.9497475 L14.9993593,13.2418932 L7.87867966,20.363961 C6.70710678,21.5355339 4.80761184,21.5355339 3.63603897,20.363961 C2.46446609,19.1923882 2.46446609,17.2928932 3.63603897,16.1213203 L10.7573593,8.99989322 L10.0502525,8.29289322 C9.26920395,7.51184464 9.26920395,6.24551468 10.0502525,5.46446609 C10.8313011,4.68341751 12.0976311,4.68341751 12.8786797,5.46446609 L13.5854661,6.17089322 L15.5857864,4.17157288 C16.7573593,3 18.6568542,3 19.8284271,4.17157288 Z M12.1713593,10.4138932 L5.05025253,17.5355339 C4.65972824,17.9260582 4.65972824,18.5592232 5.05025253,18.9497475 C5.44077682,19.3402718 6.0739418,19.3402718 6.46446609,18.9497475 L13.5853593,11.8278932 L12.1713593,10.4138932 Z"/>
</svg>
