<svg xmlns="http://www.w3.org/2000/svg" width="24" height="24" viewBox="0 0 24 24">
  <path fill="#344055" fill-rule="evenodd" d="M20.675,16.962 L21.946,20.676 C22.069,21.037 21.977,21.438 21.707,21.707 C21.517,21.897 21.261,22 21,22 C20.892,22 20.782,21.982 20.676,21.946 L16.962,20.675 C15.498,21.514 13.808,22 12,22 C6.478,22 2,17.522 2,12 C2,6.478 6.478,2 12,2 C17.522,2 22,6.478 22,12 C22,13.808 21.514,15.498 20.675,16.962 Z M17.6095674,18.7827377 L19.3930947,19.3930968 L18.4896122,16.7530227 L18.9397551,15.9675529 C19.6318233,14.7599392 20,13.4075862 20,12 C20,7.5825695 16.4174305,4 12,4 C7.5825695,4 4,7.5825695 4,12 C4,16.4174305 7.5825695,20 12,20 C13.4075862,20 14.7599392,19.6318233 15.9675529,18.9397551 L16.7530227,18.4896122 L17.6095674,18.7827377 Z M16,11 L8,11 C7.447,11 7,10.553 7,10 C7,9.447 7.447,9 8,9 L16,9 C16.553,9 17,9.447 17,10 C17,10.553 16.553,11 16,11 Z M16,15 L8,15 C7.447,15 7,14.553 7,14 C7,13.447 7.447,13 8,13 L16,13 C16.553,13 17,13.447 17,14 C17,14.553 16.553,15 16,15 Z"/>
</svg>
