<svg xmlns="http://www.w3.org/2000/svg" width="24" height="24" viewBox="0 0 24 24">
  <path fill="#344055" fill-rule="evenodd" d="M14,3 C15.1045695,3 16,3.8954305 16,5 L16,7 L18,7 C20.209139,7 22,8.790861 22,11 L22,17 C22,19.209139 20.209139,21 18,21 L6,21 C3.790861,21 2,19.209139 2,17 L2,11 C2,8.790861 3.790861,7 6,7 L8,7 L8,7 L8,5 C8,3.8954305 8.8954305,3 10,3 L14,3 Z M18,9 L6,9 C4.8954305,9 4,9.8954305 4,11 L4,17 C4,18.1045695 4.8954305,19 6,19 L18,19 C19.1045695,19 20,18.1045695 20,17 L20,11 C20,9.8954305 19.1045695,9 18,9 Z M14,5 L10,5 L10,7 L14,7 L14,5 Z"/>
</svg>
