<svg xmlns="http://www.w3.org/2000/svg" width="24" height="24" viewBox="0 0 24 24">
  <path fill="#344055" fill-rule="evenodd" d="M12,3 C12.5522847,3 13,3.44771525 13,4 C13,4.51283584 12.6139598,4.93550716 12.1166211,4.99327227 L12,5 L7,5 C5.9456382,5 5.08183488,5.81587779 5.00548574,6.85073766 L5,7 L5,17 C5,18.0543618 5.81587779,18.9181651 6.85073766,18.9945143 L7,19 L17,19 C18.0543618,19 18.9181651,18.1841222 18.9945143,17.1492623 L19,17 L19,12 L19.0067277,11.8833789 C19.0644928,11.3860402 19.4871642,11 20,11 C20.5128358,11 20.9355072,11.3860402 20.9932723,11.8833789 L21,12 L21,17 C21,19.209139 19.209139,21 17,21 L7,21 C4.790861,21 3,19.209139 3,17 L3,7 C3,4.790861 4.790861,3 7,3 L12,3 Z M18.7064699,3.29289223 C19.066954,2.93240913 19.6341844,2.90468004 20.0264752,3.20970469 L20.1206825,3.29289322 L20.7062573,3.87846808 C21.0667413,4.23895204 21.0944708,4.8061831 20.7894459,5.1984743 L20.7062573,5.29268164 L11.7883214,14.2106175 C11.7059903,14.2929487 11.6101305,14.3600552 11.5052133,14.4091738 L11.3974424,14.4521941 L10.5179569,14.7453559 C9.77173293,14.9940972 9.06015047,14.3277398 9.22364594,13.586721 L9.25304609,13.480444 L9.54547292,12.6031661 C9.58229267,12.4927072 9.63802147,12.3898155 9.70989602,12.298962 L9.78705015,12.2122869 L18.7064699,3.29289223 Z"/>
</svg>
