<svg xmlns="http://www.w3.org/2000/svg" width="24" height="24" viewBox="0 0 24 24">
  <path fill="#344055" fill-rule="evenodd" d="M12,21 C12,21.5522847 11.5522847,22 11,22 C10.4477153,22 10,21.5522847 10,21 L10,20 L8,20 C5.790861,20 4,18.209139 4,16 L4,8 C4,5.790861 5.790861,4 8,4 L10,4 L10,3 C10,2.44771525 10.4477153,2 11,2 C11.5522847,2 12,2.44771525 12,3 L12,21 Z M16,4 C18.1421954,4 19.8910789,5.68396847 19.9951047,7.80035966 L20,8 L20,16 C20,18.1421954 18.3160315,19.8910789 16.1996403,19.9951047 L16,20 L14,20 L14,18 L16,18 C17.0543618,18 17.9181651,17.1841222 17.9945143,16.1492623 L18,16 L18,8 C18,6.9456382 17.1841222,6.08183488 16.1492623,6.00548574 L16,6 L14,6 L14,4 L16,4 Z M9,11 C8.44771525,11 8,11.4477153 8,12 C8,12.5522847 8.44771525,13 9,13 C9.55228475,13 10,12.5522847 10,12 C10,11.4477153 9.55228475,11 9,11 Z M15,11 C15.5522847,11 16,11.4477153 16,12 C16,12.5522847 15.5522847,13 15,13 C14.4477153,13 14,12.5522847 14,12 C14,11.4477153 14.4477153,11 15,11 Z"/>
</svg>
