<svg xmlns="http://www.w3.org/2000/svg" width="24" height="24" viewBox="0 0 24 24">
  <path fill="#344055" fill-rule="evenodd" d="M6,14 C6.55228475,14 7,14.4477153 7,15 L7,17 C7,17.5522847 6.55228475,18 6,18 C5.44771525,18 5,17.5522847 5,17 L5,15 C5,14.4477153 5.44771525,14 6,14 Z M10,11 C10.5522847,11 11,11.4477153 11,12 L11,17 C11,17.5522847 10.5522847,18 10,18 C9.44771525,18 9,17.5522847 9,17 L9,12 C9,11.4477153 9.44771525,11 10,11 Z M14,8 C14.5522847,8 15,8.44771525 15,9 L15,17 C15,17.5522847 14.5522847,18 14,18 C13.4477153,18 13,17.5522847 13,17 L13,9 C13,8.44771525 13.4477153,8 14,8 Z M18,5 C18.5522847,5 19,5.44771525 19,6 L19,17 C19,17.5522847 18.5522847,18 18,18 C17.4477153,18 17,17.5522847 17,17 L17,6 C17,5.44771525 17.4477153,5 18,5 Z"/>
</svg>
