<svg xmlns="http://www.w3.org/2000/svg" width="24" height="24" viewBox="0 0 24 24">
  <path fill="#344055" fill-rule="evenodd" d="M20,7.002 L20,9 L4,9 L4,7.002 C4,6.451 4.451,6 5.002,6 L18.998,6 C19.549,6 20,6.451 20,7.002 L20,7.002 Z M20,16.996 C20,17.548 19.548,18 18.996,18 L5.004,18 C4.452,18 4,17.548 4,16.996 L4,12 L20,12 L20,16.996 Z M19.103,4 L4.897,4 C3.304,4 2,5.304 2,6.898 L2,17.103 C2,18.696 3.304,20 4.897,20 L19.103,20 C20.696,20 22,18.696 22,17.103 L22,6.898 C22,5.304 20.696,4 19.103,4 L19.103,4 Z"/>
</svg>
