<svg xmlns="http://www.w3.org/2000/svg" width="24" height="24" viewBox="0 0 24 24">
  <path fill="#344055" fill-rule="evenodd" d="M21.7071068,2.29289322 C22.0675907,2.65337718 22.0953203,3.22060824 21.7902954,3.61289944 L21.7071068,3.70710678 L20.8357118,4.57943579 C21.4909219,5.07141604 21.9332148,5.83374589 21.9930566,6.69705851 L22,6.898 L22,17.103 C22,18.6391071 20.7874796,19.9064885 19.2725265,19.9950564 L19.103,20 L5.414,20 L3.70710678,21.7071068 C3.34662282,22.0675907 2.77939176,22.0953203 2.38710056,21.7902954 L2.29289322,21.7071068 C1.9615573,21.3757709 1.91133959,20.8697705 2.1422401,20.4854898 L19.8131728,2.8131728 C19.876431,2.74991464 19.9307789,2.6811204 19.9762167,2.60834964 L20.2928932,2.29289322 C20.6834175,1.90236893 21.3165825,1.90236893 21.7071068,2.29289322 Z M20,12 L13.414,12 L7.414,18 L18.996,18 C19.5085714,18 19.9349184,17.6102653 19.9932099,17.1126268 L20,16.996 L20,12 Z M15.373,4 L13.373,6 L5.002,6 C4.49035714,6 4.06493878,6.38887245 4.00677515,6.8855871 L4,7.002 L4,9 L10.373,9 L7.373,12 L4,12 L4,15.373 L2.01156927,17.3619894 C2.00983442,17.3426519 2.00829182,17.3232614 2.0069434,17.3038197 L2,17.103 L2,6.898 C2,5.36092857 3.21252041,4.09351276 4.72747353,4.0049436 L4.897,4 L15.373,4 Z M19.3502823,6.06432426 L16.414,9 L20,9 L20,7.002 C20,6.57480305 19.7288999,6.20771698 19.3502823,6.06432426 Z"/>
</svg>
