<svg xmlns="http://www.w3.org/2000/svg" width="24" height="24" viewBox="0 0 24 24">
  <path fill="#344055" fill-rule="evenodd" d="M22,17 C22.553,17 23,17.447 23,18 C23,18.553 22.553,19 22,19 L19,19 L19,22 C19,22.553 18.553,23 18,23 C17.447,23 17,22.553 17,22 L17,19 L6,19 C5.447,19 5,18.553 5,18 L5,7 L2,7 C1.447,7 1,6.553 1,6 C1,5.447 1.447,5 2,5 L5,5 L5,2 C5,1.447 5.447,1 6,1 C6.553,1 7,1.447 7,2 L7,17 L22,17 Z M18,15 C17.447,15 17,14.553 17,14 L17,7 L10,7 C9.447,7 9,6.553 9,6 C9,5.447 9.447,5 10,5 L18,5 C18.553,5 19,5.447 19,6 L19,14 C19,14.553 18.553,15 18,15 Z"/>
</svg>
