<?xml version="1.0" encoding="UTF-8"?>
<svg width="24px" height="24px" viewBox="0 0 24 24" version="1.1" xmlns="http://www.w3.org/2000/svg" xmlns:xlink="http://www.w3.org/1999/xlink">
    <title>Icons/Customer Contact</title>
    <g id="Icons/Customer-Contact" stroke="none" stroke-width="1" fill="none" fill-rule="evenodd">
        <path d="M16.5,13 C18.4329966,13 20,14.5670034 20,16.5 C20,18.4329966 18.4329966,20 16.5,20 L5,20 C4.44771525,20 4,19.5522847 4,19 L4,16.5 C4,14.5670034 5.56700338,13 7.5,13 L16.5,13 Z M16,3 C18.209139,3 20,4.790861 20,7 L20,7 L20,10 C20,10.5522847 19.5522847,11 19,11 L19,11 L8,11 C5.790861,11 4,9.209139 4,7 C4,4.790861 5.790861,3 8,3 L8,3 Z M16,5 L8,5 L7.85073766,5.00548574 C6.81587779,5.08183488 6,5.9456382 6,7 L6,7 L6.00548574,7.14926234 C6.08183488,8.18412221 6.9456382,9 8,9 L8,9 L18,9 L18,7 L17.9945143,6.85073766 C17.9181651,5.81587779 17.0543618,5 16,5 L16,5 Z" id="🎨-Icon-Colour" fill="#344055"></path>
    </g>
</svg>