<svg xmlns="http://www.w3.org/2000/svg" width="24" height="24" viewBox="0 0 24 24">
  <path fill="#344055" fill-rule="evenodd" d="M12,12.5 C11.724,12.5 11.5,12.276 11.5,12 C11.5,11.724 11.724,11.5 12,11.5 C12.276,11.5 12.5,11.724 12.5,12 C12.5,12.276 12.276,12.5 12,12.5 M6,20 C4.896,20 4,19.104 4,18 C4,16.896 4.896,16 6,16 C7.104,16 8,16.896 8,18 C8,19.104 7.104,20 6,20 M6,8 C4.896,8 4,7.104 4,6 C4,4.896 4.896,4 6,4 C7.104,4 8,4.896 8,6 C8,7.104 7.104,8 6,8 M20.707,19.293 L10.207,8.793 L9.707,8.293 L9.435,8.021 C9.785,7.426 10,6.74 10,6 C10,3.791 8.209,2 6,2 C3.791,2 2,3.791 2,6 C2,8.209 3.791,10 6,10 C6.74,10 7.426,9.785 8.021,9.435 L8.293,9.707 L8.793,10.207 L10.586,12 L8.021,14.565 C7.426,14.215 6.74,14 6,14 C3.791,14 2,15.791 2,18 C2,20.209 3.791,22 6,22 C8.209,22 10,20.209 10,18 C10,17.26 9.785,16.574 9.435,15.979 L12,13.414 L19.293,20.707 C19.488,20.902 19.744,21 20,21 C20.256,21 20.512,20.902 20.707,20.707 C21.098,20.316 21.098,19.684 20.707,19.293 M14.9141,10.5 L20.7071,4.707 C21.0981,4.316 21.0981,3.684 20.7071,3.293 C20.3161,2.902 19.6841,2.902 19.2931,3.293 L13.5001,9.086 L14.9141,10.5 Z"/>
</svg>
