<svg xmlns="http://www.w3.org/2000/svg" width="24" height="24" viewBox="0 0 24 24">
  <path fill="#344055" fill-rule="evenodd" d="M18,3 C20.209139,3 22,4.790861 22,7 L22,13 C22,14.3090189 21.3712071,15.4711753 20.3991878,16.2009028 C20.7765771,16.7006816 21,17.3242492 21,18 C21,19.6568542 19.6568542,21 18,21 C16.3431458,21 15,19.6568542 15,18 C15,17.6493978 15.0601428,17.3128427 15.1706743,17.0000889 L9.82932572,17.0000889 C9.93985718,17.3128427 10,17.6493978 10,18 C10,19.6568542 8.65685425,21 7,21 C5.34314575,21 4,19.6568542 4,18 C4,17.6493978 4.06014282,17.3128427 4.17067428,17.0000889 L3,17 C2.44771525,17 2,16.5522847 2,16 C2,15.4477153 2.44771525,15 3,15 L14,15 L14,7 C14,4.790861 15.790861,3 18,3 Z M7,17 C6.44771525,17 6,17.4477153 6,18 C6,18.5522847 6.44771525,19 7,19 C7.55228475,19 8,18.5522847 8,18 C8,17.4477153 7.55228475,17 7,17 Z M18,17 C17.4477153,17 17,17.4477153 17,18 C17,18.5522847 17.4477153,19 18,19 C18.5522847,19 19,18.5522847 19,18 C19,17.4477153 18.5522847,17 18,17 Z M18,5 C16.8954305,5 16,5.8954305 16,7 L16,15 L18,15 C19.1045695,15 20,14.1045695 20,13 L20,10 L20,10 L19,10 C18.4477153,10 18,9.55228475 18,9 C18,8.44771525 18.4477153,8 19,8 L20,8 L20,7 C20,5.8954305 19.1045695,5 18,5 Z M10,3 C11.1045695,3 12,3.8954305 12,5 L12,11 C12,12.1045695 11.1045695,13 10,13 L4,13 C2.8954305,13 2,12.1045695 2,11 L2,5 C2,3.8954305 2.8954305,3 4,3 L10,3 Z M10,5 L4,5 L4,11 L10,11 L10,5 Z"/>
</svg>
