<svg xmlns="http://www.w3.org/2000/svg" width="24" height="24" viewBox="0 0 24 24">
  <path fill="#344055" fill-rule="evenodd" d="M11,18 L5,18 C2.790861,18 1,16.209139 1,14 L1,6 C1,3.790861 2.790861,2 5,2 L19,2 C21.209139,2 23,3.790861 23,6 L23,14 C23,16.209139 21.209139,18 19,18 L13,18 L13,20 L15,20 C15.553,20 16,20.447 16,21 C16,21.553 15.553,22 15,22 L9,22 C8.447,22 8,21.553 8,21 C8,20.447 8.447,20 9,20 L11,20 L11,18 Z M5,4 C3.8954305,4 3,4.8954305 3,6 L3,14 C3,15.1045695 3.8954305,16 5,16 L19,16 C20.1045695,16 21,15.1045695 21,14 L21,6 C21,4.8954305 20.1045695,4 19,4 L5,4 Z"/>
</svg>
