<?xml version="1.0" encoding="UTF-8"?>
<svg width="24px" height="24px" viewBox="0 0 24 24" version="1.1" xmlns="http://www.w3.org/2000/svg" xmlns:xlink="http://www.w3.org/1999/xlink">
    <title>Icons/DigitalCX</title>
    <g id="Icons/DigitalCX" stroke="none" stroke-width="1" fill="none" fill-rule="evenodd">
        <path d="M9.58002772,7.00141408 C10.8885699,7.20879616 12.0803672,7.86563476 13.2342102,9.13712015 C13.5076268,9.4384134 13.7847646,9.76926901 14.0810311,10.1450344 L14.4360881,10.6044586 L15.1743091,11.6019814 L15.896672,12.5935962 L16.2929253,13.1238817 L16.6686058,13.6110578 C16.7295898,13.6887229 16.7897804,13.7646381 16.8492093,13.8388263 L17.1968988,14.263417 L17.5278394,14.6476699 C18.7124517,15.9839994 19.5901424,16.529205 20.5002195,16.529205 C21.3286466,16.529205 22.0002195,17.2007779 22.0002195,18.029205 C22.0002195,18.8576322 21.3286466,19.529205 20.5002195,19.529205 C18.1840807,19.529205 16.6019681,18.3793814 14.4151548,15.6035002 L13.9693328,15.0265021 L13.5050055,14.4052958 L12.4382446,12.9428741 L12.0479742,12.4202036 L11.9284172,12.2636506 C11.5909893,11.8246123 11.2931997,11.4623766 11.0126056,11.153174 C10.3660883,10.4407397 9.82489224,10.1150752 9.25388866,9.99128315 L9.11043857,9.96443383 C8.29222326,9.83476036 7.73404981,9.06634469 7.86372327,8.24812938 C7.99339674,7.42991407 8.76181241,6.87174061 9.58002772,7.00141408 Z M6.05316491,7.29635198 C5.97910202,7.49989957 5.92382538,7.71353537 5.88866947,7.93536264 C5.74438201,8.84578951 5.96507529,9.72979204 6.4425001,10.4383477 C5.57388623,11.0050107 5,11.9862108 5,13.1014493 C5,14.8583551 6.42425359,16.2826087 8.18115942,16.2826087 C9.32561991,16.2826087 10.360509,15.6736762 10.9258884,14.7112571 L11.0216775,14.5327133 L11.06,14.4473913 L11.8894997,15.5842298 L12.3676751,16.2241899 L12.8328242,16.8266189 L12.9750826,17.003548 C11.822435,18.4195469 10.0784832,19.2826087 8.18115942,19.2826087 C4.76739934,19.2826087 2,16.5152094 2,13.1014493 C2,10.4354652 3.68779983,8.16368792 6.05316491,7.29635198 Z M20.5,3.7173913 C21.3284271,3.7173913 22,4.38896418 22,5.2173913 C22,6.04581843 21.3284271,6.7173913 20.5,6.7173913 C19.5547406,6.7173913 19.0549646,6.8099424 18.4824423,7.19354199 C18.0799906,7.46319134 17.7021307,7.86844644 17.3514568,8.45290305 C17.0664185,8.92796678 16.7763027,9.44599198 16.4807143,10.0048543 L16.0440228,9.41500893 L15.663815,8.92233006 C15.3235575,8.49061759 15.0177418,8.12635437 14.7155727,7.79337696 C14.6232588,7.69165101 14.530233,7.59267056 14.4364793,7.49642963 C14.5510169,7.29427862 14.6651136,7.09918971 14.778978,6.90941579 C15.3519453,5.95447029 16.0341551,5.22279958 16.8125658,4.70125136 C18.0029538,3.90367143 19.0088665,3.7173913 20.5,3.7173913 Z" id="🎨-Icon-Colour" fill="#344055"></path>
    </g>
</svg>