<svg xmlns="http://www.w3.org/2000/svg" width="24" height="24" viewBox="0 0 24 24">
  <path fill="#344055" fill-rule="evenodd" d="M11.23,4.38 C11.23,3.90192881 11.6419288,3.49 12.12,3.49 C12.5980712,3.49 13.01,3.90192881 13.01,4.38 L13.01,4.81819712 C14.2122736,4.97922426 15.2336787,5.3948122 16.2870429,6.11781598 C16.6097183,6.35248897 16.79,6.61980323 16.79,6.98 C16.79,7.53482828 16.3422658,7.95 15.78,7.95 C15.5559076,7.95 15.3778356,7.90087669 15.1929571,7.76218402 C14.436979,7.21238182 13.7035122,6.86516251 12.95,6.70086116 L12.95,11.1410075 C15.9375205,11.8484306 17.27,13.0971969 17.27,15.22 C17.27,17.4081874 15.5409789,18.983754 13.01,19.2306151 L13.01,20.42 C13.01,20.8980712 12.5980712,21.31 12.12,21.31 C11.6419288,21.31 11.23,20.8980712 11.23,20.42 L11.23,19.1863987 C9.68479159,19.0114475 8.30549437,18.4122226 6.99295708,17.382184 C6.70167924,17.1703456 6.55,16.8933661 6.55,16.54 C6.55,16.0034774 7.00014962,15.57 7.54,15.57 C7.77648975,15.57 7.99195043,15.6534041 8.16180771,15.7894265 C9.17643163,16.6508996 10.1567027,17.1481115 11.29,17.332859 L11.29,12.796611 C8.314534,12.0564979 7.03,10.8563626 7.03,8.7 C7.03,6.56843658 8.76546949,4.97749314 11.23,4.76626135 L11.23,4.38 Z M15.23,15.32 C15.23,14.2571824 14.6719042,13.6737224 12.95,13.1862511 L12.95,17.4075468 C14.3721189,17.2427101 15.23,16.4414333 15.23,15.32 Z M9.07,8.6 C9.07,9.66310261 9.59499622,10.2347729 11.29,10.7308031 L11.29,6.60993434 C9.91737785,6.75877919 9.07,7.54975378 9.07,8.6 Z"/>
</svg>
