<svg xmlns="http://www.w3.org/2000/svg" width="24" height="24" viewBox="0 0 24 24">
  <path fill="#344055" fill-rule="evenodd" d="M11.6515447,18.937615 C11.5757572,18.9094381 11.5043108,18.8723353 11.438483,18.8275842 C11.4032712,18.8036148 11.3692575,18.7771565 11.3366919,18.7482133 C11.317286,18.7311449 11.2986229,18.7132559 11.2806733,18.6946733 L6.29325,13.70725 C5.90225,13.31625 5.90225,12.68425 6.29325,12.29325 C6.68425,11.90225 7.31625,11.90225 7.70725,12.29325 L11,15.586 L11,6 C11,5.44771525 11.4477153,5 12,5 C12.5522847,5 13,5.44771525 13,6 L13,15.5865 L16.29325,12.29325 C16.68425,11.90225 17.31625,11.90225 17.70725,12.29325 C18.09825,12.68425 18.09825,13.31625 17.70725,13.70725 L12.70725,18.70725 C12.51225,18.90225 12.25625,19.00025 12.00025,19.00025 C11.8820084,19.00025 11.7637668,18.9793432 11.6515358,18.9376282 L11.6515447,18.937615 Z"/>
</svg>
