<?xml version="1.0" encoding="UTF-8"?>
<svg width="24px" height="24px" viewBox="0 0 24 24" version="1.1" xmlns="http://www.w3.org/2000/svg" xmlns:xlink="http://www.w3.org/1999/xlink">
    <title>Icons/Drag</title>
    <g id="Icons/Drag" stroke="none" stroke-width="1" fill="none" fill-rule="evenodd">
        <path d="M9,8 L9,8 C10.104,8 11,7.104 11,6 C11,4.896 10.104,4 9,4 C7.896,4 7,4.896 7,6 C7,7.104 7.896,8 9,8 M15,8 L15,8 C16.104,8 17,7.104 17,6 C17,4.896 16.104,4 15,4 C13.896,4 13,4.896 13,6 C13,7.104 13.896,8 15,8 M9,14 L9,14 C10.104,14 11,13.104 11,12 C11,10.896 10.104,10 9,10 C7.896,10 7,10.896 7,12 C7,13.104 7.896,14 9,14 M15,14 L15,14 C16.104,14 17,13.104 17,12 C17,10.896 16.104,10 15,10 C13.896,10 13,10.896 13,12 C13,13.104 13.896,14 15,14 M9,20 L9,20 C10.104,20 11,19.104 11,18 C11,16.896 10.104,16 9,16 C7.896,16 7,16.896 7,18 C7,19.104 7.896,20 9,20 M15,20 L15,20 C16.104,20 17,19.104 17,18 C17,16.896 16.104,16 15,16 C13.896,16 13,16.896 13,18 C13,19.104 13.896,20 15,20" id="drag" fill="#344055"></path>
    </g>
</svg>