<svg xmlns="http://www.w3.org/2000/svg" width="24" height="24" viewBox="0 0 24 24">
  <path fill="#344055" fill-rule="evenodd" d="M19,18.9971 C19,19.5491 18.549,20.0001 17.997,20.0001 L12.003,20.0001 C11.451,20.0001 11,19.5491 11,18.9971 L11,10.0031 C11,9.4511 11.451,9.0001 12.003,9.0001 L17.997,9.0001 C18.549,9.0001 19,9.4511 19,10.0031 L19,18.9971 Z M18.103,7.0001 L11.897,7.0001 C10.304,7.0001 9,8.3041 9,9.8971 L9,19.1021 C9,20.6961 10.304,22.0001 11.897,22.0001 L18.103,22.0001 C19.696,22.0001 21,20.6961 21,19.1021 L21,9.8971 C21,8.3041 19.696,7.0001 18.103,7.0001 L18.103,7.0001 Z M7,15 L6.003,15 C5.451,15 5,14.549 5,13.997 L5,5.003 C5,4.451 5.451,4 6.003,4 L11.997,4 C12.549,4 13,4.451 13,5.003 L13,5.375 L14.792,5.375 C14.866,5.375 14.93,5.406 15,5.422 L15,4.897 C15,3.304 13.696,2 12.103,2 L5.897,2 C4.304,2 3,3.304 3,4.897 L3,14.103 C3,15.696 4.304,17 5.897,17 L7,17 L7,15 Z"/>
</svg>
