<svg xmlns="http://www.w3.org/2000/svg" width="24" height="24" viewBox="0 0 24 24">
  <path fill="#344055" fill-rule="evenodd" d="M16.707,15.293 C16.902,15.488 17,15.744 17,16 C17,16.256 16.902,16.512 16.707,16.707 C16.512,16.902 16.256,17 16,17 C15.744,17 15.488,16.902 15.293,16.707 L12,13.414 L8.707,16.707 C8.512,16.902 8.256,17 8,17 C7.744,17 7.488,16.902 7.293,16.707 C7.098,16.512 7,16.256 7,16 C7,15.744 7.098,15.488 7.293,15.293 L10.586,12 L7.293,8.707 C7.098,8.512 7,8.256 7,8 C7,7.744 7.098,7.488 7.293,7.293 C7.684,6.902 8.316,6.902 8.707,7.293 L12,10.586 L15.293,7.293 C15.684,6.902 16.316,6.902 16.707,7.293 C16.902,7.488 17,7.744 17,8 C17,8.256 16.902,8.512 16.707,8.707 L13.414,12 L16.707,15.293 Z M12,2 C6.48,2 2,6.48 2,12 C2,17.52 6.48,22 12,22 C17.519,22 22,17.52 22,12 C22,6.48 17.519,2 12,2 L12,2 Z"/>
</svg>
