<svg xmlns="http://www.w3.org/2000/svg" width="24" height="24" viewBox="0 0 24 24">
  <path fill="#344055" fill-rule="evenodd" d="M13.87,18.06 C15.1174921,18.06 16.0634697,17.4512459 16.99,16.18 C17.1698805,15.9401594 17.4291753,15.8 17.75,15.8 C18.289925,15.8 18.72,16.2135336 18.72,16.75 C18.72,16.9485764 18.6428825,17.1413702 18.5123038,17.3368781 C17.2510001,19.0741454 15.7846167,19.98 13.81,19.98 C10.9692791,19.98 8.74228845,18.0289113 7.95448399,15 L6.87,15 C6.39192881,15 6,14.6080712 6,14.13 C6,13.6362548 6.38764056,13.24 6.87,13.24 L7.68442444,13.24 C7.66645793,12.9281334 7.66,12.7412469 7.66,12.51 C7.66,12.1956073 7.67209859,11.8827063 7.69599005,11.58 L6.87,11.58 C6.39192881,11.58 6,11.1880712 6,10.71 C6,10.2319288 6.39192881,9.84 6.87,9.84 L8.02089156,9.84 C8.87879737,6.92300963 11.0410148,5 13.71,5 C15.7461238,5 17.1812037,5.8109184 18.4220553,7.4099539 C18.5803822,7.5999461 18.68,7.83238774 18.68,8.09 C18.68,8.62807119 18.2280712,9.08 17.69,9.08 C17.3650727,9.08 17.0922429,8.93676436 16.8903934,8.70052304 C15.9376419,7.43709178 15.045964,6.92 13.65,6.92 C12.1048784,6.92 10.8062751,8.03218264 10.1729607,9.84 L14.43,9.84 C14.9094755,9.84 15.32,10.2330554 15.32,10.71 C15.32,11.1869446 14.9094755,11.58 14.43,11.58 L9.77743228,11.58 C9.75247646,11.8766904 9.74,12.173351 9.74,12.47 C9.74,12.8390876 9.74320753,13.0549197 9.75644978,13.24 L14.43,13.24 C14.9138386,13.24 15.32,13.6375196 15.32,14.13 C15.32,14.6069446 14.9094755,15 14.43,15 L10.1073819,15 C10.7438708,16.9156788 12.1252071,18.06 13.87,18.06 Z"/>
</svg>
