<svg xmlns="http://www.w3.org/2000/svg" width="24" height="24" viewBox="0 0 24 24">
  <path fill="#344055" fill-rule="evenodd" d="M15,3 C16.1045695,3 17,3.8954305 17,5 C17,6.1045695 16.1045695,7 15,7 L15,10 L19.065965,16.3893735 C19.9554894,17.7871976 19.5434311,19.64146 18.145607,20.5309845 C17.6642542,20.8372999 17.1055326,21 16.5349805,21 L7.46501949,21 C5.80816524,21 4.46501949,19.6568542 4.46501949,18 C4.46501949,17.4294479 4.62771961,16.8707263 4.93403503,16.3893735 L9,10 L9,7 C7.8954305,7 7,6.1045695 7,5 C7,3.8954305 7.8954305,3 9,3 L15,3 Z M10.999,7 L11,10.5824014 L6.62135801,17.4631245 C6.51925287,17.6235754 6.46501949,17.809816 6.46501949,18 C6.46501949,18.5128358 6.85105968,18.9355072 7.34839837,18.9932723 L7.46501949,19 L16.5349805,19 C16.7251645,19 16.9114051,18.9457666 17.071856,18.8436615 C17.5045158,18.5683325 17.6538518,18.0157234 17.4355771,17.5651252 L17.378642,17.4631245 L13,10.5824014 L12.999,7 L13,7 L13,5 L11,5 L11,7 L10.999,7 Z M10,16 C10.5522847,16 11,16.4477153 11,17 C11,17.5522847 10.5522847,18 10,18 C9.44771525,18 9,17.5522847 9,17 C9,16.4477153 9.44771525,16 10,16 Z M12,13 C12.5522847,13 13,13.4477153 13,14 C13,14.5522847 12.5522847,15 12,15 C11.4477153,15 11,14.5522847 11,14 C11,13.4477153 11.4477153,13 12,13 Z"/>
</svg>
