<?xml version="1.0" encoding="UTF-8"?>
<svg width="24px" height="24px" viewBox="0 0 24 24" version="1.1" xmlns="http://www.w3.org/2000/svg" xmlns:xlink="http://www.w3.org/1999/xlink">
    <title>Export</title>
    <g id="Export" stroke="none" stroke-width="1" fill="none" fill-rule="evenodd">
        <path d="M20,17 C20.5128358,17 20.9355072,17.3860402 20.9932723,17.8833789 L21,18 L21,21 C21,21.5128358 20.6139598,21.9355072 20.1166211,21.9932723 L20,22 L4,22 C3.48716416,22 3.06449284,21.6139598 3.00672773,21.1166211 L3,21 L3,18 C3,17.4477153 3.44771525,17 4,17 C4.51283584,17 4.93550716,17.3860402 4.99327227,17.8833789 L5,18 L5,20 L19,20 L19,18 C19,17.4871642 19.3860402,17.0644928 19.8833789,17.0067277 L20,17 Z M11.6089706,4.077 C11.8529706,3.976 12.1289706,3.976 12.3729706,4.077 C12.4959706,4.128 12.6059706,4.201 12.6979706,4.294 L12.6979706,4.294 L16.6979706,8.293 C17.0889706,8.684 17.0889706,9.316 16.6979706,9.707 C16.5029706,9.902 16.2469706,10 15.9909706,10 C15.7349706,10 15.4789706,9.902 15.2839706,9.707 L15.2839706,9.707 L12.9909706,7.414 L12.9909706,17 C12.9909706,17.553 12.5429706,18 11.9909706,18 C11.4389706,18 10.9909706,17.553 10.9909706,17 L10.9909706,17 L10.9909706,7.414 L8.69797061,9.707 C8.30697061,10.098 7.67497061,10.098 7.28397061,9.707 C6.89297061,9.316 6.89297061,8.684 7.28397061,8.293 L7.28397061,8.293 L11.2829706,4.294 C11.3759706,4.201 11.4859706,4.128 11.6089706,4.077 Z" id="Combined-Shape" fill="#344055"></path>
    </g>
</svg>