<svg xmlns="http://www.w3.org/2000/svg" width="24" height="24" viewBox="0 0 24 24">
  <path fill="#344055" fill-rule="evenodd" d="M8.29289322,14.7928932 C10.6834175,12.4023689 13.3165825,12.4023689 15.7071068,14.7928932 C16.0976311,15.1834175 16.0976311,15.8165825 15.7071068,16.2071068 C15.3165825,16.5976311 14.6834175,16.5976311 14.2928932,16.2071068 C12.6834175,14.5976311 11.3165825,14.5976311 9.70710678,16.2071068 C9.31658249,16.5976311 8.68341751,16.5976311 8.29289322,16.2071068 C7.90236893,15.8165825 7.90236893,15.1834175 8.29289322,14.7928932 Z M8.5,11 C7.67,11 7,10.33 7,9.5 C7,8.67 7.67,8 8.5,8 C9.33,8 10,8.67 10,9.5 C10,10.33 9.33,11 8.5,11 Z M15.5,11 C14.67,11 14,10.33 14,9.5 C14,8.67 14.67,8 15.5,8 C16.33,8 17,8.67 17,9.5 C17,10.33 16.33,11 15.5,11 Z M12,20 C16.42,20 20,16.42 20,12 C20,7.58 16.42,4 12,4 C7.58,4 4,7.58 4,12 C4,16.42 7.58,20 12,20 Z M11.99,2 C17.52,2 22,6.48 22,12 C22,17.52 17.52,22 11.99,22 C6.47,22 2,17.52 2,12 C2,6.48 6.47,2 11.99,2 Z"/>
</svg>
