<svg xmlns="http://www.w3.org/2000/svg" width="24" height="24" viewBox="0 0 24 24">
  <path fill="#344055" fill-rule="evenodd" d="M8.29289322,14.7928932 C7.90236893,15.1834175 7.90236893,15.8165825 8.29289322,16.2071068 C8.68341751,16.5976311 9.31658249,16.5976311 9.70710678,16.2071068 C11.3165825,14.5976311 12.6834175,14.5976311 14.2928932,16.2071068 C14.6834175,16.5976311 15.3165825,16.5976311 15.7071068,16.2071068 C16.0976311,15.8165825 16.0976311,15.1834175 15.7071068,14.7928932 C13.3165825,12.4023689 10.6834175,12.4023689 8.29289322,14.7928932 Z M8.5,11 C9.33,11 10,10.33 10,9.5 C10,8.67 9.33,8 8.5,8 C7.67,8 7,8.67 7,9.5 C7,10.33 7.67,11 8.5,11 Z M15.5,11 C16.33,11 17,10.33 17,9.5 C17,8.67 16.33,8 15.5,8 C14.67,8 14,8.67 14,9.5 C14,10.33 14.67,11 15.5,11 Z M11.99,2 C17.52,2 22,6.48 22,12 C22,17.52 17.52,22 11.99,22 C6.47,22 2,17.52 2,12 C2,6.48 6.47,2 11.99,2 Z"/>
</svg>
