<svg xmlns="http://www.w3.org/2000/svg" width="24" height="24" viewBox="0 0 24 24">
  <path fill="#344055" fill-rule="evenodd" d="M9.00029266,17 L15.0002927,17 C15.3312927,17 15.6402927,16.836 15.8262927,16.563 C16.0132927,16.29 16.0522927,15.942 15.9312927,15.634 C15.2842927,13.985 13.8142927,13 12.0002927,13 C10.1862927,13 8.71629266,13.985 8.06929266,15.634 C7.94829266,15.942 7.98729266,16.29 8.17429266,16.563 C8.36029266,16.836 8.67029266,17 9.00029266,17 Z M2,12 C2,6.48 6.47,2 11.99,2 C17.52,2 22,6.48 22,12 C22,17.52 17.52,22 11.99,22 C6.47,22 2,17.52 2,12 Z M8.5,11 C9.33,11 10,10.33 10,9.5 C10,8.67 9.33,8 8.5,8 C7.67,8 7,8.67 7,9.5 C7,10.33 7.67,11 8.5,11 Z M15.5,11 C16.33,11 17,10.33 17,9.5 C17,8.67 16.33,8 15.5,8 C14.67,8 14,8.67 14,9.5 C14,10.33 14.67,11 15.5,11 Z"/>
</svg>
