<svg xmlns="http://www.w3.org/2000/svg" width="24" height="24" viewBox="0 0 24 24">
  <path fill="#344055" fill-rule="evenodd" d="M9,14 L15,14 C15.5522847,14 16,14.4477153 16,15 C16,15.5522847 15.5522847,16 15,16 L9,16 C8.44771525,16 8,15.5522847 8,15 C8,14.4477153 8.44771525,14 9,14 Z M8.5,11 C7.67,11 7,10.33 7,9.5 C7,8.67 7.67,8 8.5,8 C9.33,8 10,8.67 10,9.5 C10,10.33 9.33,11 8.5,11 Z M15.5,11 C14.67,11 14,10.33 14,9.5 C14,8.67 14.67,8 15.5,8 C16.33,8 17,8.67 17,9.5 C17,10.33 16.33,11 15.5,11 Z M12,20 C16.42,20 20,16.42 20,12 C20,7.58 16.42,4 12,4 C7.58,4 4,7.58 4,12 C4,16.42 7.58,20 12,20 Z M2,12 C2,6.48 6.47,2 11.99,2 C17.52,2 22,6.48 22,12 C22,17.52 17.52,22 11.99,22 C6.47,22 2,17.52 2,12 Z"/>
</svg>
