<svg xmlns="http://www.w3.org/2000/svg" width="24" height="24" viewBox="0 0 24 24">
  <path fill="#344055" fill-rule="evenodd" d="M15.8262927,14.437 C15.6402927,14.164 15.3302927,14 15.0002927,14 L9.00029266,14 C8.66929266,14 8.36029266,14.164 8.17429266,14.437 C7.98729266,14.71 7.94829266,15.058 8.06929266,15.366 C8.71629266,17.015 10.1862927,18 12.0002927,18 C13.8142927,18 15.2842927,17.015 15.9312927,15.366 C16.0522927,15.058 16.0132927,14.71 15.8262927,14.437 M8.5,11 C9.33,11 10,10.33 10,9.5 C10,8.67 9.33,8 8.5,8 C7.67,8 7,8.67 7,9.5 C7,10.33 7.67,11 8.5,11 M15.5,11 C16.33,11 17,10.33 17,9.5 C17,8.67 16.33,8 15.5,8 C14.67,8 14,8.67 14,9.5 C14,10.33 14.67,11 15.5,11 M12,20 C7.58,20 4,16.42 4,12 C4,7.58 7.58,4 12,4 C16.42,4 20,7.58 20,12 C20,16.42 16.42,20 12,20 M11.99,2 C6.47,2 2,6.48 2,12 C2,17.52 6.47,22 11.99,22 C17.52,22 22,17.52 22,12 C22,6.48 17.52,2 11.99,2"/>
</svg>
