<svg xmlns="http://www.w3.org/2000/svg" width="24" height="24" viewBox="0 0 24 24">
  <path fill="#344055" fill-rule="evenodd" d="M9,14 C8.44771525,14 8,14.4477153 8,15 C8,15.5522847 8.44771525,16 9,16 L15,16 C15.5522847,16 16,15.5522847 16,15 C16,14.4477153 15.5522847,14 15,14 L9,14 Z M8.5,11 C9.33,11 10,10.33 10,9.5 C10,8.67 9.33,8 8.5,8 C7.67,8 7,8.67 7,9.5 C7,10.33 7.67,11 8.5,11 Z M15.5,11 C16.33,11 17,10.33 17,9.5 C17,8.67 16.33,8 15.5,8 C14.67,8 14,8.67 14,9.5 C14,10.33 14.67,11 15.5,11 Z M2,12 C2,6.48 6.47,2 11.99,2 C17.52,2 22,6.48 22,12 C22,17.52 17.52,22 11.99,22 C6.47,22 2,17.52 2,12 Z"/>
</svg>
