<svg xmlns="http://www.w3.org/2000/svg" width="24" height="24" viewBox="0 0 24 24">
  <path fill="#344055" fill-rule="evenodd" d="M9.00029266,17 C8.67029266,17 8.36029266,16.836 8.17429266,16.563 C7.98729266,16.29 7.94829266,15.942 8.06929266,15.634 C8.71629266,13.985 10.1862927,13 12.0002927,13 C13.8142927,13 15.2842927,13.985 15.9312927,15.634 C16.0522927,15.942 16.0132927,16.29 15.8262927,16.563 C15.6402927,16.836 15.3312927,17 15.0002927,17 L9.00029266,17 Z M4,12 C4,16.42 7.58,20 12,20 C16.42,20 20,16.42 20,12 C20,7.58 16.42,4 12,4 C7.58,4 4,7.58 4,12 Z M2,12 C2,6.48 6.47,2 11.99,2 C17.52,2 22,6.48 22,12 C22,17.52 17.52,22 11.99,22 C6.47,22 2,17.52 2,12 Z M8.5,11 C7.67,11 7,10.33 7,9.5 C7,8.67 7.67,8 8.5,8 C9.33,8 10,8.67 10,9.5 C10,10.33 9.33,11 8.5,11 Z M15.5,11 C14.67,11 14,10.33 14,9.5 C14,8.67 14.67,8 15.5,8 C16.33,8 17,8.67 17,9.5 C17,10.33 16.33,11 15.5,11 Z"/>
</svg>
