<svg xmlns="http://www.w3.org/2000/svg" width="24" height="24" viewBox="0 0 24 24">
  <path fill="#344055" fill-rule="evenodd" d="M12,22 C6.4771525,22 2,17.5228475 2,12 C2,6.4771525 6.4771525,2 12,2 C17.5228475,2 22,6.4771525 22,12 C22,17.5228475 17.5228475,22 12,22 Z M17.9532457,10.4230694 C17.9532457,10.4224076 17.9532457,10.4217458 17.9525838,10.4204221 C17.820216,10.0080964 17.4403205,9.73078593 17.006816,9.73078593 L13.9332361,9.73078593 L12.9451106,6.66448627 C12.8167139,6.26738292 12.4374802,6 12,6 C11.5625292,6 11.1832955,6.26738292 11.0548987,6.66382443 L10.0667732,9.73078593 L6.99253149,9.73078593 C6.55968884,9.73078593 6.1797933,10.0080964 6.04676368,10.4230694 C5.91638142,10.8353951 6.06463333,11.2814745 6.41673163,11.5323114 L8.91914455,13.3126581 L7.96013997,16.2558557 C7.82512483,16.6675195 7.97006756,17.113599 8.3195185,17.3677451 C8.49490581,17.49548 8.69941403,17.5583547 8.90392226,17.5583547 C9.10909232,17.5583547 9.3129387,17.49548 9.48832601,17.3677451 L12,15.5390842 L14.5096978,17.3664214 C14.8518685,17.6172584 15.3422912,17.6152729 15.6791672,17.368407 C16.0299418,17.113599 16.1742227,16.6675195 16.0398694,16.2578413 L15.0808648,13.3126581 L17.5826159,11.5323114 C17.935376,11.2814745 18.0836279,10.8353951 17.9532457,10.4230694 Z"/>
</svg>
