<svg xmlns="http://www.w3.org/2000/svg" width="24" height="24" viewBox="0 0 24 24">
  <path fill="#344055" fill-rule="evenodd" d="M21.0606572,9.683 C21.0606572,9.682 21.0606572,9.681 21.0596572,9.679 C20.8596572,9.056 20.2856572,8.637 19.6306572,8.637 L14.9866572,8.637 L13.4936572,4.004 C13.2996572,3.404 12.7266572,3 12.0656572,3 C11.4046572,3 10.8316572,3.404 10.6376572,4.003 L9.1446572,8.637 L4.4996572,8.637 C3.8456572,8.637 3.2716572,9.056 3.0706572,9.683 C2.8736572,10.306 3.0976572,10.98 3.6296572,11.359 L7.4106572,14.049 L5.9616572,18.496 C5.7576572,19.118 5.9766572,19.792 6.5046572,20.176 C6.7696572,20.369 7.0786572,20.464 7.3876572,20.464 C7.6976572,20.464 8.0056572,20.369 8.2706572,20.176 L12.0656572,17.413 L15.8576572,20.174 C16.3746572,20.553 17.1156572,20.55 17.6246572,20.177 C18.1546572,19.792 18.3726572,19.118 18.1696572,18.499 L16.7206572,14.049 L20.5006572,11.359 C21.0336572,10.98 21.2576572,10.306 21.0606572,9.683"/>
</svg>
