<svg xmlns="http://www.w3.org/2000/svg" width="24" height="24" viewBox="0 0 24 24">
  <path fill="#344055" fill-rule="evenodd" d="M16,2 L20,6 L20,18 C20,20.209139 18.209139,22 16,22 L8,22 C5.790861,22 4,20.209139 4,18 L4,6 C4,3.790861 5.790861,2 8,2 L16,2 Z M14,4 L8,4 C6.8954305,4 6,4.8954305 6,6 L6,18 C6,19.1045695 6.8954305,20 8,20 L16,20 C17.1045695,20 18,19.1045695 18,18 L18,8 L17,8 C15.3431458,8 14,6.65685425 14,5 L14,4 Z M15,16 C15.5522847,16 16,16.4477153 16,17 C16,17.5522847 15.5522847,18 15,18 L9,18 C8.44771525,18 8,17.5522847 8,17 C8,16.4477153 8.44771525,16 9,16 L15,16 Z M15,12 C15.5522847,12 16,12.4477153 16,13 C16,13.5522847 15.5522847,14 15,14 L9,14 C8.44771525,14 8,13.5522847 8,13 C8,12.4477153 8.44771525,12 9,12 L15,12 Z"/>
</svg>
