<svg xmlns="http://www.w3.org/2000/svg" width="24" height="24" viewBox="0 0 24 24">
  <path fill="#344055" fill-rule="evenodd" d="M3,22 C2.447,22 2,21.553 2,21 C2,20.447 2.447,20 3,20 L21,20 C21.553,20 22,20.447 22,21 C22,21.553 21.553,22 21,22 L3,22 Z M17,16 C17,17.1 17.9,18 19,18 C20.1,18 21,17.1 21,16 C21,14.67 19,12.5 19,12.5 C19,12.5 17,14.67 17,16 Z M5.21,11 L10,6.21 L14.79,11 L5.21,11 Z M8.325,1.705 C7.936,1.315 7.305,1.315 6.915,1.705 C6.525,2.094 6.525,2.726 6.915,3.115 L7.885,4.085 C8.274,4.475 8.274,5.105 7.885,5.495 L3.44,9.94 C2.85,10.53 2.85,11.48 3.44,12.06 L8.94,17.56 C9.231,17.85 9.62,18 10,18 C10.38,18 10.77,17.85 11.06,17.56 L16.56,12.06 C17.15,11.48 17.15,10.53 16.56,9.94 L8.325,1.705 Z"/>
</svg>
