<?xml version="1.0" encoding="UTF-8"?>
<svg width="24px" height="24px" viewBox="0 0 24 24" version="1.1" xmlns="http://www.w3.org/2000/svg" xmlns:xlink="http://www.w3.org/1999/xlink">
    <title>Icons/Fingerprint</title>
    <g id="Icons/Fingerprint" stroke="none" stroke-width="1" fill="none" fill-rule="evenodd">
        <path d="M8.57084994,14.3446167 C8.79597563,16.4624809 9.43534039,18.6071249 10.4638519,20.5279594 C10.7245527,21.0148408 10.5411971,21.620876 10.0543157,21.8815768 C9.56743425,22.1422776 8.96139909,21.958922 8.70069827,21.4720406 C7.5474114,19.3181772 6.83382851,16.9245807 6.58205444,14.5560226 C6.52367631,14.0068319 6.92155853,13.5143 7.47074925,13.4559219 C8.01993996,13.3975438 8.51247182,13.795426 8.57084994,14.3446167 Z M11.5881011,9.9998721 L11.7046689,10.0075184 C12.2528014,10.0751146 12.6423529,10.5742614 12.5747567,11.1223938 C12.1547018,14.5285851 12.9561373,17.9175333 15.2956695,20.2992373 C15.6826901,20.6932342 15.6770347,21.3263739 15.2830378,21.7133944 C14.8890409,22.100415 14.2559012,22.0947596 13.8688806,21.7007627 C11.0449595,18.8259384 10.1015576,14.8366713 10.5897935,10.8776062 C10.6525614,10.368626 11.0874315,9.99638146 11.5881011,9.9998721 Z M11.5822751,2 C13.3684727,2 15.0535051,2.45031412 16.4775297,3.30920126 C16.9504535,3.59444078 17.1026016,4.20905354 16.817362,4.68197728 C16.5321225,5.15490101 15.9175098,5.30704912 15.444586,5.02180959 C14.3385701,4.35472641 13.0112178,4 11.5822751,4 C7.64452523,4 5.00603634,6.46930365 4.6020536,10.7973826 L4.57888452,11.0822777 C4.36751096,13.6425934 4.57528717,15.8489427 5.30241758,18.7574644 C5.43636631,19.2932593 5.11060561,19.8361938 4.57481071,19.9701425 C4.0390158,20.1040912 3.49608131,19.7783305 3.36213258,19.2425356 C2.63249028,16.3239664 2.38623259,14.0108252 2.54710067,11.4470406 L2.58468004,10.9306881 C2.96852563,5.40605677 6.49238425,2 11.5822751,2 Z M11.5822751,6 C14.4513833,6 16.4735855,7.76499356 16.5780303,10.7549014 L16.5822751,11 L16.5808847,11.3945207 C16.5668254,14.0921618 16.8408616,15.4696037 18.1068216,17.0644772 L18.341119,17.3487275 C18.7008069,17.7678254 18.6526455,18.399156 18.2335476,18.7588439 C17.8144497,19.1185318 17.1831191,19.0703705 16.8234312,18.6512725 L16.7354575,18.547386 C15.0137566,16.4866361 14.5933714,14.7537742 14.5806886,11.7259356 L14.5822751,11 C14.5822751,9.01235288 13.4657007,8 11.5822751,8 C9.92281216,8 9.0007616,8.78278997 8.64777665,10.6507994 C8.54522994,11.1934804 8.02216958,11.5502797 7.47948863,11.447733 C6.93680767,11.3451863 6.58000836,10.8221259 6.68255507,10.279445 C7.21222,7.47643849 8.95132115,6 11.5822751,6 Z M19.513788,6.51567995 L19.5825195,6.63454154 L19.616814,6.70224577 C20.2520778,7.97106929 20.5822751,9.42314274 20.5806195,11.0575196 C20.4548855,13.2398319 20.8669835,14.5231527 21.6962335,15.0546571 L21.8067523,15.1197322 C22.2929108,15.3817788 22.4745894,15.9883188 22.2125429,16.4744772 C21.9504963,16.9606357 21.3439563,17.1423143 20.8577978,16.8802678 C19.1251309,15.9463349 18.4128802,13.9113329 18.5822751,11 C18.5822751,9.84399447 18.3670406,8.79238932 17.9572075,7.87033744 L17.7950784,7.53193395 C17.5422278,7.04092986 17.7352893,6.43791648 18.2262934,6.18506586 C18.6822257,5.950276 19.2347375,6.09997161 19.513788,6.51567995 Z" id="🎨-Icon-color" fill="#344055"></path>
    </g>
</svg>