<svg xmlns="http://www.w3.org/2000/svg" width="24" height="24" viewBox="0 0 24 24">
  <path fill="#344055" fill-rule="evenodd" d="M8,18 C7.448,18 7,17.553 7,17 L7,7 C7,6.448 7.448,6 8,6 C8.552,6 9,6.448 9,7 L9,17 C9,17.553 8.552,18 8,18 M17,18 C16.744,18 16.488,17.902 16.293,17.707 L11.293,12.707 C10.902,12.316 10.902,11.684 11.293,11.293 L16.293,6.293 C16.684,5.902 17.316,5.902 17.707,6.293 C18.098,6.684 18.098,7.316 17.707,7.707 L13.414,12 L17.707,16.293 C18.098,16.684 18.098,17.316 17.707,17.707 C17.512,17.902 17.256,18 17,18"/>
</svg>
