<?xml version="1.0" encoding="UTF-8"?>
<svg width="24px" height="24px" viewBox="0 0 24 24" version="1.1" xmlns="http://www.w3.org/2000/svg" xmlns:xlink="http://www.w3.org/1999/xlink">
    <title>Icons/Fit Horizontal</title>
    <g id="Icons/Fit-Horizontal" stroke="none" stroke-width="1" fill="none" fill-rule="evenodd">
        <path d="M3,4 C3.55228475,4 4,4.44771525 4,5 L4,19 C4,19.5522847 3.55228475,20 3,20 C2.44771525,20 2,19.5522847 2,19 L2,5 C2,4.44771525 2.44771525,4 3,4 Z M21,4 C21.5522847,4 22,4.44771525 22,5 L22,19 C22,19.5522847 21.5522847,20 21,20 C20.4477153,20 20,19.5522847 20,19 L20,5 C20,4.44771525 20.4477153,4 21,4 Z M8.94974747,8.46510678 C9.31023143,8.82559074 9.33796097,9.3928218 9.03293607,9.78511301 L8.94974747,9.87932034 L7.82921356,10.9992136 L16.1552136,10.9992136 L15.0355339,9.87932034 C14.6450096,9.48879605 14.6450096,8.85563107 15.0355339,8.46510678 C15.4260582,8.07458249 16.0592232,8.07458249 16.4497475,8.46510678 L19.2781746,11.2935339 C19.6686989,11.6840582 19.6686989,12.3172232 19.2781746,12.7077475 L16.4497475,15.5361746 C16.0592232,15.9266989 15.4260582,15.9266989 15.0355339,15.5361746 C14.6450096,15.1456503 14.6450096,14.5124853 15.0355339,14.121961 L16.1572136,12.9992136 L7.82721356,12.9992136 L8.94974747,14.121961 C9.34027176,14.5124853 9.34027176,15.1456503 8.94974747,15.5361746 C8.58926351,15.8966586 8.02203245,15.9243881 7.62974124,15.6193632 L7.53553391,15.5361746 L4.70710678,12.7077475 C4.34662282,12.3472635 4.31889328,11.7800325 4.62391817,11.3877412 L4.70710678,11.2935339 L7.53553391,8.46510678 C7.9260582,8.07458249 8.55922318,8.07458249 8.94974747,8.46510678 Z" id="🎨-Icon-Colour" fill="#344055"></path>
    </g>
</svg>