<svg xmlns="http://www.w3.org/2000/svg" width="24" height="24" viewBox="0 0 24 24">
  <path fill="#344055" fill-rule="evenodd" d="M8,4 C9.1045695,4 10,4.8954305 10,6 L18,6 C20.209139,6 22,7.790861 22,10 L22,16 C22,18.209139 20.209139,20 18,20 L6,20 C3.790861,20 2,18.209139 2,16 L2,6 C2,4.8954305 2.8954305,4 4,4 L8,4 Z M18,8 L4,8 L4,16 C4,17.1045695 4.8954305,18 6,18 L18,18 C19.1045695,18 20,17.1045695 20,16 L20,10 C20,8.8954305 19.1045695,8 18,8 Z M12,9 C12.5522847,9 13,9.44771525 13,10 L13,11.999 L15,12 C15.5522847,12 16,12.4477153 16,13 C16,13.5522847 15.5522847,14 15,14 L13,14 L13,16 C13,16.5522847 12.5522847,17 12,17 C11.4477153,17 11,16.5522847 11,16 L11,14 L9,14 C8.44771525,14 8,13.5522847 8,13 C8,12.4477153 8.44771525,12 9,12 L11,12 L11,10 C11,9.44771525 11.4477153,9 12,9 Z"/>
</svg>
