<svg xmlns="http://www.w3.org/2000/svg" width="24" height="24" viewBox="0 0 24 24">
  <path fill="#344055" fill-rule="evenodd" d="M12,3 C12.5522847,3 13,3.44771525 13,4 L13,8 C13,10.868173 11.5859733,12.5947528 9.00066543,12.9369937 L9,20 C9,20.5522847 8.55228475,21 8,21 C7.44771525,21 7,20.5522847 7,20 L7.00034372,12.9371272 C4.49520561,12.6058872 3.08954376,10.9751099 3.00413632,8.26557341 L3,8 L3,4 C3,3.44771525 3.44771525,3 4,3 C4.55228475,3 5,3.44771525 5,4 L5,8 C5,9.74383754 5.60240927,10.6518535 6.99973476,10.9165547 L7,4 C7,3.44771525 7.44771525,3 8,3 C8.55228475,3 9,3.44771525 9,4 L9.00127961,10.9163624 C10.3396905,10.6624534 10.9484442,9.81796564 10.9968501,8.21358972 L11,8 L11,4 C11,3.44771525 11.4477153,3 12,3 Z M18.9999828,5.75049504 C17.6386229,6.72032089 16.9994231,7.7994806 16.9994231,9 C16.9994231,10.2005194 17.6386229,11.2796791 18.9999828,12.249505 L18.9999828,5.75049504 Z M20.176514,3.01552928 C20.1902331,3.01810264 20.2044933,3.02098373 20.2186785,3.02417132 C20.2391343,3.02856135 20.2586375,3.03355933 20.2779016,3.03912094 C20.2931858,3.04380196 20.3088738,3.04875546 20.3244316,3.0540906 C20.3456021,3.06106294 20.3663503,3.06897059 20.3867544,3.07753546 C20.39974,3.08323731 20.4126244,3.08895478 20.4253886,3.09494377 C20.4482228,3.10547098 20.4707527,3.11714793 20.4927623,3.12963563 C20.5021036,3.13498791 20.5119468,3.14076412 20.5216956,3.14671179 C20.5461672,3.16172419 20.5692233,3.17724104 20.5915716,3.19366465 C20.5979201,3.19813181 20.604504,3.20307531 20.6110312,3.20810424 L20.6576515,3.24665898 L20.6576515,3.24665898 C20.6998173,3.28308441 20.7392792,3.32378072 20.7753558,3.36813469 C20.785392,3.38072563 20.7952927,3.39347353 20.8048865,3.40646192 L20.8524422,3.47708827 L20.8524422,3.47708827 L20.894453,3.552838 C20.9406981,3.64655184 20.9709607,3.73987589 20.9869443,3.83799504 C20.9955052,3.88952981 20.9998027,3.94070834 21.0001903,3.99164583 L21,20 C21,20.5522847 20.5522847,21 20,21 C19.4477153,21 19,20.5522847 19,20 L18.9993348,14.6031917 C16.3830809,13.1532103 14.9994231,11.2781805 14.9994231,9 C14.9994231,6.64728488 16.4750995,4.7245315 19.2600736,3.25585798 L19.552838,3.10554701 C19.5859961,3.08900174 19.6123906,3.07743858 19.63935,3.06701026 C19.6904926,3.04741689 19.7418915,3.03222266 19.7936297,3.02127661 C19.8464784,3.01022225 19.9010128,3.00329148 19.9567274,3.00091941 L20,3 L20.0619983,3.00175878 L20.079,3.003 L20,3 L20.1039721,3.00529436 C20.0900212,3.00382281 20.0760268,3.00264325 20.0619983,3.00175878 L20,3 C20.06023,3 20.1192164,3.00532478 20.176514,3.01552928 Z"/>
</svg>
