<svg xmlns="http://www.w3.org/2000/svg" width="24" height="24" viewBox="0 0 24 24">
  <path fill="#344055" fill-rule="evenodd" d="M8,10 L15.5855,10 L12.29275,6.70725 C11.90175,6.31625 11.90175,5.68425 12.29275,5.29325 C12.68375,4.90225 13.31575,4.90225 13.70675,5.29325 L18.70675,10.29325 C19.09775,10.68425 19.09775,11.31625 18.70675,11.70725 L13.70675,16.70725 C13.51175,16.90225 13.25575,17.00025 12.99975,17.00025 C12.74375,17.00025 12.48775,16.90225 12.29275,16.70725 C11.90175,16.31625 11.90175,15.68425 12.29275,15.29325 L15.586,12 L8,12 C6.8954305,12 6,12.8954305 6,14 L6,18 L4,18 L4,14 C4,11.790861 5.790861,10 8,10 Z"/>
</svg>
