<svg xmlns="http://www.w3.org/2000/svg" width="24" height="24" viewBox="0 0 24 24">
  <path fill="#344055" fill-rule="evenodd" d="M12.25,9 C12.66,9 13,9.34 13,9.75 L13,14.25 C13,14.66 12.66,15 12.25,15 C11.84,15 11.5,14.66 11.5,14.25 L11.5,9.75 C11.5,9.34 11.84,9 12.25,9 Z M10,9.75 C10,9.34 9.66,9 9.25,9 L6,9 C5.4,9 5,9.5 5,10 L5,14 C5,14.5 5.4,15 6,15 L9,15 C9.6,15 10,14.5 10,14 L10,12.75 C10,12.34 9.66,12 9.25,12 C8.84,12 8.5,12.34 8.5,12.75 L8.5,13.5 L6.5,13.5 L6.5,10.5 L9.25,10.5 C9.66,10.5 10,10.16 10,9.75 Z M18,2 C20.209139,2 22,3.790861 22,6 L22,18 C22,20.209139 20.209139,22 18,22 L6,22 C3.790861,22 2,20.209139 2,18 L2,6 C2,3.790861 3.790861,2 6,2 L18,2 Z M18,4 L6,4 C4.8954305,4 4,4.8954305 4,6 L4,18 C4,19.1045695 4.8954305,20 6,20 L18,20 C19.1045695,20 20,19.1045695 20,18 L20,6 C20,4.8954305 19.1045695,4 18,4 Z M18.25,9 C18.66,9 19,9.34 19,9.75 C19,10.16 18.66,10.5 18.25,10.5 L18.25,10.5 L16,10.5 L16,11.5 L17.25,11.5 C17.66,11.5 18,11.84 18,12.25 C18,12.66 17.66,13 17.25,13 L17.25,13 L16,13 L16,14.25 C16,14.66 15.66,15 15.25,15 C14.84,15 14.5,14.66 14.5,14.25 L14.5,14.25 L14.5,10 C14.5,9.45 14.95,9 15.5,9 L15.5,9 Z"/>
</svg>
