<svg xmlns="http://www.w3.org/2000/svg" width="24" height="24" viewBox="0 0 24 24">
  <path fill="#344055" fill-rule="evenodd" d="M20.658,6.98 C19.764,5.448 18.552,4.235 17.019,3.341 C15.487,2.446 13.814,2 12,2 C10.185,2 8.512,2.447 6.98,3.341 C5.448,4.235 4.235,5.448 3.341,6.98 C2.447,8.512 2,10.185 2,11.999 C2,14.178 2.636,16.138 3.907,17.878 C5.179,19.618 6.822,20.823 8.836,21.491 C9.07,21.535 9.244,21.504 9.356,21.4 C9.47,21.296 9.525,21.166 9.525,21.01 C9.525,20.983 9.523,20.75 9.519,20.307 C9.514,19.864 9.512,19.478 9.512,19.148 L9.213,19.2 C9.022,19.235 8.781,19.25 8.49,19.245 C8.2,19.241 7.898,19.211 7.586,19.154 C7.273,19.098 6.982,18.968 6.713,18.764 C6.444,18.56 6.253,18.293 6.14,17.963 L6.01,17.664 C5.924,17.464 5.787,17.242 5.599,17 C5.413,16.756 5.224,16.592 5.034,16.505 L4.942,16.439 C4.882,16.396 4.825,16.344 4.773,16.283 C4.721,16.223 4.682,16.162 4.656,16.101 C4.63,16.04 4.651,15.99 4.721,15.951 C4.791,15.912 4.916,15.893 5.098,15.893 L5.359,15.932 C5.533,15.966 5.748,16.07 6.004,16.244 C6.26,16.418 6.47,16.643 6.635,16.921 C6.835,17.277 7.075,17.548 7.357,17.735 C7.639,17.921 7.924,18.015 8.211,18.015 C8.497,18.015 8.744,17.993 8.953,17.95 C9.161,17.906 9.356,17.841 9.539,17.754 C9.617,17.172 9.829,16.726 10.177,16.413 C9.681,16.361 9.237,16.283 8.842,16.179 C8.447,16.074 8.039,15.905 7.618,15.67 C7.197,15.437 6.847,15.146 6.57,14.798 C6.292,14.451 6.064,13.995 5.887,13.431 C5.709,12.867 5.619,12.216 5.619,11.478 C5.619,10.428 5.963,9.534 6.648,8.796 C6.327,8.006 6.357,7.121 6.739,6.14 C6.991,6.062 7.364,6.12 7.859,6.315 C8.353,6.511 8.716,6.678 8.946,6.817 C9.177,6.956 9.361,7.073 9.5,7.168 C10.307,6.943 11.14,6.83 12,6.83 C12.859,6.83 13.692,6.943 14.5,7.168 L14.995,6.856 C15.333,6.647 15.732,6.457 16.192,6.283 C16.652,6.109 17.004,6.062 17.247,6.14 C17.637,7.121 17.673,8.006 17.351,8.796 C18.037,9.534 18.38,10.428 18.38,11.478 C18.38,12.216 18.291,12.869 18.113,13.438 C17.935,14.006 17.706,14.462 17.424,14.805 C17.141,15.148 16.79,15.437 16.369,15.671 C15.947,15.905 15.539,16.074 15.144,16.179 C14.75,16.283 14.304,16.361 13.81,16.413 C14.262,16.804 14.487,17.42 14.487,18.262 L14.487,21.009 C14.487,21.165 14.541,21.295 14.649,21.4 C14.759,21.503 14.929,21.534 15.164,21.491 C17.178,20.822 18.821,19.618 20.093,17.877 C21.364,16.137 22,14.178 22,11.999 C22,10.185 21.553,8.512 20.658,6.98"/>
</svg>
