<svg xmlns="http://www.w3.org/2000/svg" width="24" height="24" viewBox="0 0 24 24">
  <path fill="#344055" fill-rule="evenodd" d="M19.5,12.667 L19.5,15.167 L17.833,15.167 L17.833,12.667 L15.333,12.667 L15.333,11 L17.833,11 L17.833,8.5 L19.5,8.5 L19.5,11 L22,11 L22,12.667 L19.5,12.667 Z M7.833,11 L7.833,13 L11.142,13 C11.009,13.857 10.142,15.517 7.833,15.517 C5.842,15.517 4.217,13.868 4.217,11.833 C4.217,9.8 5.842,8.15 7.833,8.15 C8.967,8.15 9.725,8.633 10.158,9.05 L11.741,7.525 C10.725,6.575 9.408,6 7.833,6 C4.608,6 2,8.608 2,11.833 C2,15.059 4.608,17.667 7.833,17.667 C11.2,17.667 13.435,15.3 13.435,11.967 C13.435,11.583 13.392,11.292 13.342,11 L7.833,11 Z"/>
</svg>
