<svg xmlns="http://www.w3.org/2000/svg" width="24" height="24" viewBox="0 0 24 24">
  <path fill="#344055" fill-rule="evenodd" d="M12,22 C6.4771525,22 2,17.5228475 2,12 C2,6.4771525 6.4771525,2 12,2 C17.5228475,2 22,6.4771525 22,12 C22,17.5228475 17.5228475,22 12,22 Z M10,11 C11.1045695,11 12,10.1045695 12,9 C12,7.8954305 11.1045695,7 10,7 C8.8954305,7 8,7.8954305 8,9 C8,10.1045695 8.8954305,11 10,11 Z M15,11 C15.5522847,11 16,10.5522847 16,10 C16,9.44771525 15.5522847,9 15,9 C14.4477153,9 14,9.44771525 14,10 C14,10.5522847 14.4477153,11 15,11 Z M7.89442719,16.4472136 C8.39730452,15.4414589 9.05949292,15 10,15 C10.9405071,15 11.6026955,15.4414589 12.1055728,16.4472136 C12.3525621,16.9411921 12.9532351,17.1414164 13.4472136,16.8944272 C13.9411921,16.6474379 14.1414164,16.0467649 13.8944272,15.5527864 C13.0639712,13.8918744 11.7261596,13 10,13 C8.27384041,13 6.93602881,13.8918744 6.10557281,15.5527864 C5.85858356,16.0467649 6.05880791,16.6474379 6.5527864,16.8944272 C7.0467649,17.1414164 7.64743794,16.9411921 7.89442719,16.4472136 Z M14.494854,13.0254406 C15.2531958,13.8824095 15.7702437,14.9578467 15.9395939,16.145348 C15.9968172,16.239687 16.0520958,16.3402596 16.1055728,16.4472136 C16.3525621,16.9411921 16.9532351,17.1414164 17.4472136,16.8944272 C17.9411921,16.6474379 18.1414164,16.0467649 17.8944272,15.5527864 C17.1451316,14.0541953 15.9828024,13.1816709 14.494854,13.0254406 L14.494854,13.0254406 Z"/>
</svg>
