<svg xmlns="http://www.w3.org/2000/svg" width="24" height="24" viewBox="0 0 24 24">
  <path fill="#344055" fill-rule="evenodd" d="M4.58578644,15.1715729 L5.99967966,16.585 L7.41421356,15.1715729 C7.77469752,14.8110889 8.34192858,14.7833594 8.73421979,15.0883843 L8.82842712,15.1715729 C9.21895142,15.5620972 9.21895142,16.1952621 8.82842712,16.5857864 L8.82842712,16.5857864 L7.41367966,17.999 L8.82842712,19.4142136 C9.21895142,19.8047379 9.21895142,20.4379028 8.82842712,20.8284271 C8.43790283,21.2189514 7.80473785,21.2189514 7.41421356,20.8284271 L5.99967966,19.414 L4.58578644,20.8284271 C4.22530248,21.1889111 3.65807142,21.2166406 3.26578021,20.9116157 L3.17157288,20.8284271 C2.78104858,20.4379028 2.78104858,19.8047379 3.17157288,19.4142136 L3.17157288,19.4142136 L4.58567966,18 L3.17157288,16.5857864 C2.78104858,16.1952621 2.78104858,15.5620972 3.17157288,15.1715729 C3.56209717,14.7810486 4.19526215,14.7810486 4.58578644,15.1715729 Z M9,14 L9,12 C12.8659932,12 16,15.1340068 16,19 C16,19.5522847 15.5522847,20 15,20 C14.4477153,20 14,19.5522847 14,19 C14,16.2385763 11.7614237,14 9,14 Z M9,4 C10.654,4 12,5.346 12,7 C12,8.654 10.654,10 9,10 C7.346,10 6,8.654 6,7 C6,5.346 7.346,4 9,4 Z M16,8 C17.103,8 18,8.897 18,10 C18,11.103 17.103,12 16,12 C14.897,12 14,11.103 14,10 C14,8.897 14.897,8 16,8 Z M21,19 C21,19.5522847 20.5522847,20 20,20 C19.4477153,20 19,19.5522847 19,19 C19,17.950852 18.4614475,17.0274897 17.6457134,16.4912839 C17.3890443,15.6051895 16.9998444,14.7754004 16.5009825,14.0247853 C19.0271729,14.2761025 21,16.407662 21,19 L21,19 Z"/>
</svg>
