<svg xmlns="http://www.w3.org/2000/svg" width="24" height="24" viewBox="0 0 24 24">
  <path fill="#344055" fill-rule="evenodd" d="M9,4 C10.654,4 12,5.346 12,7 C12,8.654 10.654,10 9,10 C7.346,10 6,8.654 6,7 C6,5.346 7.346,4 9,4 Z M16,8 C17.103,8 18,8.897 18,10 C18,11.103 17.103,12 16,12 C14.897,12 14,11.103 14,10 C14,8.897 14.897,8 16,8 Z M14,19 C14,16.2385763 11.7614237,14 9,14 C6.23857625,14 4,16.2385763 4,19 C4,19.5522847 3.55228475,20 3,20 C2.44771525,20 2,19.5522847 2,19 C2,15.1340068 5.13400675,12 9,12 C12.8659932,12 16,15.1340068 16,19 C16,19.5522847 15.5522847,20 15,20 C14.4477153,20 14,19.5522847 14,19 L14,19 Z M21,19 C21,19.5522847 20.5522847,20 20,20 C19.4477153,20 19,19.5522847 19,19 C19,17.950852 18.4614475,17.0274897 17.6457134,16.4912839 C17.3890443,15.6051895 16.9998444,14.7754004 16.5009825,14.0247853 C19.0271729,14.2761025 21,16.407662 21,19 L21,19 Z"/>
</svg>
