<svg xmlns="http://www.w3.org/2000/svg" width="24" height="24" viewBox="0 0 24 24">
  <path fill="#344055" fill-rule="evenodd" d="M19,7 C20.1045695,7 21,7.8954305 21,9 L21,13.763932 C21,14.5214761 20.5719952,15.2140024 19.8944272,15.5527864 L17.8445825,16.5777088 C17.2891607,16.8554196 16.6767085,17 16.0557281,17 L7.94427191,17 C7.32329153,17 6.71083927,16.8554196 6.15541753,16.5777088 L4.10557281,15.5527864 C3.42800475,15.2140024 3,14.5214761 3,13.763932 L3,9 C3,7.8954305 3.8954305,7 5,7 L19,7 Z M19,9 L5,9 L5,13.763932 L7.04984472,14.7888544 C7.27201341,14.8999387 7.51243188,14.9684213 7.75868349,14.991371 L7.94427191,15 L16.0557281,15 C16.3041202,15 16.5497834,14.9537343 16.7803009,14.864134 L16.9501553,14.7888544 L19,13.763932 L19,9 Z M16,11 C16.5522847,11 17,11.4477153 17,12 C17,12.5522847 16.5522847,13 16,13 L8,13 C7.44771525,13 7,12.5522847 7,12 C7,11.4477153 7.44771525,11 8,11 L16,11 Z"/>
</svg>
