<svg xmlns="http://www.w3.org/2000/svg" width="24" height="24" viewBox="0 0 24 24">
  <path fill="#344055" fill-rule="evenodd" d="M9.71985,16.693 L17.54585,8.867 C18.51485,9.631 19.35285,10.653 19.92285,12 C18.36385,15.678 14.83885,17 11.99985,17 C11.26985,17 10.49485,16.893 9.71985,16.693 Z M21.93685,11.648 C21.30985,9.978 20.26885,8.561 18.94985,7.464 L20.70685,5.707 C21.09785,5.316 21.09785,4.684 20.70685,4.293 C20.31585,3.902 19.68385,3.902 19.29285,4.293 L4.29285,19.293 C3.90185,19.684 3.90185,20.316 4.29285,20.707 C4.48785,20.902 4.74385,21 4.99985,21 C5.25585,21 5.51185,20.902 5.70685,20.707 L8.11285,18.301 C9.31985,18.749 10.62885,19 11.99985,19 C16.52085,19 20.42185,16.391 21.93685,12.352 C22.02085,12.125 22.02085,11.875 21.93685,11.648 M5.04575,16.54 L6.45075,15.135 C5.48375,14.369 4.64775,13.346 4.07675,12 C5.63575,8.322 9.16075,7 11.99975,7 C12.73475,7 13.51575,7.094 14.29675,7.289 L15.89475,5.691 C14.68575,5.244 13.37275,5 11.99975,5 C7.47875,5 3.57775,7.609 2.06375,11.648 C1.97875,11.875 1.97875,12.125 2.06375,12.352 C2.68975,14.021 3.72875,15.442 5.04575,16.54"/>
</svg>
