<svg xmlns="http://www.w3.org/2000/svg" width="24" height="24" viewBox="0 0 24 24">
  <path fill="#344055" fill-rule="evenodd" d="M19.3999965,11.7999974 L12.0000671,6.25 L4.59999652,11.8000026 C4.15816728,12.1313715 3.53136632,12.0418258 3.19999739,11.5999965 C2.86862846,11.1581673 2.95817424,10.5313663 3.40000348,10.1999974 L11.400076,4.19999739 C11.7556327,3.93333227 12.2445216,3.9333344 12.600076,4.20000261 L20.6000035,10.2000026 C21.0418298,10.5313754 21.1313702,11.1581771 20.7999974,11.6000035 C20.4686246,12.0418298 19.8418229,12.1313702 19.3999965,11.7999974 Z M6,13 L12,8 L18,13 L18,16 C18,18.209139 16.209139,20 14,20 L10,20 C7.790861,20 6,18.209139 6,16 L6,13 Z M8,13.9367499 L8,16 C8,17.1045695 8.8954305,18 10,18 L14,18 C15.1045695,18 16,17.1045695 16,16 L16,13.9367499 L12,10.6034166 L8,13.9367499 Z"/>
</svg>
