<svg xmlns="http://www.w3.org/2000/svg" width="24" height="24" viewBox="0 0 24 24">
  <path fill="#344055" fill-rule="evenodd" d="M18,4 C19.1045695,4 20,4.8954305 20,6 L20,6 L20,18 C20,18.0252723 19.9995313,18.0504352 19.998602,18.0754803 L15.4804077,13.3906667 C15.2296949,13.1306667 14.900554,13 14.5714131,13 C14.2422722,13 13.9131314,13.1306667 13.6624186,13.3906667 L13.6624186,13.3906667 L10.7142934,16.448 L9.05187486,14.724 C8.80116208,14.464 8.4720212,14.3333333 8.14288032,14.3333333 C7.81373944,14.3333333 7.48459856,14.464 7.23388578,14.724 L7.23388578,14.724 L4.002,18.074 L4,18 L4,6 C4,4.8954305 4.8954305,4 6,4 L6,4 Z M9,7 C7.8954305,7 7,7.8954305 7,9 C7,10.1045695 7.8954305,11 9,11 C10.1045695,11 11,10.1045695 11,9 C11,7.8954305 10.1045695,7 9,7 Z M6,2 L18,2 C20.209139,2 22,3.790861 22,6 L22,18 C22,20.209139 20.209139,22 18,22 L6,22 C3.790861,22 2,20.209139 2,18 L2,6 C2,3.790861 3.790861,2 6,2 Z"/>
</svg>
