<svg xmlns="http://www.w3.org/2000/svg" width="24" height="24" viewBox="0 0 24 24">
  <path fill="#344055" fill-rule="evenodd" d="M18.924,18.383 C18.77,18.757 18.404,19 18,19 L6,19 C5.596,19 5.231,18.757 5.076,18.383 C4.921,18.009 5.007,17.579 5.293,17.293 L8.293,14.293 C8.488,14.098 8.744,14 9,14 C9.256,14 9.512,14.098 9.707,14.293 L11,15.586 L13.293,13.293 C13.488,13.098 13.744,13 14,13 C14.256,13 14.512,13.098 14.707,13.293 L18.707,17.293 C18.993,17.579 19.079,18.009 18.924,18.383 M9,11 C10.1045695,11 11,10.1045695 11,9 C11,7.8954305 10.1045695,7 9,7 C7.8954305,7 7,7.8954305 7,9 C7,10.1045695 7.8954305,11 9,11 Z M6,2 L18,2 C20.209139,2 22,3.790861 22,6 L22,18 C22,20.209139 20.209139,22 18,22 L6,22 C3.790861,22 2,20.209139 2,18 L2,6 C2,3.790861 3.790861,2 6,2 Z"/>
</svg>
