<?xml version="1.0" encoding="UTF-8"?>
<svg width="24px" height="24px" viewBox="0 0 24 24" version="1.1" xmlns="http://www.w3.org/2000/svg" xmlns:xlink="http://www.w3.org/1999/xlink">
    <title>Import</title>
    <g id="Import" stroke="none" stroke-width="1" fill="none" fill-rule="evenodd">
        <path d="M20,17 C20.5128358,17 20.9355072,17.3860402 20.9932723,17.8833789 L21,18 L21,21 C21,21.5128358 20.6139598,21.9355072 20.1166211,21.9932723 L20,22 L4,22 C3.48716416,22 3.06449284,21.6139598 3.00672773,21.1166211 L3,21 L3,18 C3,17.4477153 3.44771525,17 4,17 C4.51283584,17 4.93550716,17.3860402 4.99327227,17.8833789 L5,18 L5,20 L19,20 L19,18 C19,17.4871642 19.3860402,17.0644928 19.8833789,17.0067277 L20,17 Z M11.9909706,4 C12.5429706,4 12.9909706,4.447 12.9909706,5 L12.9909706,5 L12.9909706,14.586 L15.2839706,12.293 C15.6749706,11.902 16.3069706,11.902 16.6979706,12.293 C17.0889706,12.684 17.0889706,13.316 16.6979706,13.707 L16.6979706,13.707 L12.6979706,17.706 C12.6059706,17.799 12.4959706,17.872 12.3729706,17.923 C12.2509706,17.974 12.1209706,18 11.9909706,18 C11.8609706,18 11.7309706,17.974 11.6089706,17.923 C11.4859706,17.872 11.3759706,17.799 11.2829706,17.706 L11.2829706,17.706 L7.28397061,13.707 C6.89297061,13.316 6.89297061,12.684 7.28397061,12.293 C7.67497061,11.902 8.30697061,11.902 8.69797061,12.293 L8.69797061,12.293 L10.9909706,14.586 L10.9909706,5 C10.9909706,4.447 11.4389706,4 11.9909706,4 Z" id="Combined-Shape" fill="#344055"></path>
    </g>
</svg>