<svg xmlns="http://www.w3.org/2000/svg" width="24" height="24" viewBox="0 0 24 24">
  <path fill="#344055" fill-rule="evenodd" d="M19,13.4632276 C18.4109687,13.8045464 17.7271059,14 16.998,14 L16.5830028,14 C15.8104989,15.7648984 14.0477297,17 12,17 C9.95227031,17 8.18950113,15.7648984 7.41699717,14 L7.002,14 C6.27289408,14 5.5890313,13.8045464 5,13.4632276 L5,17 C5,18.1045695 5.8954305,19 7,19 L17,19 C18.1045695,19 19,18.1045695 19,17 L19,13.4632276 L19,13.4632276 Z M7,3 L17,3 C19.209139,3 21,4.790861 21,7 L21,17 C21,19.209139 19.209139,21 17,21 L7,21 C4.790861,21 3,19.209139 3,17 L3,7 C3,4.790861 4.790861,3 7,3 Z M19,9.998 L19,7.002 C19,5.898 18.102,5 16.998,5 L7.002,5 C5.898,5 5,5.898 5,7.002 L5,9.998 C5,11.102 5.898,12 7.002,12 L9,12 C9,13.654 10.346,15 12,15 C13.654,15 15,13.654 15,12 L16.998,12 C18.102,12 19,11.102 19,9.998 Z"/>
</svg>
