<svg xmlns="http://www.w3.org/2000/svg" width="24" height="24" viewBox="0 0 24 24">
  <path fill="#344055" fill-rule="evenodd" d="M15,7.57407825 L19.281185,3.29289322 C19.6717093,2.90236893 20.3048743,2.90236893 20.6953986,3.29289322 C21.0859229,3.68341751 21.0859229,4.31658249 20.6953986,4.70710678 L16.4025054,9 L18,9 C18.5522847,9 19,9.44771525 19,10 C19,10.5522847 18.5522847,11 18,11 L14,11 C13.4477153,11 13,10.5522847 13,10 L13,6 C13,5.44771525 13.4477153,5 14,5 C14.5522847,5 15,5.44771525 15,6 L15,7.57407825 Z M7.4998,3.0002 C8.0498,3.0002 8.4998,3.4502 8.4998,4.0002 C8.4998,5.2502 8.6998,6.4502 9.0698,7.5702 C9.1798,7.9202 9.0988,8.3102 8.8198,8.5902 L6.6198,10.7902 C8.0588,13.6202 10.3798,15.9302 13.2098,17.3802 L15.4098,15.1802 C15.6018,14.9892 15.8578,14.8882 16.1158,14.8882 C16.2218,14.8882 16.3278,14.9052 16.4298,14.9402 C17.5498,15.3102 18.7598,15.5102 19.9998,15.5102 C20.5498,15.5102 20.9998,15.9602 20.9998,16.5102 L20.9998,20.0002 C20.9998,20.5502 20.5498,21.0002 19.9998,21.0002 C10.6098,21.0002 2.9998,13.3902 2.9998,4.0002 C2.9998,3.4502 3.4498,3.0002 3.9998,3.0002 L7.4998,3.0002 Z M16.3978,17.0212 L15.2048,18.2142 C16.4088,18.6212 17.6818,18.8802 18.9998,18.9672 L18.9998,17.4732 C18.1168,17.4082 17.2458,17.2572 16.3978,17.0212 Z M6.5368,5.0002 L5.0328,5.0002 C5.1208,6.3182 5.3788,7.5912 5.7858,8.7952 L6.9868,7.5942 C6.7528,6.7562 6.6018,5.8862 6.5368,5.0002 Z"/>
</svg>
