<svg xmlns="http://www.w3.org/2000/svg" width="24" height="24" viewBox="0 0 24 24">
  <path fill="#344055" fill-rule="evenodd" d="M6.707,11.293 C7.098,11.684 7.098,12.316 6.707,12.707 L4.707,14.707 C4.516,14.898 4.26,15 4,15 C3.871,15 3.741,14.976 3.617,14.924 C3.243,14.77 3,14.404 3,14 L3,10 C3,9.596 3.243,9.23 3.617,9.076 C3.991,8.92 4.421,9.007 4.707,9.293 L6.707,11.293 Z M20,7 L4,7 C3.447,7 3,6.553 3,6 C3,5.447 3.447,5 4,5 L20,5 C20.553,5 21,5.447 21,6 C21,6.553 20.553,7 20,7 Z M20,19 L4,19 C3.447,19 3,18.553 3,18 C3,17.447 3.447,17 4,17 L20,17 C20.553,17 21,17.447 21,18 C21,18.553 20.553,19 20,19 Z M20,13 L12,13 C11.447,13 11,12.553 11,12 C11,11.447 11.447,11 12,11 L20,11 C20.553,11 21,11.447 21,12 C21,12.553 20.553,13 20,13 Z"/>
</svg>
