<svg xmlns="http://www.w3.org/2000/svg" width="24" height="24" viewBox="0 0 24 24">
  <path fill="#344055" fill-rule="evenodd" d="M17,3 C17.5522847,3 18,3.44771525 18,4 C18,4.55228475 17.5522847,5 17,5 L16,5 L16,19 L17,19 C17.5522847,19 18,19.4477153 18,20 C18,20.5522847 17.5522847,21 17,21 L13,21 C12.4477153,21 12,20.5522847 12,20 C12,19.4477153 12.4477153,19 13,19 L14,19 L14,5 L13,5 C12.4477153,5 12,4.55228475 12,4 C12,3.44771525 12.4477153,3 13,3 L17,3 Z M12,7 L12,9 L7,9 C5.34314575,9 4,10.3431458 4,12 C4,13.6568542 5.34314575,15 7,15 L12,15 L12,17 L7,17 C4.23857625,17 2,14.7614237 2,12 C2,9.23857625 4.23857625,7 7,7 L12,7 Z M18,7.10001812 C20.2822403,7.56328845 22,9.58104209 22,12 C22,14.4189579 20.2822403,16.4367116 18,16.8999819 L18,14.8292943 C19.1651924,14.4174579 20,13.3062188 20,12 C20,10.6937812 19.1651924,9.58254212 18,9.17070571 L18,7.10001812 Z"/>
</svg>
