<svg xmlns="http://www.w3.org/2000/svg" width="24" height="24" viewBox="0 0 24 24">
  <path fill="#344055" fill-rule="evenodd" d="M17,8 C17.5522847,8 18,8.44771525 18,9 C18,9.03679913 17.9980123,9.073134 17.9941384,9.10890311 C19.7026001,9.4903454 21,10.8336729 21,12.5 C21,13.0522847 20.5522847,13.5 20,13.5 C19.4477153,13.5 19,13.0522847 19,12.5 C19,11.7160103 18.1407877,11 17,11 C15.8592123,11 15,11.7160103 15,12.5 C15,13.2839897 15.8592123,14 17,14 C19.1729209,14 21,15.522566 21,17.5 C21,19.1663271 19.7026001,20.5096546 17.9941384,20.8910969 C17.9980123,20.926866 18,20.9632009 18,21 C18,21.5522847 17.5522847,22 17,22 C16.4477153,22 16,21.5522847 16,21 C16,20.9632009 16.0019877,20.926866 16.0058616,20.8910969 C14.2973999,20.5096546 13,19.1663271 13,17.5 C13,16.9477153 13.4477153,16.5 14,16.5 C14.5522847,16.5 15,16.9477153 15,17.5 C15,18.2839897 15.8592123,19 17,19 C18.1407877,19 19,18.2839897 19,17.5 C19,16.7160103 18.1407877,16 17,16 C14.8270792,16 13,14.477434 13,12.5 C13,10.8336729 14.2973999,9.4903454 16.0058616,9.10890311 C16.0019877,9.073134 16,9.03679913 16,9 C16,8.44771525 16.4477153,8 17,8 Z M10,12 C10.5522847,12 11,12.4477153 11,13 C11,13.5522847 10.5522847,14 10,14 L4,14 C3.44771525,14 3,13.5522847 3,13 C3,12.4477153 3.44771525,12 4,12 L10,12 Z M10,8 C10.5522847,8 11,8.44771525 11,9 C11,9.55228475 10.5522847,10 10,10 L4,10 C3.44771525,10 3,9.55228475 3,9 C3,8.44771525 3.44771525,8 4,8 L10,8 Z M14,4 C14.5522847,4 15,4.44771525 15,5 C15,5.55228475 14.5522847,6 14,6 L4,6 C3.44771525,6 3,5.55228475 3,5 C3,4.44771525 3.44771525,4 4,4 L14,4 Z"/>
</svg>
