<svg xmlns="http://www.w3.org/2000/svg" width="24" height="24" viewBox="0 0 24 24">
  <path fill="#344055" fill-rule="evenodd" d="M4.06189375,13 C4.40436852,15.7464283 6.13898913,18.0605201 8.53730758,19.2138273 C7.70258476,17.6107265 7.14550397,15.4337025 7.02468762,13 L4.06189375,13 L4.06189375,13 Z M4.06189375,11 L7.02468762,11 C7.14550397,8.56629752 7.70258476,6.38927348 8.53730758,4.78617271 C6.13898913,5.93947993 4.40436852,8.2535717 4.06189375,11 L4.06189375,11 Z M19.9381062,11 C19.5956315,8.2535717 17.8610109,5.93947993 15.4626924,4.78617271 C16.2974152,6.38927348 16.854496,8.56629752 16.9753124,11 L19.9381062,11 L19.9381062,11 Z M19.9381062,13 L16.9753124,13 C16.854496,15.4337025 16.2974152,17.6107265 15.4626924,19.2138273 C17.8610109,18.0605201 19.5956315,15.7464283 19.9381062,13 L19.9381062,13 Z M9.02751198,13 C9.13838022,15.0038045 9.57904842,16.8280965 10.2533205,18.1766406 C10.8812109,19.4324214 11.5521641,20 12,20 C12.4478359,20 13.1187891,19.4324214 13.7466795,18.1766406 C14.4209516,16.8280965 14.8616198,15.0038045 14.972488,13 L9.02751198,13 L9.02751198,13 Z M9.02751198,11 L14.972488,11 C14.8616198,8.99619554 14.4209516,7.17190349 13.7466795,5.82335938 C13.1187891,4.56757856 12.4478359,4 12,4 C11.5521641,4 10.8812109,4.56757856 10.2533205,5.82335938 C9.57904842,7.17190349 9.13838022,8.99619554 9.02751198,11 L9.02751198,11 Z M12,22 C6.4771525,22 2,17.5228475 2,12 C2,6.4771525 6.4771525,2 12,2 C17.5228475,2 22,6.4771525 22,12 C22,17.5228475 17.5228475,22 12,22 Z"/>
</svg>
