<svg xmlns="http://www.w3.org/2000/svg" width="24" height="24" viewBox="0 0 24 24">
  <path fill="#344055" fill-rule="evenodd" d="M17.00025,18 C16.44825,18 16.00025,17.553 16.00025,17 L16.00025,7 C16.00025,6.448 16.44825,6 17.00025,6 C17.55225,6 18.00025,6.448 18.00025,7 L18.00025,17 C18.00025,17.553 17.55225,18 17.00025,18 M8.00025,18 C7.74425,18 7.48825,17.902 7.29325,17.707 C6.90225,17.316 6.90225,16.684 7.29325,16.293 L11.58625,12 L7.29325,7.707 C6.90225,7.316 6.90225,6.684 7.29325,6.293 C7.68425,5.902 8.31625,5.902 8.70725,6.293 L13.70725,11.293 C14.09825,11.684 14.09825,12.316 13.70725,12.707 L8.70725,17.707 C8.51225,17.902 8.25625,18 8.00025,18"/>
</svg>
