<svg xmlns="http://www.w3.org/2000/svg" width="24" height="24" viewBox="0 0 24 24">
  <path fill="#344055" fill-rule="evenodd" d="M19.4,14.195 C19.8418278,13.8636292 20.4686292,13.9531722 20.8,14.395 C21.1313708,14.8368278 21.0418278,15.4636292 20.6,15.795 L20.6,15.795 L13.7994005,20.8954496 C12.7331602,21.6951298 11.2671757,21.6954815 10.200552,20.8963128 L10.200552,20.8963128 L3.40038382,15.8012817 C2.95839712,15.4701229 2.86855341,14.8433645 3.19971228,14.4013778 C3.53087115,13.9593911 4.15762947,13.8695474 4.59961618,14.2007063 L4.59961618,14.2007063 L11.3997843,19.2957374 C11.7553256,19.5621269 12.2439871,19.5620097 12.5994005,19.2954496 L12.5994005,19.2954496 Z M13.7994005,3.60494115 L20.6,8.70539078 C20.9331288,8.95523737 21.0659893,9.37303147 20.9691655,9.75285996 C21.055272,10.0900643 20.9598723,10.4577204 20.7036019,10.7107643 L20.6,10.8 L13.7994005,15.9004496 C12.7892781,16.6580414 11.4203826,16.6982302 10.3721685,16.0208531 L10.200552,15.9013128 L3.40038382,10.8062817 C3.06508356,10.5550578 2.93244348,10.1337147 3.032527,9.75197795 C2.93264179,9.37104657 3.06533407,8.95014533 3.40038382,8.69910905 L10.200552,3.60407798 C11.2671757,2.80490932 12.7331602,2.80526093 13.7994005,3.60494115 Z M11.3997843,5.20465342 L5.32894078,9.75194115 L11.3997843,14.3007374 C11.7197714,14.540488 12.147586,14.5643681 12.4890454,14.3724243 L12.5994005,14.3004496 L18.6629408,9.75294115 L12.5994005,5.20494115 C12.2439871,4.93838108 11.7553256,4.93826387 11.3997843,5.20465342 Z"/>
</svg>
