<svg xmlns="http://www.w3.org/2000/svg" width="24" height="24" viewBox="0 0 24 24">
  <path fill="#344055" fill-rule="evenodd" d="M21.0006337,19.00025 L11.0006337,19.00025 C10.4476337,19.00025 10.0006337,18.55325 10.0006337,18.00025 C10.0006337,17.44725 10.4476337,17.00025 11.0006337,17.00025 L21.0006337,17.00025 C21.5536337,17.00025 22.0006337,17.44725 22.0006337,18.00025 C22.0006337,18.55325 21.5536337,19.00025 21.0006337,19.00025 M7.00063368,17.00025 L6.00063368,17.00025 L6.00063368,7.00025 L7.00063368,7.00025 C7.40463368,7.00025 7.77063368,6.75725 7.92463368,6.38325 C7.97663368,6.25925 8.00063368,6.12925 8.00063368,6.00025 C8.00063368,5.74025 7.89863368,5.48425 7.70763368,5.29325 L5.70763368,3.29325 C5.31663368,2.90225 4.68463368,2.90225 4.29363368,3.29325 L2.29363368,5.29325 C2.00763368,5.57925 1.92063368,6.00925 2.07663368,6.38325 C2.23063368,6.75725 2.59663368,7.00025 3.00063368,7.00025 L4.00063368,7.00025 L4.00063368,17.00025 L3.00063368,17.00025 C2.59663368,17.00025 2.23063368,17.24325 2.07663368,17.61725 C2.02463368,17.74125 2.00063368,17.87125 2.00063368,18.00025 C2.00063368,18.26025 2.10263368,18.51625 2.29363368,18.70725 L4.29363368,20.70725 C4.68463368,21.09825 5.31663368,21.09825 5.70763368,20.70725 L7.70763368,18.70725 C7.99363368,18.42125 8.08063368,17.99125 7.92463368,17.61725 C7.77063368,17.24325 7.40463368,17.00025 7.00063368,17.00025 M21.0006337,7.00025 L11.0006337,7.00025 C10.4476337,7.00025 10.0006337,6.55325 10.0006337,6.00025 C10.0006337,5.44725 10.4476337,5.00025 11.0006337,5.00025 L21.0006337,5.00025 C21.5536337,5.00025 22.0006337,5.44725 22.0006337,6.00025 C22.0006337,6.55325 21.5536337,7.00025 21.0006337,7.00025 M21.0006337,13.00025 L11.0006337,13.00025 C10.4476337,13.00025 10.0006337,12.55325 10.0006337,12.00025 C10.0006337,11.44725 10.4476337,11.00025 11.0006337,11.00025 L21.0006337,11.00025 C21.5536337,11.00025 22.0006337,11.44725 22.0006337,12.00025 C22.0006337,12.55325 21.5536337,13.00025 21.0006337,13.00025"/>
</svg>
