<svg xmlns="http://www.w3.org/2000/svg" width="24" height="24" viewBox="0 0 24 24">
  <path fill="#344055" fill-rule="evenodd" d="M6,2 L18,2 C20.209139,2 22,3.790861 22,6 L22,18 C22,20.209139 20.209139,22 18,22 L6,22 C3.790861,22 2,20.209139 2,18 L2,6 C2,3.790861 3.790861,2 6,2 Z M19.0425,19.0426389 L16.0781944,19.0426389 L16.0781944,14.4011111 C16.0781944,13.29375 16.0577778,11.8701389 14.5366667,11.8701389 C12.9929167,11.8701389 12.7565278,13.0759722 12.7565278,14.3209722 L12.7565278,19.0426389 L9.79222222,19.0426389 L9.79222222,9.49805556 L12.6379167,9.49805556 L12.6379167,10.8020833 L12.6773611,10.8020833 C13.0731944,10.0518056 14.0409722,9.26055556 15.4840278,9.26055556 C18.4879167,9.26055556 19.0425,11.2373611 19.0425,13.8072222 L19.0425,19.0426389 Z M6.44902778,8.19333333 C5.49847222,8.19333333 4.72888889,7.42236111 4.72888889,6.47291667 C4.72888889,5.52416667 5.49847222,4.75347222 6.44902778,4.75347222 C7.39763889,4.75347222 8.16819444,5.52416667 8.16819444,6.47291667 C8.16819444,7.42236111 7.39763889,8.19333333 6.44902778,8.19333333 Z M4.96527778,19.0426389 L7.93166667,19.0426389 L7.93166667,9.49805556 L4.96527778,9.49805556 L4.96527778,19.0426389 Z"/>
</svg>
