<svg xmlns="http://www.w3.org/2000/svg" width="24" height="24" viewBox="0 0 24 24">
  <path fill="#344055" fill-rule="evenodd" d="M20,19.9726756 L16.6864484,19.9726756 L16.6864484,14.7842962 C16.6864484,13.546469 16.6636263,11.9551321 14.9633022,11.9551321 C13.237672,11.9551321 12.9734324,13.3030332 12.9734324,14.6947156 L12.9734324,19.9726756 L9.65988084,19.9726756 L9.65988084,9.30357663 L12.8408469,9.30357663 L12.8408469,10.7612412 L12.8849386,10.7612412 C13.3274079,9.92256787 14.4092065,9.03809505 16.0222787,9.03809505 C19.3800772,9.03809505 20,11.2478022 20,14.120437 L20,19.9726756 Z M5.92280075,7.84513575 C4.86025345,7.84513575 4,6.98332978 4,5.92202449 C4,4.86149547 4.86025345,4 5.92280075,4 C6.98317452,4 7.84451474,4.86149547 7.84451474,5.92202449 C7.84451474,6.98332978 6.98317452,7.84513575 5.92280075,7.84513575 Z M4.26423955,19.9726756 L7.58011993,19.9726756 L7.58011993,9.30357663 L4.26423955,9.30357663 L4.26423955,19.9726756 Z"/>
</svg>
