<svg xmlns="http://www.w3.org/2000/svg" width="24" height="24" viewBox="0 0 24 24">
  <path fill="#344055" fill-rule="evenodd" d="M5,5 C5.55333333,5 6,5.44666667 6,6 C6,6.55333333 5.55333333,7 5,7 C4.44666667,7 4,6.55333333 4,6 C4,5.44666667 4.44666667,5 5,5 Z M5,11 C5.55333333,11 6,11.4466667 6,12 C6,12.5533333 5.55333333,13 5,13 C4.44666667,13 4,12.5533333 4,12 C4,11.4466667 4.44666667,11 5,11 Z M5,17 C5.55333333,17 6,17.4466667 6,18 C6,18.5533333 5.55333333,19 5,19 C4.44666667,19 4,18.5533333 4,18 C4,17.4466667 4.44666667,17 5,17 Z M19.0769231,7 L8.92307692,7 C8.41261538,7 8,6.553 8,6 C8,5.447 8.41261538,5 8.92307692,5 L19.0769231,5 C19.5873846,5 20,5.447 20,6 C20,6.553 19.5873846,7 19.0769231,7 Z M19.0769231,13 L8.92307692,13 C8.41261538,13 8,12.553 8,12 C8,11.447 8.41261538,11 8.92307692,11 L19.0769231,11 C19.5873846,11 20,11.447 20,12 C20,12.553 19.5873846,13 19.0769231,13 Z M19.0769231,19 L8.92307692,19 C8.41261538,19 8,18.553 8,18 C8,17.447 8.41261538,17 8.92307692,17 L19.0769231,17 C19.5873846,17 20,17.447 20,18 C20,18.553 19.5873846,19 19.0769231,19 Z"/>
</svg>
