<svg xmlns="http://www.w3.org/2000/svg" width="24" height="24" viewBox="0 0 24 24">
  <path fill="#344055" fill-rule="evenodd" d="M5.50015928,16 C5.77615928,16 6.00015928,16.224 6.00015928,16.5 L6.00015928,19.5 C6.00015928,19.776 5.77615928,20 5.50015928,20 L3.50015928,20 C3.22515928,20 3.00015928,19.775 3.00015928,19.5 C3.00015928,19.225 3.22515928,19 3.50015928,19 L5.00015928,19 L5.00015928,18.5 L4.50015928,18.5 C4.22515928,18.5 4.00015928,18.275 4.00015928,18 C4.00015928,17.725 4.22515928,17.5 4.50015928,17.5 L5.00015928,17.5 L5.00015928,17 L3.50015928,17 C3.22515928,17 3.00015928,16.775 3.00015928,16.5 C3.00015928,16.225 3.22515928,16 3.50015928,16 L5.50015928,16 Z M20.0770824,7 L9.9232362,7 C9.41277467,7 9.00015928,6.553 9.00015928,6 C9.00015928,5.447 9.41277467,5 9.9232362,5 L20.0770824,5 C20.5875439,5 21.0001593,5.447 21.0001593,6 C21.0001593,6.553 20.5875439,7 20.0770824,7 Z M20.0770824,13 L9.9232362,13 C9.41277467,13 9.00015928,12.553 9.00015928,12 C9.00015928,11.447 9.41277467,11 9.9232362,11 L20.0770824,11 C20.5875439,11 21.0001593,11.447 21.0001593,12 C21.0001593,12.553 20.5875439,13 20.0770824,13 Z M20.0770824,19 L9.9232362,19 C9.41277467,19 9.00015928,18.553 9.00015928,18 C9.00015928,17.447 9.41277467,17 9.9232362,17 L20.0770824,17 C20.5875439,17 21.0001593,17.447 21.0001593,18 C21.0001593,18.553 20.5875439,19 20.0770824,19 Z M5.50015928,14 L3.50015928,14 C3.31515928,14 3.14615928,13.898 3.06015928,13.736 C2.97215928,13.573 2.98115928,13.376 3.08415928,13.223 L4.56515928,11 L3.50015928,11 C3.22415928,11 3.00015928,10.776 3.00015928,10.5 C3.00015928,10.224 3.22415928,10 3.50015928,10 L5.50015928,10 C5.68515928,10 5.85415928,10.102 5.94015928,10.264 C6.02815928,10.427 6.01915928,10.624 5.91615928,10.777 L4.43515928,13 L5.50015928,13 C5.77615928,13 6.00015928,13.224 6.00015928,13.5 C6.00015928,13.776 5.77615928,14 5.50015928,14 Z M5.50015928,4 C5.77615928,4 6.00015928,4.224 6.00015928,4.5 L6.00015928,7.5 C6.00015928,7.776 5.77615928,8 5.50015928,8 C5.22415928,8 5.00015928,7.776 5.00015928,7.5 L5.00015928,5 L3.50015928,5 C3.22515928,5 3.00015928,4.775 3.00015928,4.5 C3.00015928,4.225 3.22515928,4 3.50015928,4 L5.50015928,4 Z"/>
</svg>
