<svg xmlns="http://www.w3.org/2000/svg" width="24" height="24" viewBox="0 0 24 24">
  <path fill="#344055" fill-rule="evenodd" d="M4,17 C4,16.447 4.447,16 5,16 C5.553,16 6,16.447 6,17 C6,17.553 5.553,18 5,18 C4.447,18 4,17.553 4,17 M19,8 L9,8 C8.447,8 8,7.553 8,7 C8,6.447 8.447,6 9,6 L19,6 C19.553,6 20,6.447 20,7 C20,7.553 19.553,8 19,8 M15,18 L9,18 C8.447,18 8,17.553 8,17 C8,16.447 8.447,16 9,16 L15,16 C15.553,16 16,16.447 16,17 C16,17.553 15.553,18 15,18 M19,13 L9,13 C8.447,13 8,12.553 8,12 C8,11.447 8.447,11 9,11 L19,11 C19.553,11 20,11.447 20,12 C20,12.553 19.553,13 19,13 M6,7 C6,7.553 5.553,8 5,8 C4.447,8 4,7.553 4,7 C4,6.447 4.447,6 5,6 C5.553,6 6,6.447 6,7 M4,12 C4,11.447 4.447,11 5,11 C5.553,11 6,11.447 6,12 C6,12.553 5.553,13 5,13 C4.447,13 4,12.553 4,12"/>
</svg>
