<svg xmlns="http://www.w3.org/2000/svg" width="24" height="24" viewBox="0 0 24 24">
  <path fill="#344055" fill-rule="evenodd" d="M12,2 C12.5522847,2 13,2.44771525 13,3 L13.0009551,4.06201291 C16.6192382,4.51364811 19.486924,7.38162677 19.9381123,11.0000487 L21,11 C21.5522847,11 22,11.4477153 22,12 C22,12.5522847 21.5522847,13 21,13 L19.9379871,13.0009551 C19.4863937,16.6189036 16.6189036,19.4863937 13.0009551,19.9379871 L13,21 C13,21.5522847 12.5522847,22 12,22 C11.4477153,22 11,21.5522847 11,21 L11.0000487,19.9381123 C7.38162677,19.486924 4.51364811,16.6192382 4.06201291,13.0009551 L3,13 C2.44771525,13 2,12.5522847 2,12 C2,11.4477153 2.44771525,11 3,11 L4.06188768,11.0000487 C4.5131177,7.38129217 7.38129217,4.5131177 11.0000487,4.06188768 L11,3 C11,2.44771525 11.4477153,2 12,2 Z M12,6 C8.6862915,6 6,8.6862915 6,12 C6,15.3137085 8.6862915,18 12,18 L11.9878788,18.000072 C11.9919135,18.000024 11.995954,18 12,18 L12.0121008,17.9999881 C15.3202458,17.9934578 18,15.309674 18,12 C18,8.6862915 15.3137085,6 12,6 Z M12,10 C13.1045695,10 14,10.8954305 14,12 C14,13.1045695 13.1045695,14 12,14 C10.8954305,14 10,13.1045695 10,12 C10,10.8954305 10.8954305,10 12,10 Z"/>
</svg>
