<svg xmlns="http://www.w3.org/2000/svg" width="24" height="24" viewBox="0 0 24 24">
  <path fill="#344055" fill-rule="evenodd" d="M17,10 C19.209139,10 21,11.790861 21,14 L21,18 C21,20.209139 19.209139,22 17,22 L7,22 C4.790861,22 3,20.209139 3,18 L3,14 C3,11.790861 4.790861,10 7,10 L7,7 C7,4.24 9.241,2 12,2 C14.76,2 17,4.24 17,7 L17,10 Z M15.1,10 L15.1,7 C15.1,5.29 13.71,3.9 12,3.9 C10.29,3.9 8.901,5.29 8.901,7 L8.901,10 L15.1,10 L15.1,10 Z M7,12 C5.8954305,12 5,12.8954305 5,14 L5,18 C5,19.1045695 5.8954305,20 7,20 L17,20 C18.1045695,20 19,19.1045695 19,18 L19,14 C19,12.8954305 18.1045695,12 17,12 L7,12 Z M12,18 C10.896,18 10,17.104 10,16 C10,14.896 10.896,14 12,14 C13.105,14 14,14.896 14,16 C14,17.104 13.105,18 12,18 Z"/>
</svg>
