<svg xmlns="http://www.w3.org/2000/svg" width="24" height="24" viewBox="0 0 24 24">
  <g fill="none" fill-rule="evenodd">
    <path fill="#344055" d="M3,2 C3.55228475,2 4,2.44771525 4,3 L4,21 C4,21.5522847 3.55228475,22 3,22 C2.44771525,22 2,21.5522847 2,21 L2,3 C2,2.44771525 2.44771525,2 3,2 Z M21,2 C21.5522847,2 22,2.44771525 22,3 L22,21 C22,21.5522847 21.5522847,22 21,22 C20.4477153,22 20,21.5522847 20,21 L20,3 C20,2.44771525 20.4477153,2 21,2 Z"/>
    <rect width="16" height="12" x="4" y="6" fill="#007FFF" rx="2" transform="rotate(90 12 12)"/>
  </g>
</svg>
