<svg xmlns="http://www.w3.org/2000/svg" width="24" height="24" viewBox="0 0 24 24">
  <g fill="none" fill-rule="evenodd">
    <path fill="#344055" d="M21,20 C21.5522847,20 22,20.4477153 22,21 C22,21.5522847 21.5522847,22 21,22 L3,22 C2.44771525,22 2,21.5522847 2,21 C2,20.4477153 2.44771525,20 3,20 L21,20 Z M21,2 C21.5522847,2 22,2.44771525 22,3 C22,3.55228475 21.5522847,4 21,4 L3,4 C2.44771525,4 2,3.55228475 2,3 C2,2.44771525 2.44771525,2 3,2 L21,2 Z"/>
    <rect width="16" height="12" x="4" y="6" fill="#007FFF" rx="2"/>
  </g>
</svg>
