<svg xmlns="http://www.w3.org/2000/svg" width="24" height="24" viewBox="0 0 24 24">
  <path fill="#344055" fill-rule="evenodd" d="M10.7071068,13.2928932 C11.0675907,13.6533772 11.0953203,14.2206082 10.7902954,14.6128994 L10.7071068,14.7071068 L7.414,18 L8,18 C8.553,18 9,18.447 9,19 C9,19.553 8.553,20 8,20 L5,20 L4.96774538,19.9994829 C4.94973363,19.9989053 4.93173451,19.9978436 4.9137692,19.9962979 L5,20 C4.94931416,20 4.89951881,19.9962448 4.85087651,19.988997 C4.83405099,19.9863719 4.81662474,19.9832978 4.79927424,19.9797599 C4.77703259,19.9753954 4.75532773,19.9702085 4.73391204,19.9643287 C4.71853672,19.9599023 4.70314866,19.9552713 4.68785748,19.9502619 C4.66699596,19.94365 4.64630884,19.9361046 4.62595517,19.9279097 C4.61060789,19.9215033 4.5956499,19.9150452 4.58082489,19.9082048 C4.55662417,19.89728 4.5324762,19.8849281 4.50892297,19.8716492 C4.49941247,19.8660435 4.48982979,19.8604252 4.48032286,19.8546338 C4.45414723,19.8389605 4.42891302,19.8219698 4.40453268,19.803895 C4.39739696,19.7982466 4.39015759,19.7927155 4.38297765,19.7870723 C4.31953271,19.7377036 4.26229639,19.6804673 4.21256553,19.6170528 L4.29289322,19.7071068 C4.25749917,19.6717127 4.22531295,19.6343256 4.19633458,19.5953066 C4.17803021,19.571087 4.16103948,19.5458528 4.14520354,19.5198354 C4.1395748,19.5101702 4.13395648,19.5005875 4.12851121,19.4909336 C4.11507187,19.4675238 4.10272004,19.4433758 4.09134452,19.4186824 C4.08495482,19.4043501 4.07849669,19.3893921 4.07242086,19.374316 C4.06389537,19.3536912 4.05635001,19.333004 4.04947976,19.312009 C4.04472872,19.2968513 4.04009773,19.2814633 4.03584514,19.265993 C4.02979149,19.2446723 4.02460456,19.2229674 4.02013602,19.2009989 C4.01670217,19.1833753 4.01362808,19.165949 4.0110178,19.1484669 C4.00808877,19.1295654 4.00573922,19.1098208 4.00397138,19.0899069 C4.00189498,19.0659949 4.00063489,19.042681 4.00018615,19.0193545 C4.00006118,19.0129251 4,19.0064698 4,19 L4,16 C4,15.447 4.447,15 5,15 C5.553,15 6,15.447 6,16 L6,16.584 L9.29289322,13.2928932 C9.68341751,12.9023689 10.3165825,12.9023689 10.7071068,13.2928932 Z M19,4 L19.0193545,4.00018615 C19.042681,4.00063489 19.0659949,4.00189498 19.0892501,4.00396641 L19,4 C19.0506858,4 19.1004812,4.00375518 19.1491235,4.01100297 C19.165949,4.01362808 19.1833753,4.01670217 19.2007258,4.02024007 C19.2229674,4.02460456 19.2446723,4.02979149 19.266088,4.0356713 C19.2814633,4.04009773 19.2968513,4.04472872 19.3121425,4.04973809 C19.333004,4.05635001 19.3536912,4.06389537 19.3740448,4.07209027 C19.3893921,4.07849669 19.4043501,4.08495482 19.4191751,4.09179525 C19.4433758,4.10272004 19.4675238,4.11507187 19.491077,4.12835079 C19.5005875,4.13395648 19.5101702,4.1395748 19.5196771,4.14536616 C19.5458528,4.16103948 19.571087,4.17803021 19.5954673,4.19610498 C19.602603,4.20175344 19.6098424,4.20728448 19.6170223,4.21292769 C19.6804673,4.26229639 19.7377036,4.31953271 19.7874345,4.38294719 L19.7071068,4.29289322 C19.7425008,4.32828727 19.774687,4.36567442 19.8036654,4.40469339 C19.8219698,4.42891302 19.8389605,4.45414723 19.8547965,4.48016457 C19.8604252,4.48982979 19.8660435,4.49941247 19.8714888,4.50906637 C19.8849281,4.5324762 19.89728,4.55662417 19.9086555,4.58131764 C19.9150452,4.5956499 19.9215033,4.61060789 19.9275791,4.62568399 C19.9361046,4.64630884 19.94365,4.66699596 19.9505202,4.68799096 C19.9552713,4.70314866 19.9599023,4.71853672 19.9641549,4.73400703 C19.9702085,4.75532773 19.9753954,4.77703259 19.979864,4.7990011 C19.9832978,4.81662474 19.9863719,4.83405099 19.9889822,4.85153313 C19.9920448,4.87133122 19.994475,4.89198983 19.9962681,4.9128328 C19.9978436,4.93173451 19.9989053,4.94973363 19.9994829,4.96774538 C19.9998186,4.97776097 20,4.98885897 20,5 L20,8 C20,8.553 19.553,9 19,9 C18.448,9 18,8.553 18,8 L18,7.414 L14.7071068,10.7071068 C14.3165825,11.0976311 13.6834175,11.0976311 13.2928932,10.7071068 C12.9324093,10.3466228 12.9046797,9.77939176 13.2097046,9.38710056 L13.2928932,9.29289322 L16.584,6 L16,6 C15.448,6 15,5.553 15,5 C15,4.447 15.448,4 16,4 L19,4 Z"/>
</svg>
