<?xml version="1.0" encoding="UTF-8"?>
<svg width="24px" height="24px" viewBox="0 0 24 24" version="1.1" xmlns="http://www.w3.org/2000/svg" xmlns:xlink="http://www.w3.org/1999/xlink">
    <title>Icons/Merge Tag</title>
    <g id="Icons/Merge-Tag" stroke="none" stroke-width="1" fill="none" fill-rule="evenodd">
        <path d="M15.4797826,4.11590293 C18.0474117,4.67912481 19.0394566,5.67320095 19.10274,7.51809649 L19.106,7.712 L19.0703034,8.9525162 L19.0730401,9.18496301 C19.113765,10.3305381 19.5674621,10.7969 20.6630478,10.8452593 C21.2789383,10.8849942 21.68,11.2744309 21.68,11.834 C21.68,12.3935691 21.2789383,12.7830058 20.6586749,12.822946 C19.5741946,12.8548424 19.1144161,13.3280601 19.0730868,14.4662554 L19.0703034,14.6974838 L19.106,15.938 C19.106,17.9240542 18.138759,18.9688377 15.4805326,19.5519301 C14.8528497,19.693665 14.338,19.3026399 14.338,18.692 C14.338,18.2577226 14.6018428,17.9411111 14.9477156,17.83469 C16.4407374,17.3681207 16.8100133,16.9524652 16.8381943,15.7881752 L16.84,15.632 L16.8044076,14.3791014 L16.8093435,14.0855649 C16.8628202,13.0382459 17.3182987,12.3611158 18.2035791,11.9344128 L18.3863741,11.8523758 L18.436,11.832 L18.3813203,11.8107309 C17.4272529,11.4062778 16.9261196,10.7788396 16.8238028,9.77636724 L16.808641,9.57082726 L16.804,9.368 L16.8056823,9.20396139 L16.8372336,8.24093035 L16.8381943,7.87982481 C16.8100142,6.71553504 16.4407592,6.29988607 14.9482393,5.83347238 C14.6018428,5.72688886 14.338,5.41027745 14.338,4.976 C14.338,4.36536015 14.8528497,3.97433503 15.4797826,4.11590293 Z M8.53821742,4.11590293 C9.16515027,3.97433503 9.68,4.36536015 9.68,4.976 C9.68,5.41027745 9.41615715,5.72688886 9.06976073,5.83347238 C7.57724076,6.29988607 7.20798576,6.71553504 7.17980569,7.87982481 L7.17980569,7.87982481 L7.18076641,8.24093035 L7.21231769,9.20396139 L7.214,9.368 L7.20935899,9.57082726 L7.19419715,9.77636724 C7.09188038,10.7788396 6.59074709,11.4062778 5.6366797,11.8107309 L5.6366797,11.8107309 L5.582,11.832 L5.63162589,11.8523758 L5.8144209,11.9344128 C6.69970128,12.3611158 7.15517977,13.0382459 7.20865645,14.0855649 L7.20865645,14.0855649 L7.21359239,14.3791014 L7.178,15.632 L7.17980572,15.7881752 C7.20798667,16.9524652 7.57726258,17.3681207 9.07028437,17.83469 C9.41615715,17.9411111 9.68,18.2577226 9.68,18.692 C9.68,19.3026399 9.16515027,19.693665 8.53746739,19.5519301 C5.87924098,18.9688377 4.912,17.9240542 4.912,15.938 L4.912,15.938 L4.94769657,14.6974838 L4.94491319,14.4662554 C4.90358391,13.3280601 4.44380542,12.8548424 3.35932512,12.822946 C2.73906165,12.7830058 2.338,12.3935691 2.338,11.834 C2.338,11.2744309 2.73906165,10.8849942 3.35495222,10.8452593 C4.45053795,10.7969 4.90423502,10.3305381 4.94495994,9.18496301 L4.94495994,9.18496301 L4.94769657,8.9525162 L4.912,7.712 L4.91526002,7.51809649 C4.97854342,5.67320095 5.97058828,4.67912481 8.53821742,4.11590293 Z" id="Combined-Shape" fill="#344055"></path>
    </g>
</svg>