<svg xmlns="http://www.w3.org/2000/svg" width="24" height="24" viewBox="0 0 24 24">
  <path fill="#344055" fill-rule="evenodd" d="M12,2 C17.52,2 22,6.48 22,12 C22,17.52 17.52,22 12,22 C6.48,22 2,17.52 2,12 C2,6.48 6.48,2 12,2 Z M13.794484,15.012464 C13.407804,15.000504 13.096804,14.884984 12.816044,14.672264 C12.109564,14.136904 11.398644,13.607344 10.690124,13.074664 C10.327284,12.801824 10.117724,12.802584 9.757524,13.076144 C8.780844,13.817784 7.803884,14.559024 6.825764,15.298744 C6.549764,15.507504 6.290764,15.489384 6.102644,15.255704 C5.962684,15.081824 5.964884,14.884864 6.115204,14.645704 C6.721604,13.680744 7.328924,12.716344 7.936364,11.752024 C8.277404,11.210664 8.614164,10.666504 8.962084,10.129584 C9.458324,9.363864 10.406164,9.196864 11.141444,9.743544 C11.863564,10.280384 12.581004,10.823424 13.300964,11.363184 C13.665724,11.636624 13.869844,11.634664 14.233644,11.358104 C15.199244,10.623984 16.162684,9.886904 17.134004,9.160344 C17.249404,9.074064 17.409404,8.996864 17.546684,9.000104 C17.921644,9.009024 18.107204,9.414984 17.899004,9.752504 C17.507164,10.387824 17.105044,11.016744 16.706364,11.647864 C16.140364,12.543784 15.576644,13.441104 15.006004,14.334064 C14.717244,14.785944 14.283684,14.986184 13.794484,15.012464"/>
</svg>
