<svg xmlns="http://www.w3.org/2000/svg" width="24" height="24" viewBox="0 0 24 24">
  <path fill="#344055" fill-rule="evenodd" d="M12.9980087,17.9363756 C12.9993296,17.9574139 13,17.9786287 13,18 L13,21 C13,21.5522847 12.5522847,22 12,22 C11.4477153,22 11,21.5522847 11,21 L11,18 C11,17.9786287 11.0006704,17.9574139 11.0019913,17.9363756 C7.86445116,17.5338845 5,15.2217593 5,11 C5,10.4477153 5.44771525,10 6,10 C6.55228475,10 7,10.4477153 7,11 C7,17.6666667 17,17.6666667 17,11 C17,10.4477153 17.4477153,10 18,10 C18.5522847,10 19,10.4477153 19,11 C19,15.2217593 16.1355488,17.5338845 12.9980087,17.9363756 L12.9980087,17.9363756 Z M12,2 C13.6568542,2 15,3.34314575 15,5 L15,11 C15,12.6568542 13.6568542,14 12,14 C10.3431458,14 9,12.6568542 9,11 L9,5 C9,3.34314575 10.3431458,2 12,2 Z"/>
</svg>
