<svg xmlns="http://www.w3.org/2000/svg" width="24" height="24" viewBox="0 0 24 24">
  <path fill="#344055" fill-rule="evenodd" d="M11.21,12.491 L20.952,12.491 C20.957,15.327 20.952,18.162 20.952,21 C17.714,20.514 14.469,20.064 11.225,19.625 C11.22,17.247 11.214,14.87 11.21,12.491 L11.21,12.491 Z M3,12.396 C5.445,12.388 7.889,12.428 10.334,12.424 C10.334,14.788 10.34,17.153 10.336,19.517 C7.894,19.155 5.447,18.839 3,18.508 L3,12.396 Z M3,5.559 C5.439,5.183 7.888,4.858 10.336,4.553 C10.338,6.911 10.338,9.267 10.34,11.626 C7.894,11.624 5.447,11.661 3,11.654 L3,5.559 Z M11.225,4.413 C14.463,3.917 17.708,3.45 20.952,3 C20.955,5.844 20.952,8.685 20.955,11.529 C17.712,11.541 14.469,11.591 11.225,11.601 C11.223,9.203 11.223,6.807 11.225,4.413 L11.225,4.413 Z"/>
</svg>
