<svg xmlns="http://www.w3.org/2000/svg" width="24" height="24" viewBox="0 0 24 24">
  <path fill="#344055" fill-rule="evenodd" d="M10,13 L10.0193545,13.0001861 C10.042681,13.0006349 10.0659949,13.001895 10.0892501,13.0039664 L10,13 C10.0506858,13 10.1004812,13.0037552 10.1491235,13.011003 C10.165949,13.0136281 10.1833753,13.0167022 10.2007258,13.0202401 C10.2229674,13.0246046 10.2446723,13.0297915 10.266088,13.0356713 C10.2814633,13.0400977 10.2968513,13.0447287 10.3121425,13.0497381 C10.333004,13.05635 10.3536912,13.0638954 10.3740448,13.0720903 C10.3893921,13.0784967 10.4043501,13.0849548 10.4191751,13.0917952 C10.4433758,13.10272 10.4675238,13.1150719 10.491077,13.1283508 C10.5005875,13.1339565 10.5101702,13.1395748 10.5196771,13.1453662 C10.5458528,13.1610395 10.571087,13.1780302 10.5954673,13.196105 C10.602603,13.2017534 10.6098424,13.2072845 10.6170223,13.2129277 C10.6804673,13.2622964 10.7377036,13.3195327 10.7874345,13.3829472 L10.7071068,13.2928932 C10.7425008,13.3282873 10.774687,13.3656744 10.8036654,13.4046934 C10.8219698,13.428913 10.8389605,13.4541472 10.8547965,13.4801646 C10.8604252,13.4898298 10.8660435,13.4994125 10.8714888,13.5090664 C10.8849281,13.5324762 10.89728,13.5566242 10.9086555,13.5813176 C10.9150452,13.5956499 10.9215033,13.6106079 10.9275791,13.625684 C10.9361046,13.6463088 10.94365,13.666996 10.9505202,13.687991 C10.9552713,13.7031487 10.9599023,13.7185367 10.9641549,13.734007 C10.9702085,13.7553277 10.9753954,13.7770326 10.979864,13.7990011 C10.9832978,13.8166247 10.9863719,13.834051 10.9889822,13.8515331 C10.9920448,13.8713312 10.994475,13.8919898 10.9962681,13.9128328 C10.9978436,13.9317345 10.9989053,13.9497336 10.9994829,13.9677454 C10.9998186,13.977761 11,13.988859 11,14 L11,17 C11,17.553 10.553,18 10,18 C9.448,18 9,17.553 9,17 L9,16.414 L5.70710678,19.7071068 C5.31658249,20.0976311 4.68341751,20.0976311 4.29289322,19.7071068 C3.93240926,19.3466228 3.90467972,18.7793918 4.20970461,18.3871006 L4.29289322,18.2928932 L7.584,15 L7,15 C6.448,15 6,14.553 6,14 C6,13.447 6.448,13 7,13 L10,13 Z M19.7071068,4.29289322 C20.0675907,4.65337718 20.0953203,5.22060824 19.7902954,5.61289944 L19.7071068,5.70710678 L16.414,9 L17,9 C17.553,9 18,9.447 18,10 C18,10.553 17.553,11 17,11 L14,11 L13.9677454,10.9994829 C13.9497336,10.9989053 13.9317345,10.9978436 13.9137692,10.9962979 L14,11 C13.9493142,11 13.8995188,10.9962448 13.8508765,10.988997 C13.834051,10.9863719 13.8166247,10.9832978 13.7992742,10.9797599 C13.7770326,10.9753954 13.7553277,10.9702085 13.733912,10.9643287 C13.7185367,10.9599023 13.7031487,10.9552713 13.6878575,10.9502619 C13.666996,10.94365 13.6463088,10.9361046 13.6259552,10.9279097 C13.6106079,10.9215033 13.5956499,10.9150452 13.5808249,10.9082048 C13.5566242,10.89728 13.5324762,10.8849281 13.508923,10.8716492 C13.4994125,10.8660435 13.4898298,10.8604252 13.4803229,10.8546338 C13.4541472,10.8389605 13.428913,10.8219698 13.4045327,10.803895 C13.397397,10.7982466 13.3901576,10.7927155 13.3829777,10.7870723 C13.3195327,10.7377036 13.2622964,10.6804673 13.2125655,10.6170528 L13.2928932,10.7071068 C13.2574992,10.6717127 13.225313,10.6343256 13.1963346,10.5953066 C13.1780302,10.571087 13.1610395,10.5458528 13.1452035,10.5198354 C13.1395748,10.5101702 13.1339565,10.5005875 13.1285112,10.4909336 C13.1150719,10.4675238 13.10272,10.4433758 13.0913445,10.4186824 C13.0849548,10.4043501 13.0784967,10.3893921 13.0724209,10.374316 C13.0638954,10.3536912 13.05635,10.333004 13.0494798,10.312009 C13.0447287,10.2968513 13.0400977,10.2814633 13.0358451,10.265993 C13.0297915,10.2446723 13.0246046,10.2229674 13.020136,10.2009989 C13.0167022,10.1833753 13.0136281,10.165949 13.0110178,10.1484669 C13.0080888,10.1295654 13.0057392,10.1098208 13.0039714,10.0899069 C13.001895,10.0659949 13.0006349,10.042681 13.0001861,10.0193545 C13.0000612,10.0129251 13,10.0064698 13,10 L13,7 C13,6.447 13.447,6 14,6 C14.553,6 15,6.447 15,7 L15,7.584 L18.2928932,4.29289322 C18.6834175,3.90236893 19.3165825,3.90236893 19.7071068,4.29289322 Z"/>
</svg>
