<svg xmlns="http://www.w3.org/2000/svg" width="24" height="24" viewBox="0 0 24 24">
  <path fill="#344055" fill-rule="evenodd" d="M12,2 C17.5228475,2 22,6.4771525 22,12 C22,17.5228475 17.5228475,22 12,22 C6.4771525,22 2,17.5228475 2,12 C2,6.4771525 6.4771525,2 12,2 Z M12,4 C7.581722,4 4,7.581722 4,12 C4,16.418278 7.581722,20 12,20 C16.418278,20 20,16.418278 20,12 C20,7.581722 16.418278,4 12,4 Z M12.096,6.594 C12.5220712,6.594 12.862,6.93392881 12.862,7.36 L12.862,7.40682592 C13.4943371,7.51037177 14.0622734,7.73019809 14.5945653,8.06610612 C14.8944842,8.23481047 15.082,8.50329905 15.082,8.86 C15.082,9.3691931 14.6710461,9.77 14.16,9.77 C13.9927217,9.77 13.8287863,9.72081937 13.6713761,9.62637323 C13.3723779,9.44697432 13.0886269,9.3109052 12.814,9.21650093 L12.814,10.994823 C14.6099664,11.4828784 15.418,12.2934921 15.418,13.66 C15.418,15.0308634 14.4082853,15.9987216 12.862,16.2219204 L12.862,16.72 C12.862,17.1460712 12.5220712,17.486 12.096,17.486 C11.6693512,17.486 11.318,17.1456285 11.318,16.72 L11.318,16.1960883 C10.4714191,16.0703048 9.67889965,15.7482887 8.97218718,15.2498925 C8.69174557,15.0684303 8.534,14.7955731 8.534,14.464 C8.534,13.9539288 8.93392881,13.554 9.444,13.554 C9.60307413,13.554 9.76169534,13.5962688 9.89330364,13.6712366 L10.2213882,13.8955548 C10.6083483,14.149311 10.9757779,14.321879 11.366,14.4275867 L11.366,12.5674314 C9.57701523,12.066018 8.798,11.2989036 8.798,9.904 C8.798,8.61814386 9.72077695,7.67481831 11.1237506,7.41805383 L11.318,7.38732834 L11.3251601,7.25551669 C11.3770814,6.88000658 11.7049053,6.594 12.096,6.594 Z M12.814,12.9552229 L12.814,14.491269 C13.2732661,14.3766509 13.502,14.1157157 13.502,13.744 C13.502,13.4131482 13.3694777,13.2032971 12.948953,13.0121186 L12.814,12.9552229 Z M11.366,9.10607664 L11.2423495,9.14286561 C10.8908052,9.26633597 10.714,9.50616853 10.714,9.82 C10.714,10.1392245 10.8320937,10.3363448 11.2360646,10.5244488 L11.366,10.5807226 L11.366,9.10607664 Z"/>
</svg>
