<svg xmlns="http://www.w3.org/2000/svg" width="24" height="24" viewBox="0 0 24 24">
  <path fill="#344055" fill-rule="evenodd" d="M11,6 C11.5522847,6 12,6.44771525 12,7 L12,13.2 L16.5173698,13.651737 C18.4944205,13.8494421 20,15.5130886 20,17.5 C20,19.4329966 18.4329966,21 16.5,21 L10,21 C9.15772712,21 7.2553582,19.2357023 4.29289322,15.7071068 C3.90236893,15.3165825 3.90236893,14.6834175 4.29289322,14.2928932 C4.68341751,13.9023689 5.31658249,13.9023689 5.70710678,14.2928932 L10,18.5857864 L10,7 C10,6.44771525 10.4477153,6 11,6 Z M12,15.2099751 L12,19 L16.5,19 C17.3284271,19 18,18.3284271 18,17.5 C18,16.5405915 17.2730095,15.7372761 16.3183624,15.6418114 L12,15.2099751 Z M11,3 C13.209139,3 15,4.790861 15,7 C15,8.4801068 14.1961002,9.77245275 13.0011092,10.4642293 L13,7 C13,5.8954305 12.1045695,5 11,5 C9.9456382,5 9.08183488,5.81587779 9.00548574,6.85073766 L9,7 L8.99987956,10.4648015 C7.80434324,9.77316556 7,8.48051499 7,7 C7,4.790861 8.790861,3 11,3 Z"/>
</svg>
