<svg xmlns="http://www.w3.org/2000/svg" width="24" height="24" viewBox="0 0 24 24">
  <path fill="#344055" fill-rule="evenodd" d="M14,3 C14.5522847,3 15,3.44771525 15,4 C15,4.55228475 14.5522847,5 14,5 L13,5 L13,11 L19,11 L19,10 C19,9.44771525 19.4477153,9 20,9 C20.5522847,9 21,9.44771525 21,10 L21,14 C21,14.5522847 20.5522847,15 20,15 C19.4477153,15 19,14.5522847 19,14 L19,13 L13,13 L13,19 L14,19 C14.5522847,19 15,19.4477153 15,20 C15,20.5522847 14.5522847,21 14,21 L10,21 C9.44771525,21 9,20.5522847 9,20 C9,19.4477153 9.44771525,19 10,19 L11,19 L11,13 L5,13 L5,14 C5,14.5522847 4.55228475,15 4,15 C3.44771525,15 3,14.5522847 3,14 L3,10 C3,9.44771525 3.44771525,9 4,9 C4.55228475,9 5,9.44771525 5,10 L5,11 L11,11 L11,5 L10,5 C9.44771525,5 9,4.55228475 9,4 C9,3.44771525 9.44771525,3 10,3 L14,3 Z"/>
</svg>
