<svg xmlns="http://www.w3.org/2000/svg" width="24" height="24" viewBox="0 0 24 24">
  <path fill="#344055" fill-rule="evenodd" d="M19.7071068,4.29289322 C20.0675907,4.65337718 20.0953203,5.22060824 19.7902954,5.61289944 L19.7071068,5.70710678 L15,10.414 L15,11 C15,12.6568542 13.6568542,14 12,14 C11.8169482,14 11.6377255,13.9836053 11.4637203,13.9522042 L9.85162733,15.5648519 C12.8073868,16.8383101 17,15.3166928 17,11 C17,10.4477153 17.4477153,10 18,10 C18.5522847,10 19,10.4477153 19,11 C19,15.2217593 16.1355488,17.5338845 12.9980087,17.9363756 L13,18 L13,21 C13,21.5522847 12.5522847,22 12,22 C11.4477153,22 11,21.5522847 11,21 L11,18 C11,17.9786287 11.0006704,17.9574139 11.0019913,17.9363756 C10.0693353,17.8167323 9.16080992,17.5283503 8.34448029,17.0712297 L5.70710678,19.7071068 C5.31658249,20.0976311 4.68341751,20.0976311 4.29289322,19.7071068 C3.93240926,19.3466228 3.90467972,18.7793918 4.20970461,18.3871006 L4.29289322,18.2928932 L18.2928932,4.29289322 C18.6834175,3.90236893 19.3165825,3.90236893 19.7071068,4.29289322 Z M6,10 C6.55228475,10 7,10.4477153 7,11 C7,11.8232932 7.15250762,12.5449146 7.41985532,13.1648643 L5.90980757,14.6761097 C5.33833321,13.6762952 5,12.4509254 5,11 C5,10.4477153 5.44771525,10 6,10 Z M12,2 C13.6568542,2 15,3.34314575 15,5 L15,5.584 L9.04804923,11.5376824 C9.0164829,11.3632377 9,11.1835437 9,11 L9,5 C9,3.34314575 10.3431458,2 12,2 Z"/>
</svg>
