<svg xmlns="http://www.w3.org/2000/svg" width="24" height="24" viewBox="0 0 24 24">
  <path fill="#344055" fill-rule="evenodd" d="M16,2 C18.209139,2 20,3.790861 20,6 L20,12 L18,12 L18,6 C18,4.8954305 17.1045695,4 16,4 L8,4 C6.8954305,4 6,4.8954305 6,6 L6,18 C6,19.1045695 6.8954305,20 8,20 L10,20 L10,22 L8,22 C5.790861,22 4,20.209139 4,18 L4,6 C4,3.790861 5.790861,2 8,2 L16,2 Z M16,14 C16.5522847,14 17,14.4477153 17,15 L17,16.999 L19,17 C19.5522847,17 20,17.4477153 20,18 C20,18.5522847 19.5522847,19 19,19 L17,19 L17,21 C17,21.5522847 16.5522847,22 16,22 C15.4477153,22 15,21.5522847 15,21 L15,19 L13,19 C12.4477153,19 12,18.5522847 12,18 C12,17.4477153 12.4477153,17 13,17 L15,17 L15,15 C15,14.4477153 15.4477153,14 16,14 Z M15,10 C15.5522847,10 16,10.4477153 16,11 C16,11.5522847 15.5522847,12 15,12 L9,12 C8.44771525,12 8,11.5522847 8,11 C8,10.4477153 8.44771525,10 9,10 L15,10 Z M15,6 C15.5522847,6 16,6.44771525 16,7 C16,7.55228475 15.5522847,8 15,8 L9,8 C8.44771525,8 8,7.55228475 8,7 C8,6.44771525 8.44771525,6 9,6 L15,6 Z"/>
</svg>
