<svg xmlns="http://www.w3.org/2000/svg" width="24" height="24" viewBox="0 0 24 24">
  <path fill="#344055" fill-rule="evenodd" d="M14,20 C14,21.104 13.104,22 12,22 C10.896,22 10,21.104 10,20 L10,20 Z M19.7071068,4.29289322 C20.0976311,4.68341751 20.0976311,5.31658249 19.7071068,5.70710678 L17.7223455,7.69186805 C17.902832,8.26215133 18.0001893,8.86953252 18.0001893,9.5 L18,17 L19,17 C19.5522847,17 20,17.4477153 20,18 C20,18.5522847 19.5522847,19 19,19 L6.41421356,19 L5.70710678,19.7071068 C5.31658249,20.0976311 4.68341751,20.0976311 4.29289322,19.7071068 C3.90236893,19.3165825 3.90236893,18.6834175 4.29289322,18.2928932 L18.2928932,4.29289322 C18.6834175,3.90236893 19.3165825,3.90236893 19.7071068,4.29289322 Z M15.9992923,9.41492128 L8.41421356,17 L16,17 L16,15 L16.0001893,9.5 C16.0001893,9.47157915 15.9998893,9.44321849 15.9992923,9.41492128 Z M12.0001893,2 C12.8281893,2 13.5001893,2.671 13.5001893,3.5 C13.5001893,3.565 13.4891893,3.628 13.4801893,3.692 C14.086131,3.84599365 14.6553801,4.09177308 15.1720718,4.41371465 L13.7004432,5.88534324 C13.4743212,5.77933619 13.2359974,5.69351758 12.9875699,5.63038237 L11.999499,5.37927463 L11.0119868,5.63033706 C9.2529269,6.07755568 8.00018926,7.66321584 8.00018926,9.5 L8.00018926,11.5855972 L6.00004867,13.5857378 L6.00018926,9.5 C6.00018926,6.698 7.92318926,4.352 10.5191893,3.692 C10.5111893,3.628 10.5001893,3.565 10.5001893,3.5 C10.5001893,2.671 11.1721893,2 12.0001893,2 Z"/>
</svg>
