<svg xmlns="http://www.w3.org/2000/svg" width="24" height="24" viewBox="0 0 24 24">
  <path fill="#344055" fill-rule="evenodd" d="M14,20 C14,21.104 13.104,22 12,22 C10.896,22 10,21.104 10,20 L10,20 Z M12.0001893,2 C12.8281893,2 13.5001893,2.671 13.5001893,3.5 C13.5001893,3.565 13.4891893,3.628 13.4801893,3.692 C15.9984923,4.332 17.8830249,6.55736639 17.9949265,9.24656315 L18.0001893,9.5 L18,17 L19,17 C19.5522847,17 20,17.4477153 20,18 C20,18.5522847 19.5522847,19 19,19 L5,19 C4.44771525,19 4,18.5522847 4,18 C4,17.4477153 4.44771525,17 5,17 L6,17 L6.00018926,9.5 C6.00018926,6.78290909 7.80840964,4.49460055 10.285078,3.7566104 L10.5191893,3.692 C10.5111893,3.628 10.5001893,3.565 10.5001893,3.5 C10.5001893,2.671 11.1721893,2 12.0001893,2 Z M11.999499,5.37927463 L11.0119868,5.63033706 C9.31807727,6.06099203 8.09367918,7.54732118 8.00530663,9.29699138 L8.00018926,9.5 L8,17 L16,17 L16.0001893,9.5 C16.0001893,7.73115304 14.8384655,6.19540962 13.1809804,5.68471463 L12.9875699,5.63038237 L11.999499,5.37927463 Z"/>
</svg>
