<svg xmlns="http://www.w3.org/2000/svg" width="24" height="24" viewBox="0 0 24 24">
  <path fill="#344055" fill-rule="evenodd" d="M11.5,18 C12.328,18 13,18.672 13,19.5 C13,20.328 12.328,21 11.5,21 L11.5,21 L11.3556068,20.9931292 C10.5952664,20.9204014 10,20.2792941 10,19.5 C10,18.672 10.672,18 11.5,18 Z M16.5,13 C17.328,13 18,13.672 18,14.5 C18,15.328 17.328,16 16.5,16 L16.5,16 L16.3556068,15.9931292 C15.5952664,15.9204014 15,15.2792941 15,14.5 C15,13.672 15.672,13 16.5,13 Z M6.5,13 C7.328,13 8,13.672 8,14.5 C8,15.328 7.328,16 6.5,16 L6.5,16 L6.35560676,15.9931292 C5.59526644,15.9204014 5,15.2792941 5,14.5 C5,13.672 5.672,13 6.5,13 Z M11.5,13 C12.328,13 13,13.672 13,14.5 C13,15.328 12.328,16 11.5,16 L11.5,16 L11.3556068,15.9931292 C10.5952664,15.9204014 10,15.2792941 10,14.5 C10,13.672 10.672,13 11.5,13 Z M6.5,8 C7.328,8 8,8.672 8,9.5 C8,10.328 7.328,11 6.5,11 L6.5,11 L6.35560676,10.9931292 C5.59526644,10.9204014 5,10.2792941 5,9.5 C5,8.672 5.672,8 6.5,8 Z M11.5,8 C12.328,8 13,8.672 13,9.5 C13,10.328 12.328,11 11.5,11 L11.5,11 L11.3556068,10.9931292 C10.5952664,10.9204014 10,10.2792941 10,9.5 C10,8.672 10.672,8 11.5,8 Z M16.5,8 C17.328,8 18,8.672 18,9.5 C18,10.328 17.328,11 16.5,11 L16.5,11 L16.3556068,10.9931292 C15.5952664,10.9204014 15,10.2792941 15,9.5 C15,8.672 15.672,8 16.5,8 Z M6.5,3 C7.328,3 8,3.672 8,4.5 C8,5.328 7.328,6 6.5,6 L6.5,6 L6.35560676,5.99312925 C5.59526644,5.92040138 5,5.27929412 5,4.5 C5,3.672 5.672,3 6.5,3 Z M11.5,3 C12.328,3 13,3.672 13,4.5 C13,5.328 12.328,6 11.5,6 L11.5,6 L11.3556068,5.99312925 C10.5952664,5.92040138 10,5.27929412 10,4.5 C10,3.672 10.672,3 11.5,3 Z M16.5,3 C17.328,3 18,3.672 18,4.5 C18,5.328 17.328,6 16.5,6 L16.5,6 L16.3556068,5.99312925 C15.5952664,5.92040138 15,5.27929412 15,4.5 C15,3.672 15.672,3 16.5,3 Z"/>
</svg>
