<svg xmlns="http://www.w3.org/2000/svg" width="24" height="24" viewBox="0 0 24 24">
  <g fill="none" fill-rule="evenodd">
    <path fill="#344055" d="M3,20 L21,20 C21.5522847,20 22,20.4477153 22,21 C22,21.5522847 21.5522847,22 21,22 L3,22 C2.44771525,22 2,21.5522847 2,21 C2,20.4477153 2.44771525,20 3,20 Z"/>
    <path fill="#007FFF" d="M17,10 C18.1045695,10 19,10.8954305 19,12 L19,16 C19,17.1045695 18.1045695,18 17,18 C15.8954305,18 15,17.1045695 15,16 L15,12 C15,10.8954305 15.8954305,10 17,10 Z M7,2 C8.1045695,2 9,2.8954305 9,4 L9,16 C9,17.1045695 8.1045695,18 7,18 C5.8954305,18 5,17.1045695 5,16 L5,4 C5,2.8954305 5.8954305,2 7,2 Z"/>
  </g>
</svg>
