<svg xmlns="http://www.w3.org/2000/svg" width="24" height="24" viewBox="0 0 24 24">
  <g fill="none" fill-rule="evenodd">
    <path fill="#344055" d="M20,3 C20,2.44771525 20.4477153,2 21,2 C21.5522847,2 22,2.44771525 22,3 L22,21 C22,21.5522847 21.5522847,22 21,22 C20.4477153,22 20,21.5522847 20,21 L20,3 Z"/>
    <path fill="#007FFF" d="M16,15 C17.1045695,15 18,15.8954305 18,17 C18,18.1045695 17.1045695,19 16,19 L12,19 C10.8954305,19 10,18.1045695 10,17 C10,15.8954305 10.8954305,15 12,15 L16,15 Z M16,5 C17.1045695,5 18,5.8954305 18,7 C18,8.1045695 17.1045695,9 16,9 L4,9 C2.8954305,9 2,8.1045695 2,7 C2,5.8954305 2.8954305,5 4,5 L16,5 Z"/>
  </g>
</svg>
