<svg xmlns="http://www.w3.org/2000/svg" width="24" height="24" viewBox="0 0 24 24">
  <g fill="none" fill-rule="evenodd">
    <path fill="#344055" d="M3,4 C2.44771525,4 2,3.55228475 2,3 C2,2.44771525 2.44771525,2 3,2 L21,2 C21.5522847,2 22,2.44771525 22,3 C22,3.55228475 21.5522847,4 21,4 L3,4 Z"/>
    <path fill="#007FFF" d="M7,6 C8.1045695,6 9,6.8954305 9,8 L9,20 C9,21.1045695 8.1045695,22 7,22 C5.8954305,22 5,21.1045695 5,20 L5,8 C5,6.8954305 5.8954305,6 7,6 Z M17,6 C18.1045695,6 19,6.8954305 19,8 L19,12 C19,13.1045695 18.1045695,14 17,14 C15.8954305,14 15,13.1045695 15,12 L15,8 C15,6.8954305 15.8954305,6 17,6 Z"/>
  </g>
</svg>
