<svg xmlns="http://www.w3.org/2000/svg" width="24" height="24" viewBox="0 0 24 24">
  <path fill="#344055" fill-rule="evenodd" d="M19,6.40250537 L14.7071068,10.6953986 C14.3165825,11.0859229 13.6834175,11.0859229 13.2928932,10.6953986 C12.9023689,10.3048743 12.9023689,9.67170932 13.2928932,9.28118503 L17.5740782,5 L16,5 C15.4477153,5 15,4.55228475 15,4 C15,3.44771525 15.4477153,3 16,3 L20,3 C20.5522847,3 21,3.44771525 21,4 L21,8 C21,8.55228475 20.5522847,9 20,9 C19.4477153,9 19,8.55228475 19,8 L19,6.40250537 Z M7.4998,3.0002 C8.0498,3.0002 8.4998,3.4502 8.4998,4.0002 C8.4998,5.2502 8.6998,6.4502 9.0698,7.5702 C9.1798,7.9202 9.0988,8.3102 8.8198,8.5902 L6.6198,10.7902 C8.0588,13.6202 10.3798,15.9302 13.2098,17.3802 L15.4098,15.1802 C15.6018,14.9892 15.8578,14.8882 16.1158,14.8882 C16.2218,14.8882 16.3278,14.9052 16.4298,14.9402 C17.5498,15.3102 18.7598,15.5102 19.9998,15.5102 C20.5498,15.5102 20.9998,15.9602 20.9998,16.5102 L20.9998,20.0002 C20.9998,20.5502 20.5498,21.0002 19.9998,21.0002 C10.6098,21.0002 2.9998,13.3902 2.9998,4.0002 C2.9998,3.4502 3.4498,3.0002 3.9998,3.0002 L7.4998,3.0002 Z M16.3978,17.0212 L15.2048,18.2142 C16.4088,18.6212 17.6818,18.8802 18.9998,18.9672 L18.9998,17.4732 C18.1168,17.4082 17.2458,17.2572 16.3978,17.0212 Z M6.5368,5.0002 L5.0328,5.0002 C5.1208,6.3182 5.3788,7.5912 5.7858,8.7952 L6.9868,7.5942 C6.7528,6.7562 6.6018,5.8862 6.5368,5.0002 Z"/>
</svg>
