<svg xmlns="http://www.w3.org/2000/svg" width="24" height="24" viewBox="0 0 24 24">
  <path fill="#344055" fill-rule="evenodd" d="M17.29325,12.707 C16.90225,12.316 16.90225,11.684 17.29325,11.293 L19.29325,9.293 C19.48425,9.102 19.74025,9 20.00025,9 C20.12925,9 20.25925,9.024 20.38325,9.076 C20.75725,9.23 21.00025,9.596 21.00025,10 L21.00025,14 C21.00025,14.404 20.75725,14.77 20.38325,14.924 C20.00925,15.08 19.57925,14.993 19.29325,14.707 L17.29325,12.707 Z M20,7 L4,7 C3.447,7 3,6.553 3,6 C3,5.447 3.447,5 4,5 L20,5 C20.553,5 21,5.447 21,6 C21,6.553 20.553,7 20,7 Z M20,19 L4,19 C3.447,19 3,18.553 3,18 C3,17.447 3.447,17 4,17 L20,17 C20.553,17 21,17.447 21,18 C21,18.553 20.553,19 20,19 Z M12,13 L4,13 C3.447,13 3,12.553 3,12 C3,11.447 3.447,11 4,11 L12,11 C12.553,11 13,11.447 13,12 C13,12.553 12.553,13 12,13 Z"/>
</svg>
