<?xml version="1.0" encoding="UTF-8"?>
<svg width="24px" height="24px" viewBox="0 0 24 24" version="1.1" xmlns="http://www.w3.org/2000/svg" xmlns:xlink="http://www.w3.org/1999/xlink">
    <title>Icons/Page</title>
    <g id="Icons/Page" stroke="none" stroke-width="1" fill="none" fill-rule="evenodd">
        <path d="M18,4 C20.209139,4 22,5.790861 22,8 L22,15 C22,16.8635652 20.7256022,18.429479 19.0007613,18.8737865 L19,20 C19,21.1045695 18.1045695,22 17,22 L14,22 C12.8954305,22 12,21.1045695 12,20 L12,19 L6,19 C3.790861,19 2,17.209139 2,15 L2,8 C2,5.790861 3.790861,4 6,4 L18,4 Z M17,13 L14,13 L14,20 L17,20 L17,13 Z M18,6 L6,6 C4.9456382,6 4.08183488,6.81587779 4.00548574,7.85073766 L4,8 L4,15 C4,16.0543618 4.81587779,16.9181651 5.85073766,16.9945143 L6,17 L12,17 L12,13 C12,11.8954305 12.8954305,11 14,11 L17,11 C18.1045695,11 19,11.8954305 19,13 L19.0006752,16.7320449 C19.5575699,16.4096084 19.9445643,15.8262995 19.9945143,15.1492623 L20,15 L20,8 C20,6.9456382 19.1841222,6.08183488 18.1492623,6.00548574 L18,6 Z M13.7655231,8.36490303 L15.3436391,9.99943787 L14,10 C12.4023191,10 11.0963391,11.24892 11.0050927,12.8237272 L11,13 L10.9996391,13.9984379 L6.51863912,13.9994379 L6.32710329,13.8013976 C5.95315106,13.41394 5.95315106,12.7999447 6.32710329,12.412487 L9.03782349,9.60386818 C9.42136057,9.20647952 10.054426,9.19525059 10.4518146,9.57878768 L10.8276391,9.96743787 L12.351532,8.38998354 C12.7350691,7.99259487 13.3681345,7.98136595 13.7655231,8.36490303 Z" id="Combined-Shape" fill="#344055"></path>
    </g>
</svg>