<svg xmlns="http://www.w3.org/2000/svg" width="24" height="24" viewBox="0 0 24 24">
  <path fill="#344055" fill-rule="evenodd" d="M9.17070571,3 C9.58254212,1.83480763 10.6937812,1 12,1 C13.3062188,1 14.4174579,1.83480763 14.8292943,3 L17,3 C19.209139,3 21,4.790861 21,7 L21,19 C21,21.209139 19.209139,23 17,23 L7,23 C4.790861,23 3,21.209139 3,19 L3,7 C3,4.790861 4.790861,3 7,3 L9.17070571,3 L9.17070571,3 Z M12,5 C12.5522847,5 13,4.55228475 13,4 C13,3.44771525 12.5522847,3 12,3 C11.4477153,3 11,3.44771525 11,4 C11,4.55228475 11.4477153,5 12,5 Z M17,5 L17,6 C17,6.55228475 16.5522847,7 16,7 L8,7 C7.44771525,7 7,6.55228475 7,6 L7,5 C5.8954305,5 5,5.8954305 5,7 L5,19 C5,20.1045695 5.8954305,21 7,21 L17,21 C18.1045695,21 19,20.1045695 19,19 L19,7 C19,5.8954305 18.1045695,5 17,5 Z"/>
</svg>
