<svg xmlns="http://www.w3.org/2000/svg" width="24" height="24" viewBox="0 0 24 24">
  <path fill="#344055" fill-rule="evenodd" d="M12,20 C16.418278,20 20,16.418278 20,12 C20,7.581722 16.418278,4 12,4 C7.581722,4 4,7.581722 4,12 C4,16.418278 7.581722,20 12,20 Z M12,22 C6.4771525,22 2,17.5228475 2,12 C2,6.4771525 6.4771525,2 12,2 C17.5228475,2 22,6.4771525 22,12 C22,17.5228475 17.5228475,22 12,22 Z M15,15 C15,15.553 14.553,16 14,16 C13.447,16 13,15.553 13,15 L13,9 C13,8.447 13.447,8 14,8 C14.553,8 15,8.447 15,9 L15,15 Z M11,15 C11,15.553 10.553,16 10,16 C9.447,16 9,15.553 9,15 L9,9 C9,8.447 9.447,8 10,8 C10.553,8 11,8.447 11,9 L11,15 Z"/>
</svg>
