<svg xmlns="http://www.w3.org/2000/svg" width="24" height="24" viewBox="0 0 24 24">
  <path fill="#344055" fill-rule="evenodd" d="M12,2 C17.5228475,2 22,6.4771525 22,12 C22,17.5228475 17.5228475,22 12,22 C6.4771525,22 2,17.5228475 2,12 C2,6.4771525 6.4771525,2 12,2 Z M11.5914708,10 C11.0443969,10 10.5257424,10.0364431 10.1278705,10.1020408 L10.1278705,10.1020408 L10.1278705,14.9271137 C10.397855,14.9635569 10.7957269,15 11.3570105,15 C12.2948515,15 13.0621759,14.7959184 13.5666207,14.3658892 C14.0284363,13.9650146 14.3623646,13.3163265 14.3623646,12.3760933 C14.3623646,11.5087464 14.0497509,10.9037901 13.552411,10.5247813 C13.0905954,10.1676385 12.5008923,10 11.5914708,10 Z M7.4636003,10 C6.80284871,10 6.33392822,10.0437318 6,10.1020408 L6,10.1020408 L6,14.9489796 L7.07283323,14.9489796 L7.07283323,13.1924198 C7.17230121,13.2069971 7.30018862,13.2142857 7.44228573,13.2142857 C8.08172276,13.2142857 8.62879666,13.0539359 8.99824916,12.696793 C9.28244339,12.4198251 9.43875022,12.0116618 9.43875022,11.5306122 C9.43875022,11.0495627 9.2327094,10.6413994 8.9272006,10.393586 C8.60748209,10.1311953 8.13145675,10 7.4636003,10 Z M18,10.0364431 L15.0727994,10.0364431 L15.0727994,14.9489796 L16.1598423,14.9489796 L16.1598423,12.9737609 L17.8791667,12.9737609 L17.8791667,12.0699708 L16.1598423,12.0699708 L16.1598423,10.9475219 L18,10.9475219 L18,10.0364431 Z M11.7050977,10.8527697 C12.6358338,10.8527697 13.218432,11.3921283 13.2113272,12.4125364 C13.2113272,13.5860058 12.5719409,14.1399417 11.5914708,14.1326531 C11.4564785,14.1326531 11.3072766,14.1326531 11.2148627,14.1107872 L11.2148627,14.1107872 L11.2148627,10.8965015 C11.3072258,10.8746356 11.4635326,10.8527697 11.7050977,10.8527697 Z M7.52043915,10.8381924 C8.06040819,10.8381924 8.36591699,11.1078717 8.36591699,11.5597668 C8.36591699,12.0626822 8.0106742,12.361516 7.43518088,12.361516 C7.27887405,12.361516 7.16519636,12.3542274 7.07283323,12.3323615 L7.07283323,12.3323615 L7.07283323,10.8819242 C7.15098664,10.8600583 7.30018862,10.8381924 7.52043915,10.8381924 Z"/>
</svg>
