<svg xmlns="http://www.w3.org/2000/svg" width="24" height="24" viewBox="0 0 24 24">
  <path fill="#344055" fill-rule="evenodd" d="M5,13 C3.8954305,13 3,12.1045695 3,11 C3,9.8954305 3.8954305,9 5,9 C6.1045695,9 7,9.8954305 7,11 C7,12.1045695 6.1045695,13 5,13 Z M9,9 C7.8954305,9 7,8.1045695 7,7 C7,5.8954305 7.8954305,5 9,5 C10.1045695,5 11,5.8954305 11,7 C11,8.1045695 10.1045695,9 9,9 Z M15,9 C13.8954305,9 13,8.1045695 13,7 C13,5.8954305 13.8954305,5 15,5 C16.1045695,5 17,5.8954305 17,7 C17,8.1045695 16.1045695,9 15,9 Z M19,13 C17.8954305,13 17,12.1045695 17,11 C17,9.8954305 17.8954305,9 19,9 C20.1045695,9 21,9.8954305 21,11 C21,12.1045695 20.1045695,13 19,13 Z M17,19 C17,16.2385763 14.7614237,14 12,14 C9.23857625,14 7,16.2385763 7,19 C7,19.5522847 6.55228475,20 6,20 C5.44771525,20 5,19.5522847 5,19 C5,15.1340068 8.13400675,12 12,12 C15.8659932,12 19,15.1340068 19,19 C19,19.5522847 18.5522847,20 18,20 C17.4477153,20 17,19.5522847 17,19 Z"/>
</svg>
