<svg xmlns="http://www.w3.org/2000/svg" width="24" height="24" viewBox="0 0 24 24">
  <path fill="#344055" fill-rule="evenodd" d="M7.5,3 C8.05,3 8.5,3.45 8.5,4 C8.5,5.25 8.7,6.45 9.07,7.57 C9.18,7.92 9.099,8.31 8.82,8.59 L8.82,8.59 L6.62,10.79 C8.059,13.62 10.38,15.93 13.21,17.38 L13.21,17.38 L15.41,15.18 C15.602,14.989 15.858,14.888 16.116,14.888 C16.222,14.888 16.328,14.905 16.43,14.94 C17.55,15.31 18.76,15.51 20,15.51 C20.55,15.51 21,15.96 21,16.51 L21,16.51 L21,20 C21,20.55 20.55,21 20,21 C10.61,21 3,13.39 3,4 C3,3.45 3.45,3 4,3 L4,3 Z M16.398,17.021 L15.205,18.214 C16.409,18.621 17.682,18.88 19,18.967 L19,18.967 L19,17.473 C18.117,17.408 17.246,17.257 16.398,17.021 L16.398,17.021 Z M14.7153994,3.20970461 L14.8096068,3.29289322 L17.0505,5.534 L19.2928932,3.29289322 C19.6533772,2.93240926 20.2206082,2.90467972 20.6128994,3.20970461 L20.7071068,3.29289322 C21.0675907,3.65337718 21.0953203,4.22060824 20.7902954,4.61289944 L20.7071068,4.70710678 L18.4655,6.948 L20.7071068,9.19039322 C21.0675907,9.55087718 21.0953203,10.1181082 20.7902954,10.5103994 L20.7071068,10.6046068 C20.3466228,10.9650907 19.7793918,10.9928203 19.3871006,10.6877954 L19.2928932,10.6046068 L17.0505,8.363 L14.8096068,10.6046068 C14.4491228,10.9650907 13.8818918,10.9928203 13.4896006,10.6877954 L13.3953932,10.6046068 C13.0349093,10.2441228 13.0071797,9.67689176 13.3122046,9.28460056 L13.3953932,9.19039322 L15.6365,6.948 L13.3953932,4.70710678 C13.0349093,4.34662282 13.0071797,3.77939176 13.3122046,3.38710056 L13.3953932,3.29289322 C13.7558772,2.93240926 14.3231082,2.90467972 14.7153994,3.20970461 Z M6.537,5 L5.033,5 C5.121,6.318 5.379,7.591 5.786,8.795 L5.786,8.795 L6.987,7.594 C6.753,6.756 6.602,5.886 6.537,5 L6.537,5 Z"/>
</svg>
