<svg xmlns="http://www.w3.org/2000/svg" width="24" height="24" viewBox="0 0 24 24">
  <path fill="#344055" fill-rule="evenodd" d="M19.7071068,4.29289322 C20.0675907,4.65337718 20.0953203,5.22060824 19.7902954,5.61289944 L19.7071068,5.70710678 L10.1264428,15.2881996 C10.9308883,15.9919526 11.8108115,16.612142 12.7516505,17.1354943 L13.2098,17.3802 L15.4098,15.1802 C15.6018,14.9892 15.8578,14.8882 16.1158,14.8882 C16.2218,14.8882 16.3278,14.9052 16.4298,14.9402 C17.5498,15.3102 18.7598,15.5102 19.9998,15.5102 C20.5105143,15.5102 20.9350041,15.8982102 20.9930398,16.394001 L20.9998,16.5102 L20.9998,20.0002 C20.9998,20.5502 20.5498,21.0002 19.9998,21.0002 C15.6649907,21.0002 11.7095215,19.3784143 8.70695636,16.7084067 L5.70710678,19.7071068 C5.31658249,20.0976311 4.68341751,20.0976311 4.29289322,19.7071068 C3.93240926,19.3466228 3.90467972,18.7793918 4.20970461,18.3871006 L4.29289322,18.2928932 L18.2928932,4.29289322 C18.6834175,3.90236893 19.3165825,3.90236893 19.7071068,4.29289322 Z M16.3978,17.0212 L15.2048,18.2142 C16.2583,18.570325 17.3646281,18.8131375 18.5077063,18.9265594 L18.9998,18.9672 L18.9998,17.4732 C18.1168,17.4082 17.2458,17.2572 16.3978,17.0212 Z M7.4998,3.0002 C8.0498,3.0002 8.4998,3.4502 8.4998,4.0002 C8.4998,5.2502 8.6998,6.4502 9.0698,7.5702 C9.16757778,7.88131111 9.11444198,8.22402716 8.90547627,8.49299835 L8.8198,8.5902 L6.6198,10.7902 C6.89337136,11.3282173 7.1988205,11.8474405 7.53358451,12.3455333 L6.0956692,13.7849897 C4.14523869,11.018279 2.9998,7.64320014 2.9998,4.0002 C2.9998,3.48948571 3.3878102,3.06499592 3.88360102,3.0069602 L3.9998,3.0002 L7.4998,3.0002 Z M6.5368,5.0002 L5.0328,5.0002 C5.1098,6.15345 5.31695625,7.27224688 5.64020039,8.3405125 L5.7858,8.7952 L6.9868,7.5942 C6.7528,6.7562 6.6018,5.8862 6.5368,5.0002 Z"/>
</svg>
