<svg xmlns="http://www.w3.org/2000/svg" width="24" height="24" viewBox="0 0 24 24">
  <path fill="#344055" fill-rule="evenodd" d="M7.4998,3.0002 L3.9998,3.0002 C3.4498,3.0002 2.9998,3.4502 2.9998,4.0002 C2.9998,13.3902 10.6098,21.0002 19.9998,21.0002 C20.5498,21.0002 20.9998,20.5502 20.9998,20.0002 L20.9998,16.5102 C20.9998,15.9602 20.5498,15.5102 19.9998,15.5102 C18.7598,15.5102 17.5498,15.3102 16.4298,14.9402 C16.3278,14.9052 16.2218,14.8882 16.1158,14.8882 C15.8578,14.8882 15.6018,14.9892 15.4098,15.1802 L13.2098,17.3802 C10.3798,15.9302 8.0588,13.6202 6.6198,10.7902 L8.8198,8.5902 C9.0988,8.3102 9.1798,7.9202 9.0698,7.5702 C8.6998,6.4502 8.4998,5.2502 8.4998,4.0002 C8.4998,3.4502 8.0498,3.0002 7.4998,3.0002 M16.3978,17.0212 C17.2458,17.2572 18.1168,17.4082 18.9998,17.4732 L18.9998,18.9672 C17.6818,18.8802 16.4088,18.6212 15.2048,18.2142 L16.3978,17.0212 M6.5368,5.0002 C6.6018,5.8862 6.7528,6.7562 6.9868,7.5942 L5.7858,8.7952 C5.3788,7.5912 5.1208,6.3182 5.0328,5.0002 L6.5368,5.0002"/>
</svg>
