<svg xmlns="http://www.w3.org/2000/svg" width="24" height="24" viewBox="0 0 24 24">
  <path fill="#344055" fill-rule="evenodd" d="M15,3 C16.1045695,3 17,3.8954305 17,5 L18,5 C20.209139,5 22,6.790861 22,9 L22,17 C22,19.209139 20.209139,21 18,21 L6,21 C3.790861,21 2,19.209139 2,17 L2,9 C2,6.790861 3.790861,5 6,5 L7,5 L7,5 C7,3.8954305 7.8954305,3 9,3 L15,3 Z M18,7 L6,7 C4.8954305,7 4,7.8954305 4,9 L4,17 C4,18.1045695 4.8954305,19 6,19 L18,19 C19.1045695,19 20,18.1045695 20,17 L20,9 C20,7.8954305 19.1045695,7 18,7 Z M12,9 C14.209139,9 16,10.790861 16,13 C16,15.209139 14.209139,17 12,17 C9.790861,17 8,15.209139 8,13 C8,10.790861 9.790861,9 12,9 Z M12,11 C10.8954305,11 10,11.8954305 10,13 C10,14.1045695 10.8954305,15 12,15 C13.1045695,15 14,14.1045695 14,13 C14,11.8954305 13.1045695,11 12,11 Z"/>
</svg>
