<svg xmlns="http://www.w3.org/2000/svg" width="24" height="24" viewBox="0 0 24 24">
  <path fill="#344055" fill-rule="evenodd" d="M12,20 C16.418278,20 20,16.418278 20,12 C20,7.581722 16.418278,4 12,4 C7.581722,4 4,7.581722 4,12 C4,16.418278 7.581722,20 12,20 Z M12,22 C6.4771525,22 2,17.5228475 2,12 C2,6.4771525 6.4771525,2 12,2 C17.5228475,2 22,6.4771525 22,12 C22,17.5228475 17.5228475,22 12,22 Z M15.6,12.8 L11.6,15.8 C11.424,15.933 11.212,16 11,16 C10.848,16 10.695,15.965 10.553,15.895 C10.214,15.725 10,15.379 10,15 L10,9 C10,8.621 10.214,8.275 10.553,8.106 C10.891,7.936 11.297,7.973 11.6,8.2 L15.6,11.2 C15.852,11.389 16,11.685 16,12 C16,12.315 15.852,12.612 15.6,12.8"/>
</svg>
