<svg xmlns="http://www.w3.org/2000/svg" width="24" height="24" viewBox="0 0 24 24">
  <path fill="#344055" fill-rule="evenodd" d="M12,2 L18.4385029,4.14616764 C20.0346987,4.6782329 21.1272992,6.15229056 21.1721703,7.83423023 C21.2083375,9.19000617 21.1509474,10.2452628 21,11 C19.6933333,17.5333333 16.786,21.1854667 12.278,21.9564 L12,22 C7.33333333,21.3333333 4.33333333,17.6666667 3,11 C2.84905255,10.2452628 2.79166246,9.19000617 2.82782971,7.83423023 C2.87270085,6.15229056 3.96530129,4.6782329 5.56149709,4.14616764 L12,2 Z M12,4.10818511 L6.19395262,6.04353423 C5.39585505,6.30956676 4.84955398,7.04659614 4.82711846,7.88756411 C4.794595,9.10674784 4.84450659,10.0244939 4.96116135,10.6077677 C6.11347121,16.369317 8.44972454,19.3361887 12.0004422,19.974593 C13.6365934,19.6816759 15.0168403,18.8911021 16.1421554,17.5569897 L14.0310603,15.4467167 C13.4357488,15.7982756 12.741432,16 12,16 C9.790861,16 8,14.209139 8,12 C8,9.790861 9.790861,8 12,8 C14.209139,8 16,9.790861 16,12 C16,12.7418188 15.798065,13.4364732 15.4461664,14.031992 L17.2787959,15.8650703 C18.027378,14.4771555 18.6138942,12.7324898 19.0388386,10.6077677 C19.1554934,10.0244939 19.205405,9.10674784 19.1728816,7.88756767 C19.150446,7.04659614 18.604145,6.30956676 17.8060474,6.04353423 L12,4.10818511 Z M12,10 C10.8954305,10 10,10.8954305 10,12 C10,13.1045695 10.8954305,14 12,14 C13.1045695,14 14,13.1045695 14,12 C14,10.8954305 13.1045695,10 12,10 Z"/>
</svg>
