<?xml version="1.0" encoding="UTF-8"?>
<svg width="24px" height="24px" viewBox="0 0 24 24" version="1.1" xmlns="http://www.w3.org/2000/svg" xmlns:xlink="http://www.w3.org/1999/xlink">
    <title>Icons/Pop In</title>
    <g id="Icons/Pop-In" stroke="none" stroke-width="1" fill="none" fill-rule="evenodd">
        <g transform="translate(3.000000, 3.000000)" fill="#344055">
            <path d="M5,-1.0658141e-14 C5.55228475,-1.0658141e-14 6,0.44771525 6,1 C6,1.51283584 5.61395981,1.93550716 5.11662113,1.99327227 L5,2 L4,2 C2.9456382,2 2.08183488,2.81587779 2.00548574,3.85073766 L2,4 L2,14 C2,15.0543618 2.81587779,15.9181651 3.85073766,15.9945143 L4,16 L14,16 C15.0543618,16 15.9181651,15.1841222 15.9945143,14.1492623 L16,14 L16,13 L16.0067277,12.8833789 C16.0644928,12.3860402 16.4871642,12 17,12 C17.5128358,12 17.9355072,12.3860402 17.9932723,12.8833789 L18,13 L18,14 C18,16.209139 16.209139,18 14,18 L4,18 C1.790861,18 0,16.209139 0,14 L0,4 C0,1.790861 1.790861,-1.0658141e-14 4,-1.0658141e-14 L5,-1.0658141e-14 Z M16.7071068,1.29289322 C17.0675907,1.65337718 17.0953203,2.22060824 16.7902954,2.61289944 L16.7071068,2.70710678 L10.416,9 L14,9 C14.552,9 15,9.447 15,10 C15,10.553 14.552,11 14,11 L8,11 L7.9806455,10.9998139 L7.961,10.998 L7.973,10.999 L7.9806455,10.9998139 L8,11 L7.973,10.999 L7.955,10.998 L7.961,10.998 L7.942,10.997 L7.919,10.996 L7.85087651,10.988997 L7.85087651,10.988997 C7.83405099,10.9863719 7.81662474,10.9832978 7.79927424,10.9797599 C7.77703259,10.9753954 7.75532773,10.9702085 7.73391204,10.9643287 L7.68785748,10.9502619 L7.68785748,10.9502619 C7.66699596,10.94365 7.64630884,10.9361046 7.62595517,10.9279097 C7.61060789,10.9215033 7.5956499,10.9150452 7.58082489,10.9082048 C7.55662417,10.89728 7.5324762,10.8849281 7.50892297,10.8716492 C7.49941247,10.8660435 7.48982979,10.8604252 7.48032286,10.8546338 C7.45414723,10.8389605 7.42891302,10.8219698 7.40453268,10.803895 L7.38297765,10.7870723 L7.38297765,10.7870723 L7.29289322,10.7071068 C7.25749917,10.6717127 7.22531295,10.6343256 7.19633458,10.5953066 C7.17803021,10.571087 7.16103948,10.5458528 7.14520354,10.5198354 C7.1395748,10.5101702 7.13395648,10.5005875 7.12851121,10.4909336 C7.11507187,10.4675238 7.10272004,10.4433758 7.09134452,10.4186824 C7.08495482,10.4043501 7.07849669,10.3893921 7.07242086,10.374316 C7.06389537,10.3536912 7.05635001,10.333004 7.04947976,10.312009 C7.04472872,10.2968513 7.04009773,10.2814633 7.03584514,10.265993 C7.02979149,10.2446723 7.02460456,10.2229674 7.02013602,10.2009989 C7.01670217,10.1833753 7.01362808,10.165949 7.0110178,10.1484669 C7.00795518,10.1286688 7.00552499,10.1080102 7.00373193,10.0871672 C7.0021564,10.0682655 7.00109474,10.0502664 7.00051708,10.0322546 L7,4 C7,3.447 7.447,3 8,3 C8.552,3 9,3.447 9,4 L9,7.586 L15.2928932,1.29289322 C15.6834175,0.902368927 16.3165825,0.902368927 16.7071068,1.29289322 Z"></path>
        </g>
    </g>
</svg>