<svg xmlns="http://www.w3.org/2000/svg" width="24" height="24" viewBox="0 0 24 24">
  <path fill="#344055" fill-rule="evenodd" d="M8,3 C8.55228475,3 9,3.44771525 9,4 C9,4.51283584 8.61395981,4.93550716 8.11662113,4.99327227 L8,5 L7,5 C5.9456382,5 5.08183488,5.81587779 5.00548574,6.85073766 L5,7 L5,17 C5,18.0543618 5.81587779,18.9181651 6.85073766,18.9945143 L7,19 L17,19 C18.0543618,19 18.9181651,18.1841222 18.9945143,17.1492623 L19,17 L19,16 L19.0067277,15.8833789 C19.0644928,15.3860402 19.4871642,15 20,15 C20.5128358,15 20.9355072,15.3860402 20.9932723,15.8833789 L21,16 L21,17 C21,19.209139 19.209139,21 17,21 L7,21 C4.790861,21 3,19.209139 3,17 L3,7 C3,4.790861 4.790861,3 7,3 L8,3 Z M20,3 L20.081,3.003 L20.1491235,3.01100297 L20.1491235,3.01100297 C20.165949,3.01362808 20.1833753,3.01670217 20.2007258,3.02024007 C20.2229674,3.02460456 20.2446723,3.02979149 20.266088,3.0356713 L20.3121425,3.04973809 L20.3121425,3.04973809 C20.333004,3.05635001 20.3536912,3.06389537 20.3740448,3.07209027 C20.3893921,3.07849669 20.4043501,3.08495482 20.4191751,3.09179525 C20.4433758,3.10272004 20.4675238,3.11507187 20.491077,3.12835079 C20.5005875,3.13395648 20.5101702,3.1395748 20.5196771,3.14536616 C20.5458528,3.16103948 20.571087,3.17803021 20.5954673,3.19610498 L20.6170223,3.21292769 L20.6170223,3.21292769 L20.7071068,3.29289322 C20.7425008,3.32828727 20.774687,3.36567442 20.8036654,3.40469339 C20.8219698,3.42891302 20.8389605,3.45414723 20.8547965,3.48016457 C20.8604252,3.48982979 20.8660435,3.49941247 20.8714888,3.50906637 C20.8849281,3.5324762 20.89728,3.55662417 20.9086555,3.58131764 C20.9150452,3.5956499 20.9215033,3.61060789 20.9275791,3.62568399 C20.9361046,3.64630884 20.94365,3.66699596 20.9505202,3.68799096 C20.9552713,3.70314866 20.9599023,3.71853672 20.9641549,3.73400703 C20.9702085,3.75532773 20.9753954,3.77703259 20.979864,3.7990011 C20.9832978,3.81662474 20.9863719,3.83405099 20.9889822,3.85153313 C20.9920448,3.87133122 20.994475,3.89198983 20.9962681,3.9128328 C20.9978436,3.93173451 20.9989053,3.94973363 20.9994829,3.96774538 C20.9998186,3.97776097 21,3.98885897 21,4 L21,10 C21,10.553 20.553,11 20,11 C19.448,11 19,10.553 19,10 L19,6.414 L12.7071068,12.7071068 C12.3165825,13.0976311 11.6834175,13.0976311 11.2928932,12.7071068 C10.9324093,12.3466228 10.9046797,11.7793918 11.2097046,11.3871006 L11.2928932,11.2928932 L17.584,5 L14,5 C13.448,5 13,4.553 13,4 C13,3.447 13.448,3 14,3 L20,3 Z"/>
</svg>
