<svg xmlns="http://www.w3.org/2000/svg" width="24" height="24" viewBox="0 0 24 24">
  <path fill="#344055" fill-rule="evenodd" d="M16.64,17.35 C17.1596909,17.35 17.61,17.7833163 17.61,18.3 C17.61,18.8310559 17.1659192,19.25 16.64,19.25 L7.34,19.25 C6.90649409,19.25 6.57,18.9226003 6.57,18.5 C6.57,18.1588063 6.79291333,17.8698445 7.15936609,17.7574644 L8.33,17.4648059 L8.33,13.35 L7.52,13.35 C7.00023933,13.35 6.57,12.9366328 6.57,12.42 C6.57,11.9019288 7.00192881,11.47 7.52,11.47 L8.33,11.47 L8.33,9.56 C8.33,8.01156555 8.79593019,6.69051642 9.6632233,5.8232233 C10.4898457,4.99660089 11.6444724,4.55 13,4.55 C14.7861502,4.55 16.0566672,5.17778491 17.1281442,6.39537385 C17.3250575,6.62041765 17.43,6.854995 17.43,7.14 C17.43,7.71621787 16.9801519,8.15 16.4,8.15 C16.0869117,8.15 15.8537076,8.02726099 15.6321399,7.80495029 C14.8385452,6.90113406 14.1086971,6.51 12.98,6.51 C12.2412201,6.51 11.6575812,6.73447649 11.1998504,7.17364863 C10.6864731,7.7053608 10.41,8.52524654 10.41,9.56 L10.41,11.47 L15.14,11.47 C15.6580712,11.47 16.09,11.9019288 16.09,12.42 C16.09,12.9366328 15.6597607,13.35 15.14,13.35 L10.41,13.35 L10.41,17.35 L16.64,17.35 Z"/>
</svg>
