<svg xmlns="http://www.w3.org/2000/svg" width="24" height="24" viewBox="0 0 24 24">
  <path fill="#344055" fill-rule="evenodd" d="M12.0497559,7.10111002 C13.9783972,2.35612639 16.2089835,0.686784308 18.6143159,3.09211676 C20.3584766,4.83627746 19.9601627,6.48855618 17.8002767,8.00045564 L19,8 C20.6568542,8 22,9.34314575 22,11 L22,19 C22,20.6568542 20.6568542,22 19,22 L5,22 C3.34314575,22 2,20.6568542 2,19 L2,11 C2,9.34314575 3.34314575,8 5,8 L6.19670796,8.00084194 C4.0363379,6.48883763 3.63780751,4.83642601 5.38211676,3.09211676 C7.80888502,0.665348497 10.0577787,2.38620364 11.9981677,7.22870097 Z M11,16 L4,16 L4,19 C4,19.5522847 4.44771525,20 5,20 L11,20 L11,16 Z M20,16 L13,16 L13,20 L19,20 C19.5522847,20 20,19.5522847 20,19 L20,16 Z M11,10 L5,10 C4.44771525,10 4,10.4477153 4,11 L4,14 L11,14 L11,10 Z M19,10 L13,10 L13,14 L20,14 L20,11 C20,10.4477153 19.5522847,10 19,10 Z M6.79633032,4.50633032 C5.95073313,5.35192752 6.61516269,6.34326577 9.55054315,7.57722748 L10.084429,7.79442902 L9.97673856,7.52546014 L9.75897568,7.0074131 C8.57507783,4.28738485 7.61705701,3.68560363 6.79633032,4.50633032 Z M17.2001024,4.50633032 C16.3793757,3.68560363 15.4213549,4.28738485 14.237457,7.0074131 L14.237457,7.0074131 L14.0196941,7.52546014 L13.9120037,7.79442902 L14.4458896,7.57722748 C17.38127,6.34326577 18.0456996,5.35192752 17.2001024,4.50633032 Z"/>
</svg>
