<svg xmlns="http://www.w3.org/2000/svg" width="24" height="24" viewBox="0 0 24 24">
  <path fill="#344055" fill-rule="evenodd" d="M20,6 C21.1045695,6 22,6.8954305 22,8 L22,14 C22,15.1045695 21.1045695,16 20,16 L18,16 L18,19 C18,20.1045695 17.1045695,21 16,21 L8,21 C6.8954305,21 6,20.1045695 6,19 L6,16 L4,16 C2.8954305,16 2,15.1045695 2,14 L2,8 C2,6.8954305 2.8954305,6 4,6 L20,6 Z M15,14 L9,14 C8.44771525,14 8,14.4477153 8,15 L8,18 C8,18.5522847 8.44771525,19 9,19 L15,19 C15.5522847,19 16,18.5522847 16,18 L16,15 C16,14.4477153 15.5522847,14 15,14 Z M19,8 L5,8 C4.44771525,8 4,8.44771525 4,9 L4,13 C4,13.5522847 4.44771525,14 5,14 L6,14 C6,12.8954305 6.8954305,12 8,12 L16,12 C17.1045695,12 18,12.8954305 18,14 L19,14 C19.5522847,14 20,13.5522847 20,13 L20,9 C20,8.44771525 19.5522847,8 19,8 Z M18,9 C18.5522847,9 19,9.44771525 19,10 C19,10.5522847 18.5522847,11 18,11 C17.4477153,11 17,10.5522847 17,10 C17,9.44771525 17.4477153,9 18,9 Z M17,3 C17.5522847,3 18,3.44771525 18,4 C18,4.55228475 17.5522847,5 17,5 L7,5 C6.44771525,5 6,4.55228475 6,4 C6,3.44771525 6.44771525,3 7,3 L17,3 Z"/>
</svg>
