<svg xmlns="http://www.w3.org/2000/svg" width="24" height="24" viewBox="0 0 24 24">
  <path fill="#344055" fill-rule="evenodd" d="M14.5,13 C15.3284271,13 16,13.6715729 16,14.5 C16,15.3284271 15.3284271,16 14.5,16 C13.6715729,16 13,15.3284271 13,14.5 C13,13.6715729 13.6715729,13 14.5,13 Z M20.5,13 C21.3284271,13 22,13.6715729 22,14.5 C22,15.3284271 21.3284271,16 20.5,16 C19.6715729,16 19,15.3284271 19,14.5 C19,13.6715729 19.6715729,13 20.5,13 Z M20.5,19 C21.3284271,19 22,19.6715729 22,20.5 C22,21.3284271 21.3284271,22 20.5,22 C19.6715729,22 19,21.3284271 19,20.5 C19,19.6715729 19.6715729,19 20.5,19 Z M14.5,19 C15.3284271,19 16,19.6715729 16,20.5 C16,21.3284271 15.3284271,22 14.5,22 C13.6715729,22 13,21.3284271 13,20.5 C13,19.6715729 13.6715729,19 14.5,19 Z M17.5,16 C18.3284271,16 19,16.6715729 19,17.5 C19,18.3284271 18.3284271,19 17.5,19 C16.6715729,19 16,18.3284271 16,17.5 C16,16.6715729 16.6715729,16 17.5,16 Z M4,15 L4,20 L9,20 L9,15 L4,15 Z M4,13 L9,13 C10.1045695,13 11,13.8954305 11,15 L11,20 C11,21.1045695 10.1045695,22 9,22 L4,22 C2.8954305,22 2,21.1045695 2,20 L2,15 C2,13.8954305 2.8954305,13 4,13 Z M4,4 L4,9 L9,9 L9,4 L4,4 Z M4,2 L9,2 C10.1045695,2 11,2.8954305 11,4 L11,9 C11,10.1045695 10.1045695,11 9,11 L4,11 C2.8954305,11 2,10.1045695 2,9 L2,4 C2,2.8954305 2.8954305,2 4,2 Z M15,4 L15,9 L20,9 L20,4 L15,4 Z M15,2 L20,2 C21.1045695,2 22,2.8954305 22,4 L22,9 C22,10.1045695 21.1045695,11 20,11 L15,11 C13.8954305,11 13,10.1045695 13,9 L13,4 C13,2.8954305 13.8954305,2 15,2 Z"/>
</svg>
