<svg xmlns="http://www.w3.org/2000/svg" width="24" height="24" viewBox="0 0 24 24">
  <path fill="#344055" fill-rule="evenodd" d="M20.675,16.962 L21.946,20.676 C22.069,21.037 21.977,21.438 21.707,21.707 C21.517,21.897 21.261,22 21,22 C20.892,22 20.782,21.982 20.676,21.946 L16.962,20.675 C15.498,21.514 13.808,22 12,22 C6.478,22 2,17.522 2,12 C2,6.478 6.478,2 12,2 C17.522,2 22,6.478 22,12 C22,13.808 21.514,15.498 20.675,16.962 Z M17.6095674,18.7827377 L19.3930947,19.3930968 L18.4896122,16.7530227 L18.9397551,15.9675529 C19.6318233,14.7599392 20,13.4075862 20,12 C20,7.5825695 16.4174305,4 12,4 C7.5825695,4 4,7.5825695 4,12 C4,16.4174305 7.5825695,20 12,20 C13.4075862,20 14.7599392,19.6318233 15.9675529,18.9397551 L16.7530227,18.4896122 L17.6095674,18.7827377 Z M8.47822253,12.2349693 L12.0767546,6.47826123 C12.223127,6.24410374 12.5316074,6.17293987 12.7657649,6.31931228 C12.9119451,6.41068988 13.0007426,6.57092571 13.0007342,6.7433163 L13.0005267,11 L13.0005267,11 L15.0986171,11 C15.3747595,11 15.5986171,11.2238576 15.5986171,11.5 C15.5986171,11.5937224 15.5722753,11.6855579 15.5225967,11.7650307 L11.9240646,17.5217388 C11.7776922,17.7558963 11.4692118,17.8270601 11.2350543,17.6806877 C11.0888741,17.5893101 11.0000766,17.4290743 11.000085,17.2566837 L11.0002926,13 L11.0002926,13 L8.90220216,13 C8.62605979,13 8.40220216,12.7761424 8.40220216,12.5 C8.40220216,12.4062776 8.42854391,12.3144421 8.47822253,12.2349693 Z"/>
</svg>
