<svg xmlns="http://www.w3.org/2000/svg" width="24" height="24" viewBox="0 0 24 24">
  <path fill="#344055" fill-rule="evenodd" d="M19,6 C18.447,6 18,6.447 18,7 L18,8.781 C16.675,6.463 14.218,5 11.5,5 C7.364,5 4,8.364 4,12.5 C4,16.636 7.364,20 11.5,20 C12.053,20 12.5,19.553 12.5,19 C12.5,18.447 12.053,18 11.5,18 C8.468,18 6,15.532 6,12.5 C6,9.468 8.468,7 11.5,7 C13.578,7 15.447,8.17 16.384,10 L15,10 C14.447,10 14,10.447 14,11 C14,11.553 14.447,12 15,12 L19,12 C19.553,12 20,11.553 20,11 L20,7 C20,6.447 19.553,6 19,6"/>
</svg>
