<svg xmlns="http://www.w3.org/2000/svg" width="24" height="24" viewBox="0 0 24 24">
  <path fill="#344055" fill-rule="evenodd" d="M2.0038418,12.2799048 L2,12 L2.00672773,11.8833789 C2.06449284,11.3860402 2.48716416,11 3,11 C3.51283584,11 3.93550716,11.3860402 3.99327227,11.8833789 L4,12 C4,16.3349143 7.44783777,19.8645429 11.7508207,19.9961932 L12,20 C16.418278,20 20,16.418278 20,12 C20,7.581722 16.418278,4 12,4 C9.95094632,4 8.02653275,4.77268799 6.55969757,6.1344814 L6.10273402,6.58073778 L6.6761961,7.15233237 C7.10338098,7.57951726 7.10855421,8.26694759 6.68775083,8.68775098 C6.48567393,8.88982789 6.21038145,9.00213615 5.92243462,9 L3.11503368,8.97884223 C2.51541544,8.97432983 2.02567078,8.48458516 2.02115838,7.8849669 L1.99990837,5.07756588 C1.995519,4.47794761 2.4779476,3.995519 3.07756584,4 C3.36551268,4.00219833 3.64252677,4.11866295 3.84766819,4.32380437 L4.69133431,5.17049044 L4.92893219,4.92893219 C6.791544,3.06632038 9.31260853,2 12,2 C17.5228475,2 22,6.4771525 22,12 C22,17.5228475 17.5228475,22 12,22 C6.57076009,22 2.15206828,17.6733292 2.0038418,12.2799048 Z M12.6056782,7 C13.9305994,7 14.8264984,7.38674033 15.5583596,7.98066298 C15.7602524,8.14640884 15.9369085,8.45027624 15.9369085,8.82320442 C15.9369085,9.40331492 15.5078864,9.85911602 14.977918,9.85911602 C14.7129338,9.85911602 14.5362776,9.74861878 14.3974763,9.6519337 C13.8548896,9.20994475 13.2870662,8.96132597 12.5930599,8.96132597 C11.4094007,8.96132597 10.4888909,9.81673819 10.1611677,11.0002029 L13,11 C13.5522847,11 14,11.4477153 14,12 C14,12.5522847 13.5522847,13 13,13 L10.1657807,13.0011944 C10.4939411,14.178497 11.3981225,15.038674 12.5930599,15.038674 C13.3386866,15.038674 13.8548896,14.810374 14.3597163,14.4056602 L14.511041,14.2790055 C14.6624606,14.140884 14.8643533,14.0441989 15.0914826,14.0441989 C15.5835962,14.0441989 16,14.4861878 16,15.0248619 C16,15.3563536 15.8485804,15.6187845 15.6719243,15.7845304 C14.8769716,16.5441989 13.9432177,17 12.5299685,17 C10.2430427,17 8.47377726,15.3000867 8.08148836,13.0007843 L7,13 C6.44771525,13 6,12.5522847 6,12 C6,11.4477153 6.44771525,11 7,11 L8.08594922,10.9998695 C8.48402108,8.72566987 10.2305146,7 12.6056782,7 Z"/>
</svg>
