<svg xmlns="http://www.w3.org/2000/svg" width="24" height="24" viewBox="0 0 24 24">
  <path fill="#344055" fill-rule="evenodd" d="M8,17.0009 C7.744,17.0009 7.488,16.9029 7.293,16.7079 L2.293,11.7079 C1.902,11.3169 1.902,10.6849 2.293,10.2939 L7.293,5.2939 C7.684,4.9029 8.316,4.9029 8.707,5.2939 C9.098,5.6849 9.098,6.3169 8.707,6.7079 L4.414,11.0009 L8.707,15.2939 C9.098,15.6849 9.098,16.3169 8.707,16.7079 C8.512,16.9029 8.256,17.0009 8,17.0009 Z M18,10 C20.209139,10 22,11.790861 22,14 L22,18 L20,18 L20,14 C20,12.8954305 19.1045695,12 18,12 L10.414,12 L13.70725,15.29325 C14.09825,15.68425 14.09825,16.31625 13.70725,16.70725 C13.51225,16.90225 13.25625,17.00025 13.00025,17.00025 C12.74425,17.00025 12.48825,16.90225 12.29325,16.70725 L7.29325,11.70725 C6.90225,11.31625 6.90225,10.68425 7.29325,10.29325 L12.29325,5.29325 C12.68425,4.90225 13.31625,4.90225 13.70725,5.29325 C14.09825,5.68425 14.09825,6.31625 13.70725,6.70725 L10.4145,10 L18,10 Z"/>
</svg>
