<svg xmlns="http://www.w3.org/2000/svg" width="24" height="24" viewBox="0 0 24 24">
  <path fill="#344055" fill-rule="evenodd" d="M15,10 C17.209139,10 19,11.790861 19,14 L19,18 L17,18 L17,14 C17,12.8954305 16.1045695,12 15,12 L7.414,12 L10.70725,15.29325 C11.09825,15.68425 11.09825,16.31625 10.70725,16.70725 C10.51225,16.90225 10.25625,17.00025 10.00025,17.00025 C9.74425,17.00025 9.48825,16.90225 9.29325,16.70725 L4.29325,11.70725 C3.90225,11.31625 3.90225,10.68425 4.29325,10.29325 L9.29325,5.29325 C9.68425,4.90225 10.31625,4.90225 10.70725,5.29325 C11.09825,5.68425 11.09825,6.31625 10.70725,6.70725 L7.4145,10 L15,10 Z"/>
</svg>
