<svg xmlns="http://www.w3.org/2000/svg" width="24" height="24" viewBox="0 0 24 24">
  <path fill="#344055" fill-rule="evenodd" d="M5.3053267,12.7193267 C5.11706954,12.5374821 5,12.2824126 5,12 C5,11.7123962 5.12141291,11.45315 5.31577989,11.2707201 L10.29325,6.29325 C10.68425,5.90225 11.31625,5.90225 11.70725,6.29325 C12.09825,6.68425 12.09825,7.31625 11.70725,7.70725 L8.4145,11 L18,11 C18.5522847,11 19,11.4477153 19,12 C19,12.5522847 18.5522847,13 18,13 L8.414,13 L11.70725,16.29325 C12.09825,16.68425 12.09825,17.31625 11.70725,17.70725 C11.51225,17.90225 11.25625,18.00025 11.00025,18.00025 C10.74425,18.00025 10.48825,17.90225 10.29325,17.70725 L5.3053267,12.7193267 L5.3053267,12.7193267 Z" transform="matrix(-1 0 0 1 24 0)"/>
</svg>
