<?xml version="1.0" encoding="UTF-8"?>
<svg width="24px" height="24px" viewBox="0 0 24 24" version="1.1" xmlns="http://www.w3.org/2000/svg" xmlns:xlink="http://www.w3.org/1999/xlink">
    <title>Icons/RobinHQ</title>
    <g id="Icons/RobinHQ" stroke="none" stroke-width="1" fill="none" fill-rule="evenodd">
        <path d="M12,3 C12.1110357,3 12.2216487,3.00162871 12.3318111,3.00486103 L12,3 C12.1338477,3 12.2670813,3.00236668 12.3996518,3.00705609 C12.4739656,3.00968612 12.54787,3.0130349 12.6215587,3.0171019 C12.663374,3.01941132 12.7047024,3.02192428 12.7459612,3.02466254 C12.8234592,3.02980267 12.9011745,3.03577819 12.9786311,3.04254901 C13.0054815,3.04489574 13.0324564,3.04735278 13.0593993,3.04990611 C13.1266656,3.05628265 13.1934344,3.06322555 13.2599996,3.07075732 C13.3006759,3.07535844 13.3416332,3.08022389 13.3825116,3.08531173 C13.590035,3.11114766 13.7951673,3.14264948 13.9980697,3.17968014 C14.0167573,3.18309071 14.0354337,3.18654962 14.054091,3.19005532 C14.1296918,3.20426096 14.2049459,3.21922795 14.2798762,3.23495313 C14.3267178,3.24478216 14.3737215,3.25497205 14.4205945,3.26545956 C14.4670323,3.27585097 14.5130654,3.28646884 14.5589694,3.29737309 C14.6095001,3.30937506 14.6601391,3.32179105 14.7106165,3.33455467 C14.7734587,3.35044692 14.8357237,3.36678911 14.8977343,3.3836587 C14.925959,3.39133684 14.9541965,3.39914266 14.9823805,3.4070577 C15.0607523,3.42906618 15.1388331,3.45195682 15.2164852,3.47568277 C15.2612897,3.48937531 15.3053413,3.50315073 15.3492515,3.51719449 C15.4254482,3.54155964 15.5017794,3.56692593 15.5776659,3.59310054 C15.5872681,3.59641278 15.5966107,3.59965007 15.6059465,3.6028996 C15.6842222,3.63014326 15.7622391,3.65832934 15.8397626,3.68736825 C15.8834207,3.7037207 15.9271327,3.72042563 15.970684,3.7374013 C16.0047667,3.75068726 16.0384896,3.764034 16.0721145,3.77754291 C16.1281402,3.80004992 16.1841263,3.82310524 16.239832,3.84660937 C16.502998,3.95765311 16.7597571,4.07863478 17.009662,4.20907651 C17.0425591,4.22624937 17.0749599,4.24338393 17.1072433,4.26067745 C17.1548904,4.28619899 17.202566,4.31222495 17.2499786,4.33859744 C17.3007139,4.36681899 17.351038,4.39537375 17.4010568,4.42431879 C17.4237896,4.43747365 17.4465222,4.45074617 17.4691909,4.46409931 C17.5212879,4.49478669 17.5731345,4.52595331 17.6246362,4.55754162 C17.6574012,4.5776406 17.6895056,4.59758249 17.7214733,4.61768829 C17.8906782,4.7240931 18.0565764,4.83546261 18.2183965,4.95125063 C18.2474273,4.97202303 18.2763608,4.99296251 18.3051615,5.01404336 C18.3389719,5.03879099 18.3726182,5.06374776 18.4060791,5.08889767 C18.4486303,5.12088275 18.4905682,5.15293664 18.5322065,5.18529441 C18.573551,5.21742151 18.6148789,5.25007211 18.655903,5.2830226 C18.7982051,5.39732942 18.9365439,5.51496748 19.0710678,5.63603897 L19.2870047,5.83646771 C19.2954884,5.84458893 19.3039555,5.85272434 19.312406,5.86087389 C19.3691054,5.91556733 19.4242398,5.9700701 19.4786336,6.02517821 C19.4990842,6.04589666 19.5195354,6.06680939 19.5398801,6.08780789 C19.5833834,6.13270917 19.6264035,6.17800677 19.6689289,6.22368998 C19.6926919,6.24922171 19.7157776,6.27429956 19.7387145,6.29949144 C19.9275512,6.5068605 20.1067453,6.72254642 20.2751176,6.94538889 C20.278497,6.94986118 20.282057,6.95458224 20.2856122,6.95930649 C21.3681437,8.39822301 22,10.1327014 22,12 C22,16.9705627 17.5228475,21 12,21 C6.4771525,21 2,16.9705627 2,12 C2,10.3745688 2.4787711,8.84977838 3.31631704,7.53362522 C3.31690626,7.53311361 3.31694586,7.53243731 3.3169855,7.53176093 C3.38520779,7.42464905 3.45580551,7.31891986 3.52871399,7.21463159 C3.56351223,7.16548325 3.5986873,7.11622161 3.63437807,7.06729194 C3.64941439,7.04610359 3.66490326,7.02506863 3.68048739,7.00409589 C3.71196613,6.9622747 3.74346661,6.9206305 3.77534293,6.87923852 C3.80904411,6.83498368 3.84357579,6.79100075 3.87853178,6.74731126 C3.90046854,6.72034369 3.92206618,6.69365534 3.9438223,6.66707853 C3.97128557,6.63310914 3.99946552,6.59919335 4.02790358,6.56546357 C4.07137997,6.51427956 4.11515277,6.46348577 4.1595118,6.41312927 C4.2250064,6.3384536 4.2917887,6.26506637 4.35981829,6.1926592 C4.36993807,6.18217387 4.37993418,6.17158195 4.38995699,6.16101117 L4.40192772,6.14813258 C4.43365457,6.11480322 4.46564735,6.08168503 4.4979031,6.04878068 C4.52002265,6.02646489 4.54220737,6.00405499 4.56451427,5.981746 L4.60937806,5.93694798 C4.64356696,5.90321649 4.67803701,5.86971989 4.71278487,5.83646119 C4.72988137,5.82030261 4.74693006,5.80410226 4.76404477,5.78795911 C4.80766642,5.74662393 4.85165584,5.70591376 4.89606619,5.66557976 C4.92882909,5.63599792 4.96143262,5.60678834 4.99425756,5.57778101 C5.02289331,5.55231744 5.05193234,5.52696592 5.08114081,5.50177232 C5.11393313,5.47363254 5.14680947,5.44565223 5.17989549,5.4178716 C5.3309172,5.29095078 5.48626494,5.16835419 5.64575106,5.05011739 C5.67159892,5.03103995 5.69772267,5.01186751 5.72395562,4.99281196 C5.84992662,4.90123675 5.97832772,4.81249512 6.109134,4.72654208 C6.12774422,4.71436779 6.1467306,4.7019813 6.16576708,4.68965355 C6.21483198,4.65783209 6.26383224,4.62670196 6.31315439,4.59596071 C6.34980577,4.57315855 6.38711487,4.55023429 6.42460413,4.52753251 C6.47071071,4.49957532 6.51677527,4.47217956 6.56310428,4.44511958 C6.58757706,4.43086025 6.61217122,4.41663149 6.63683886,4.40249737 C6.74341145,4.34140577 6.85121724,4.28218608 6.96033975,4.22477381 C7.16492751,4.11714809 7.37432087,4.01577476 7.58801729,3.92106692 C7.60782814,3.91227574 7.62780192,3.90349816 7.64781287,3.89477883 C7.6950127,3.8742228 7.74233786,3.85401459 7.78986562,3.83413259 C7.84868042,3.80952128 7.90776624,3.78543365 7.96715508,3.76185093 C8.22538029,3.65931465 8.48940063,3.56629747 8.75860182,3.48332789 C8.78777844,3.47433258 8.81738246,3.46534761 8.84704812,3.45648429 C8.91185447,3.43712578 8.97657388,3.41845241 9.04157666,3.4003596 C9.0563243,3.39625327 9.07142094,3.3920863 9.08653273,3.38795066 L9.25419647,3.34351499 C9.28239379,3.33628405 9.31064194,3.32916169 9.33894035,3.32214845 C9.37145913,3.3140907 9.40347909,3.30631203 9.43556226,3.29867326 C9.52025566,3.27850392 9.60594417,3.25919127 9.69206291,3.24088074 C9.69981214,3.23923309 9.70748941,3.2376095 9.71517008,3.23599387 C10.0189985,3.17208184 10.3282163,3.12062932 10.6420614,3.08228127 C10.6781872,3.07786809 10.7141121,3.07365788 10.7500963,3.06961975 C10.8165724,3.06215923 10.8833371,3.05527794 10.9502983,3.04899138 C10.9819244,3.04602124 11.0139453,3.0431538 11.0460103,3.04042262 C11.1136005,3.03466808 11.180966,3.0295472 11.2485182,3.02503031 C11.3016292,3.02147833 11.3550065,3.01829176 11.4084967,3.01548359 C11.4370636,3.01398382 11.4656718,3.01259158 11.4943118,3.01130779 C11.5631417,3.00822251 11.632147,3.00576377 11.7013285,3.00393742 C11.8004781,3.00131925 11.9000679,3 12,3 Z M12,9.5 C7.08064516,6.05645161 4.09729448,9.38891779 4.00233712,11.8782854 L4,12 L4,12 C4,15.816263 7.53748555,19 12,19 C16.4625144,19 20,15.816263 20,12 C20,9.5 17,6 12,9.5 Z M12.4890417,13.2741862 L15.2246554,14.8079359 C15.4655235,14.942981 15.5513099,15.2477188 15.4162648,15.4885869 C15.3714819,15.5684622 15.3056233,15.6345051 15.2258735,15.6795111 L12.4914779,17.2226394 C12.1864372,17.3947861 11.8135628,17.3947861 11.5085221,17.2226394 L8.77412646,15.6795111 C8.53363682,15.5437932 8.44870253,15.2388167 8.58442041,14.9983271 C8.6294264,14.9185773 8.6954693,14.8527187 8.77534459,14.8079359 L11.5109583,13.2741862 C11.8147421,13.1038667 12.1852579,13.1038667 12.4890417,13.2741862 Z M8.5,10 C9.01283584,10 9.43550716,10.3860402 9.49327227,10.8833789 L9.5,11 L9.5,12 C9.5,12.5522847 9.05228475,13 8.5,13 C7.98716416,13 7.56449284,12.6139598 7.50672773,12.1166211 L7.5,12 L7.5,11 C7.5,10.4477153 7.94771525,10 8.5,10 Z M15.5,10 C16.0128358,10 16.4355072,10.3860402 16.4932723,10.8833789 L16.5,11 L16.5,12 C16.5,12.5522847 16.0522847,13 15.5,13 C14.9871642,13 14.5644928,12.6139598 14.5067277,12.1166211 L14.5,12 L14.5,11 C14.5,10.4477153 14.9477153,10 15.5,10 Z" id="🎨-Icon-Colour" fill="#344055"></path>
    </g>
</svg>