<svg xmlns="http://www.w3.org/2000/svg" width="24" height="24" viewBox="0 0 24 24">
  <path fill="#344055" fill-rule="evenodd" d="M10.7071068,20.7071068 C10.3165825,21.0976311 9.68341751,21.0976311 9.29289322,20.7071068 C8.90236893,20.3165825 8.90236893,19.6834175 9.29289322,19.2928932 L19.2928932,9.29289322 C19.6834175,8.90236893 20.3165825,8.90236893 20.7071068,9.29289322 C21.0976311,9.68341751 21.0976311,10.3165825 20.7071068,10.7071068 L10.7071068,20.7071068 Z M16.7071068,20.7071068 C16.3165825,21.0976311 15.6834175,21.0976311 15.2928932,20.7071068 C14.9023689,20.3165825 14.9023689,19.6834175 15.2928932,19.2928932 L19.2928932,15.2928932 C19.6834175,14.9023689 20.3165825,14.9023689 20.7071068,15.2928932 C21.0976311,15.6834175 21.0976311,16.3165825 20.7071068,16.7071068 L16.7071068,20.7071068 Z"/>
</svg>
