<svg xmlns="http://www.w3.org/2000/svg" width="24" height="24" viewBox="0 0 24 24">
  <path fill="#344055" fill-rule="evenodd" d="M11.618,8.077 C11.862,7.976 12.138,7.976 12.382,8.077 C12.505,8.128 12.615,8.201 12.707,8.294 L12.707,8.294 L16.707,12.293 C17.098,12.684 17.098,13.316 16.707,13.707 C16.512,13.902 16.256,14 16,14 C15.744,14 15.488,13.902 15.293,13.707 L15.293,13.707 L13,11.414 L13,21 C13,21.553 12.552,22 12,22 C11.448,22 11,21.553 11,21 L11,21 L11,11.414 L8.707,13.707 C8.316,14.098 7.684,14.098 7.293,13.707 C6.902,13.316 6.902,12.684 7.293,12.293 L7.293,12.293 L11.292,8.294 C11.385,8.201 11.495,8.128 11.618,8.077 Z M19,4 C21.209139,4 23,5.790861 23,8 L23,16 C23,18.209139 21.209139,20 19,20 L15,20 L15,18 L19,18 C20.1045695,18 21,17.1045695 21,16 L21,8 C21,6.8954305 20.1045695,6 19,6 L5,6 C3.8954305,6 3,6.8954305 3,8 L3,16 C3,17.1045695 3.8954305,18 5,18 L9,18 L9,20 L5,20 C2.790861,20 1,18.209139 1,16 L1,8 C1,5.790861 2.790861,4 5,4 L19,4 Z"/>
</svg>
