<svg xmlns="http://www.w3.org/2000/svg" width="24" height="24" viewBox="0 0 24 24">
  <path fill="#344055" fill-rule="evenodd" d="M12,2 L18.4385029,4.14616764 C20.0346987,4.6782329 21.1272992,6.15229056 21.1721703,7.83423023 C21.2083375,9.19000617 21.1509474,10.2452628 21,11 C19.6933333,17.5333333 16.786,21.1854667 12.278,21.9564 L12,22 C7.33333333,21.3333333 4.33333333,17.6666667 3,11 C2.84905255,10.2452628 2.79166246,9.19000617 2.82782971,7.83423023 C2.87270085,6.15229056 3.96530129,4.6782329 5.56149709,4.14616764 L12,2 Z M12.0004422,19.974593 C15.2454669,19.3936423 17.4838689,16.8551139 18.7232359,12.0010553 L12,12 L12.0004422,19.974593 L12.0004422,19.974593 Z M12,4.10818511 L6.19395262,6.04353423 C5.39585505,6.30956676 4.84955398,7.04659614 4.82711846,7.88756411 C4.794595,9.10674784 4.84450659,10.0244939 4.96116135,10.6077677 C5.0579784,11.091853 5.16315332,11.5562096 5.27670423,12.0011141 L12,12 L12,4.10818511 Z"/>
</svg>
