<svg xmlns="http://www.w3.org/2000/svg" width="24" height="24" viewBox="0 0 24 24">
  <path fill="#344055" fill-rule="evenodd" d="M12,2 C17.5228475,2 22,6.4771525 22,12 C22,17.5228475 17.5228475,22 12,22 C6.4771525,22 2,17.5228475 2,12 C2,9.23857625 3.11928813,6.73857625 4.92893219,4.92893219 L4.92893219,4.92893219 L4.98616986,4.87215128 C5.02017878,4.838683 5.05442611,4.80545627 5.08890907,4.77247385 L4.92893219,4.92893219 C5.01419671,4.84366766 5.10099382,4.75993572 5.18927864,4.67778123 C5.40938642,4.47294609 5.63896015,4.27774724 5.87710161,4.09306897 C5.89833098,4.07660579 5.91959138,4.06025448 5.94091914,4.04398698 C5.98432116,4.01088317 6.02793379,3.97817682 6.07182037,3.94582058 C6.11268595,3.91569407 6.15347265,3.88609708 6.19448999,3.85680227 C6.2370159,3.82642532 6.28039207,3.79595716 6.32401941,3.76582677 C6.35760427,3.74263347 6.39109826,3.71980159 6.42473731,3.69716874 C6.58925414,3.58648244 6.75713015,3.48062159 6.92827405,3.37971207 C6.95770501,3.36236049 6.98691678,3.34533722 7.01622215,3.32845823 C7.06344164,3.3012597 7.11112234,3.27431484 7.15904421,3.24775213 C7.20014697,3.22496873 7.24150247,3.2024261 7.28303343,3.18016824 C7.33691283,3.151294 7.39088369,3.12300352 7.445142,3.09519437 C7.48062596,3.07700681 7.51640439,3.0589398 7.55230535,3.04108223 C7.72635597,2.9545106 7.90314839,2.87292056 8.08263437,2.79642747 C8.10956128,2.78495094 8.13679442,2.77348701 8.16408867,2.76214053 C8.23766672,2.73155711 8.31129066,2.70198152 8.38534169,2.67326242 C8.40291425,2.66644642 8.42090217,2.65952946 8.43891504,2.65266308 C8.50616592,2.62702984 8.57348111,2.60220261 8.64113238,2.57808333 C8.67722893,2.56521306 8.71365158,2.55246518 8.75016976,2.5399228 C8.83124508,2.51208025 8.91245126,2.48535762 8.99410942,2.45965442 C9.00648861,2.45575788 9.01887752,2.45188497 9.03127676,2.44803554 C9.12702382,2.4183093 9.22346909,2.38996029 9.32050763,2.36303762 C9.34533868,2.35614826 9.37026548,2.34933699 9.39523091,2.34261994 C9.47696761,2.32062936 9.55900615,2.29967593 9.64144339,2.27974395 C9.65700317,2.27598112 9.67299624,2.27215551 9.68900419,2.26836839 C9.77090711,2.2489953 9.85282126,2.23070881 9.93510763,2.21343392 C9.96528529,2.20709922 9.99530186,2.20094286 10.0253671,2.19492132 C10.0841042,2.18315519 10.1433708,2.17184127 10.2028205,2.16105293 C10.2507165,2.15236124 10.2987311,2.14401072 10.346862,2.13600396 C10.4437418,2.11988999 10.5408543,2.1052012 10.6384144,2.09191945 C10.6476779,2.09065796 10.6573276,2.08935822 10.6669817,2.08807226 C10.757494,2.07601851 10.8480782,2.06520828 10.9390259,2.05561718 C10.9778977,2.05151907 11.0165283,2.04767248 11.0552229,2.04404638 C11.1236709,2.03762966 11.1926677,2.03187739 11.26186,2.02682914 C11.2951135,2.02440397 11.3281077,2.02216061 11.3611454,2.02007767 C11.4326678,2.01556649 11.5046601,2.01179607 11.5768501,2.00879096 C11.6033637,2.0076876 11.6297762,2.00669178 11.6562146,2.0057986 L11.6829829,2.00492963 C11.7882534,2.00165131 11.8939339,2 12,2 Z M12,4 L12,12 L6.34314575,6.34314575 C4.8954305,7.790861 4,9.790861 4,12 C4,16.418278 7.581722,20 12,20 C16.418278,20 20,16.418278 20,12 C20,7.581722 16.418278,4 12,4 Z"/>
</svg>
