<svg xmlns="http://www.w3.org/2000/svg" width="24" height="24" viewBox="0 0 24 24">
  <path fill="#344055" fill-rule="evenodd" d="M17.6464952,4.35350476 C17.144351,4.12641568 16.5869385,4 16,4 L8,4 C5.790861,4 4,5.790861 4,8 L4,16 C4,16.5869385 4.12641568,17.144351 4.35350476,17.6464952 C2.96566139,17.0188587 2,15.6222005 2,14 L2,6 C2,3.790861 3.790861,2 6,2 L14,2 C15.6222005,2 17.0188587,2.96566139 17.6464952,4.35350476 L17.6464952,4.35350476 Z M10,6 L18,6 C20.209139,6 22,7.790861 22,10 L22,18 C22,20.209139 20.209139,22 18,22 L10,22 C7.790861,22 6,20.209139 6,18 L6,10 C6,7.790861 7.790861,6 10,6 Z M10,8 C8.8954305,8 8,8.8954305 8,10 L8,18 C8,19.1045695 8.8954305,20 10,20 L18,20 C19.1045695,20 20,19.1045695 20,18 L20,10 C20,8.8954305 19.1045695,8 18,8 L10,8 Z"/>
</svg>
