<svg xmlns="http://www.w3.org/2000/svg" width="24" height="24" viewBox="0 0 24 24">
  <path fill="#344055" fill-rule="evenodd" d="M18,6 C20.209139,6 22,7.790861 22,10 L22,18 C22,20.209139 20.209139,22 18,22 L10,22 C7.790861,22 6,20.209139 6,18 L6,10 C6,7.790861 7.790861,6 10,6 L18,6 Z M18.5027803,10.0737759 L12.2490567,17.1083578 L9.46333832,14.3226393 C9.12819496,13.9883531 8.58647987,13.9883531 8.25133652,14.3226393 C7.91619316,14.6577827 7.91619316,15.2003549 8.25133652,15.5346411 L11.679913,18.9632177 C11.840199,19.1243608 12.0587708,19.2143609 12.2859139,19.2143609 L12.3107711,19.2143609 C12.5473429,19.2075037 12.7693432,19.1037893 12.9262006,18.9272176 L19.7833537,11.2129204 C20.0979256,10.8589199 20.0662112,10.3172048 19.7122107,10.0026329 C19.3582102,9.68806101 18.8164951,9.7189182 18.5027803,10.0737759 Z M14,2 C15.6222005,2 17.0188587,2.96566139 17.6464952,4.35350476 C17.144351,4.12641568 16.5869385,4 16,4 L8,4 C5.790861,4 4,5.790861 4,8 L4,16 C4,16.5869385 4.12641568,17.144351 4.35350476,17.6464952 C2.96566139,17.0188587 2,15.6222005 2,14 L2,6 C2,3.790861 3.790861,2 6,2 L14,2 Z"/>
</svg>
