<svg xmlns="http://www.w3.org/2000/svg" width="24" height="24" viewBox="0 0 24 24">
  <g fill="none" fill-rule="evenodd">
    <path fill="#3C4859" d="M12,22 C6.4771525,22 2,17.5228475 2,12 C2,6.4771525 6.4771525,2 12,2 C17.5228475,2 22,6.4771525 22,12 C22,17.5228475 17.5228475,22 12,22 Z"/>
    <path fill="#FFF" d="M11.9529445,7.33333333 C11.6775577,7.14508249 11.3165824,6.9261662 10.8601126,6.68940309 C9.2632276,5.86112606 6.80342162,4.96841881 3.50105453,4.02712782 C4.12324596,5.26728126 4.50179964,6.36194886 4.62063563,7.33333333 L11.9529445,7.33333333 L11.9529445,7.33333333 Z M11.8838733,8.66666667 L4.59369219,8.66666667 C4.43845596,9.52288878 4.01629042,10.6003876 3.33439729,11.9732172 C6.69352196,11.0222345 9.19600256,10.1204755 10.8214622,9.28364043 C11.2583731,9.05870569 11.6097871,8.84944256 11.8838733,8.66666667 L11.8838733,8.66666667 Z M2.313296,4.64648987 C2.16057203,4.34208009 2.12591131,3.99019433 2.21621586,3.66090394 C2.41460871,2.93747573 3.1506796,2.51498539 3.86027631,2.71724495 C10.6200921,4.64403004 14,6.39713066 14,7.97654682 C14,9.56906411 10.5637874,11.3381288 3.69136223,13.2837409 C3.37078436,13.3744979 3.02851187,13.3398605 2.73169055,13.1866239 C2.07435612,12.8472692 1.81132282,12.0289061 2.14419052,11.3587594 C2.93280705,9.77106757 3.32711532,8.64366338 3.32711532,7.97654682 C3.32711532,7.10367358 2.98917555,5.99365459 2.313296,4.64648987 Z" transform="translate(4 4)"/>
  </g>
</svg>
