<svg xmlns="http://www.w3.org/2000/svg" width="24" height="24" viewBox="0 0 24 24">
  <path fill="#344055" fill-rule="evenodd" d="M17.9294167,11 C17.5163365,10.7176237 16.9748736,10.3892493 16.2901689,10.0341046 C13.8948414,8.79168909 10.2051324,7.45262822 5.2515818,6.04069173 C6.18486895,7.90092189 6.75269946,9.54292329 6.93095345,11 L17.9294167,11 L17.9294167,11 Z M17.8258099,13 L6.89053829,13 C6.65768394,14.2843332 6.02443562,15.9005813 5.00159593,17.9598258 C10.0402829,16.5333518 13.7940038,15.1807133 16.2321933,13.9254606 C16.8875596,13.5880585 17.4146806,13.2741638 17.8258099,13 L17.8258099,13 Z M3.469944,6.96973481 C3.24085804,6.51312013 3.18886696,5.9852915 3.32432379,5.49135591 C3.62191307,4.40621359 4.7260194,3.77247809 5.79041446,4.07586742 C15.9301382,6.96604506 21,9.59569599 21,11.9648202 C21,14.3535962 15.8456811,17.0071932 5.53704335,19.9256114 C5.05617654,20.0617468 4.54276781,20.0097908 4.09753583,19.7799358 C3.11153419,19.2709038 2.71698422,18.0433591 3.21628579,17.0381391 C4.39921058,14.6566014 4.99067298,12.9654951 4.99067298,11.9648202 C4.99067298,10.6555104 4.48376332,8.99048189 3.469944,6.96973481 Z"/>
</svg>
