<svg xmlns="http://www.w3.org/2000/svg" width="24" height="24" viewBox="0 0 24 24">
  <path fill="#344055" fill-rule="evenodd" d="M13.2192236,3 C13.6780912,3 14.0780743,3.31229737 14.1893661,3.75746437 L14.628102,5.51008394 L14.6809812,5.53177194 L14.7310686,5.55278537 L14.7641573,5.567 L14.7291573,5.552 L14.7809578,5.57417507 L14.8995577,5.62689146 C14.9402191,5.64542136 14.9806055,5.66429702 15.0207798,5.68354467 L15.0755852,5.71009758 L15.1597005,5.75280148 C15.167969,5.75697384 15.1762309,5.76116342 15.1844851,5.76536971 C15.2021171,5.77435571 15.2194813,5.78329677 15.2368108,5.79231193 C15.2877697,5.81881953 15.3386349,5.84608119 15.389185,5.87398514 C15.4131497,5.88721395 15.4370125,5.90056945 15.4608032,5.91406855 L15.4864563,5.92866085 C15.5043937,5.93898374 15.5222824,5.94938446 15.5401205,5.95986195 L15.575476,5.98076844 L15.6411573,6.02 L15.6619852,6.03270722 C15.6891685,6.04935574 15.7162477,6.06619646 15.7432211,6.08322899 L15.7578078,6.09312154 C15.7740823,6.10349583 15.7905075,6.11406308 15.8068855,6.12469695 L15.8594376,6.15823626 C15.8926641,6.18014662 15.9262067,6.20268571 15.9595713,6.22552942 C15.996577,6.25086839 16.033117,6.27640622 16.0694348,6.30231214 C16.1047691,6.32751707 16.1398336,6.35302628 16.174683,6.37888124 C16.2035029,6.40026101 16.2324074,6.42205487 16.2611592,6.44408818 C16.2765454,6.45588077 16.2914842,6.46742738 16.3063812,6.47903887 L18.0435622,5.98268553 C18.484734,5.85648351 18.955183,6.04673036 19.1846168,6.4441214 L20.4038404,8.5558786 C20.6332743,8.95326964 20.5628083,9.45581386 20.2329283,9.77477884 L18.9344832,11.0310451 L18.9361573,11.046 L18.9411573,11.087 L18.9441573,11.105 L18.9531573,11.177 L18.9690527,11.3245363 C18.9733361,11.3690151 18.9771825,11.4134286 18.9806007,11.4578444 C18.9847374,11.5236593 18.9885296,11.5820603 18.9915907,11.6405298 C18.9926247,11.6602926 18.9935636,11.6798009 18.994421,11.6993163 C18.9969441,11.7567018 18.9987675,11.8143832 18.999877,11.8721129 C19.0004029,11.8994813 19.000768,11.9268248 19.0009728,11.9541777 L19.0011651,12.0006989 L19.0011055,12.0232339 L18.9998777,12.1278514 L18.9981573,12.175 L18.9976779,12.2144393 C18.9967666,12.2432827 18.9956774,12.272108 18.9944107,12.3009178 L18.9930725,12.3299806 L18.9888346,12.4214891 L18.9806239,12.5418541 L18.9690598,12.67539 C18.9648989,12.7185929 18.9603395,12.7617142 18.9553731,12.8048221 L18.9421404,12.9123162 C18.9396208,12.9315373 18.9370906,12.9502481 18.9344832,12.9689549 L20.2329283,14.2252212 C20.5628083,14.5441861 20.6332743,15.0467304 20.4038404,15.4441214 L19.1846168,17.5558786 C18.955183,17.9532696 18.484734,18.1435165 18.0435622,18.0173145 L16.3063812,17.5209611 L16.2921573,17.531 L16.2611592,17.5559118 L16.2271573,17.579 L16.2179174,17.5887821 L16.1881573,17.61 L16.0694951,17.6976449 C16.033117,17.7235938 15.996577,17.7491316 15.9598209,17.7742997 C15.9262067,17.7973143 15.8926641,17.8198534 15.858948,17.8420866 L15.815065,17.8699842 L15.8071057,17.8751601 C15.7905075,17.8859369 15.7740823,17.8965042 15.7576102,17.9070044 L15.7061573,17.938 L15.6619302,17.9673296 L15.6420951,17.9794316 C15.6313861,17.9856071 15.6210478,17.9918805 15.610692,17.9981277 L15.5401697,18.0401092 C15.472993,18.0795664 15.4051499,18.1179077 15.3366157,18.1551378 C15.227392,18.2142887 15.1249316,18.2665502 15.0210526,18.3163246 C14.9806055,18.335703 14.9402191,18.3545786 14.899625,18.3730779 L14.7809578,18.4258249 L14.7551573,18.435 L14.7310686,18.4472146 C14.7144057,18.4542819 14.6977098,18.4612865 14.6809812,18.4682281 L14.628102,18.4899161 L14.1893661,20.2425356 C14.0873487,20.6506054 13.7427503,20.9470277 13.3325808,20.9935976 L13.2192236,21 L10.7807764,21 C10.3601477,21 9.98899843,20.7375835 9.84433826,20.3509554 L9.81063391,20.2425356 L9.371898,18.4899161 C9.35439369,18.4828207 9.3369246,18.4756566 9.31949106,18.468424 C9.28556153,18.4543449 9.2522352,18.4402098 9.21904222,18.4258249 L9.10044231,18.3731085 C9.05978087,18.3545786 9.01939446,18.335703 8.97922021,18.3164553 C8.91965627,18.2879148 8.86064552,18.2586036 8.80215138,18.2285117 L8.81551494,18.2346303 C8.79788287,18.2256443 8.78051874,18.2167032 8.7631892,18.2076881 L8.68684882,18.1673751 L8.66415732,18.155 L8.60515732,18.123 L8.57494068,18.1060745 L8.56213677,18.0990222 L8.48115732,18.052 L8.43803073,18.0274056 L8.33780213,17.9671628 C8.23196415,17.9021478 8.13547412,17.8395453 8.04042869,17.7744706 C8.00342304,17.7491316 7.96688303,17.7235938 7.93056519,17.6976879 L7.81415732,17.612 L7.82555127,17.6212925 C7.79649715,17.599739 7.76759257,17.5779451 7.73884076,17.5559118 L7.70715732,17.531 L7.69361883,17.5209611 L5.9564378,18.0173145 C5.55537252,18.1320436 5.13011121,17.9852447 4.88372853,17.65904 L4.81538316,17.5558786 L3.59615957,15.4441214 C3.38758337,15.0828568 3.42685818,14.6346888 3.6835666,14.3165462 L3.76707171,14.2252212 L5.06551683,12.9689549 L5.05792603,12.9128232 C5.0531541,12.8763998 5.04873235,12.8404708 5.04459348,12.8045324 C5.03966048,12.7617142 5.03510111,12.7185929 5.03094726,12.6754637 C5.0266639,12.6309849 5.0228175,12.5865714 5.01939933,12.5421556 C5.01054253,12.427005 5.00457214,12.3121409 5.00143673,12.1973672 L5.00120391,12.1756472 L5.00012301,12.1278871 C4.99959715,12.1005187 4.99923197,12.0731752 4.99902718,12.0458223 C4.99844455,11.9679169 4.9991615,11.8899925 5.00118647,11.812025 C5.00457214,11.6878591 5.01054253,11.572995 5.01937613,11.4581459 C5.0228175,11.4134286 5.0266639,11.3690151 5.03094016,11.32461 L5.04459348,11.1954676 L5.04515732,11.182 L5.04615732,11.177 L5.05101406,11.1415675 L5.05115732,11.141 L5.05715732,11.087 L5.06551683,11.0310451 L3.76707171,9.77477884 C3.46718075,9.48481068 3.38168165,9.04312413 3.54099182,8.66664815 L3.59615957,8.5558786 L4.81538316,6.4441214 C5.02395936,6.08285682 5.43172167,5.89278579 5.83559541,5.95603052 L5.9564378,5.98268553 L7.69361883,6.47903887 C7.70851576,6.46742738 7.72345462,6.45588077 7.73843497,6.44439917 C7.76759257,6.42205487 7.79649715,6.40026101 7.82555127,6.37870745 C7.86016635,6.35302628 7.89523086,6.32751707 7.93050495,6.30235511 C7.96688303,6.27640622 8.00342304,6.25086839 8.04017912,6.2257003 C8.13547412,6.16045475 8.23196415,6.09785219 8.3297934,6.03774999 L8.38429851,6.00489717 L8.38930801,6.00187227 L8.45983034,5.95989083 L8.51526095,5.92771296 C8.52322363,5.92315278 8.53118141,5.91861668 8.53914726,5.91409669 C8.56298755,5.90056945 8.58685031,5.88721395 8.6107837,5.87400242 L8.61215732,5.873 L8.66316548,5.84498137 C8.69954949,5.82521461 8.73612658,5.80576202 8.77289405,5.78662667 L8.78923537,5.77883127 L8.80100798,5.77207594 L8.87060298,5.73674715 C8.90619117,5.71892733 8.9424819,5.70114811 8.97894744,5.68367537 C9.01939446,5.66429702 9.05978087,5.64542136 9.10037498,5.62692214 C9.13987025,5.60892418 9.17949413,5.59131203 9.21930985,5.5740591 C9.2522352,5.55979025 9.28556153,5.54565508 9.31901884,5.53177194 C9.3369246,5.52434345 9.35439369,5.51717932 9.371898,5.51008394 L9.81063391,3.75746437 C9.92192566,3.31229737 10.3219088,3 10.7807764,3 L13.2192236,3 Z M12,8 C9.790861,8 8,9.790861 8,12 C8,14.209139 9.790861,16 12,16 C14.209139,16 16,14.209139 16,12 C16,9.790861 14.209139,8 12,8 Z"/>
</svg>
