<svg xmlns="http://www.w3.org/2000/svg" width="24" height="24" viewBox="0 0 24 24">
  <path fill="#344055" fill-rule="evenodd" d="M18,13 C18.5128358,13 18.9355072,13.3860402 18.9932723,13.8833789 L19,14 L19,17 C19,19.209139 17.209139,21 15,21 L9,21 C6.790861,21 5,19.209139 5,17 L5,14 C5,13.4477153 5.44771525,13 6,13 C6.55228475,13 7,13.4477153 7,14 L7,17 C7,18.1045695 7.8954305,19 9,19 L15,19 C16.1045695,19 17,18.1045695 17,17 L17,14 C17,13.4477153 17.4477153,13 18,13 Z M12.382,3.07575 C12.505,3.12675 12.615,3.19975 12.708,3.29275 L16.707,7.29175 C17.098,7.68275 17.098,8.31475 16.707,8.70575 C16.512,8.90075 16.256,8.99875 16,8.99875 C15.744,8.99875 15.488,8.90075 15.293,8.70575 L13,6.41275 L13,15.99875 C13,16.55175 12.553,16.99875 12,16.99875 C11.447,16.99875 11,16.55175 11,15.99875 L11,6.41275 L8.707,8.70575 C8.316,9.09675 7.684,9.09675 7.293,8.70575 C6.902,8.31475 6.902,7.68275 7.293,7.29175 L11.292,3.29275 C11.385,3.19975 11.495,3.12675 11.618,3.07575 C11.862,2.97475 12.138,2.97475 12.382,3.07575 Z"/>
</svg>
