<?xml version="1.0" encoding="UTF-8"?>
<svg width="24px" height="24px" viewBox="0 0 24 24" version="1.1" xmlns="http://www.w3.org/2000/svg" xmlns:xlink="http://www.w3.org/1999/xlink">
    <title>Icons/Share Social</title>
    <g id="Icons/Share-Social" stroke="none" stroke-width="1" fill="none" fill-rule="evenodd">
        <path d="M18,3 C19.6568542,3 21,4.34314575 21,6 C21,7.65685425 19.6568542,9 18,9 C17.1912973,9 16.4573316,8.68001304 15.9178082,8.15974447 L8.97728802,11.6290171 C8.99227981,11.7505759 9,11.8743864 9,12 C9,12.1256136 8.99227981,12.2494241 8.97728802,12.3709829 L15.9178082,15.8402555 C16.4573316,15.319987 17.1912973,15 18,15 C19.6568542,15 21,16.3431458 21,18 C21,19.6568542 19.6568542,21 18,21 C16.3431458,21 15,19.6568542 15,18 C15,17.8743864 15.0077202,17.7505759 15.022712,17.6290171 L8.08219177,14.1597445 C7.54266838,14.680013 6.80870267,15 6,15 C4.34314575,15 3,13.6568542 3,12 C3,10.3431458 4.34314575,9 6,9 C6.80870267,9 7.54266838,9.31998696 8.08219177,9.84025553 L15.0225882,6.3699782 C15.0076777,6.24874196 15,6.12526759 15,6 C15,4.34314575 16.3431458,3 18,3 Z" id="🎨-Icon-Colour" fill="#344055"></path>
    </g>
</svg>