<svg xmlns="http://www.w3.org/2000/svg" width="24" height="24" viewBox="0 0 24 24">
  <path fill="#344055" fill-rule="evenodd" d="M9,17 C10.1045695,17 11,17.8954305 11,19 C11,20.1045695 10.1045695,21 9,21 C7.8954305,21 7,20.1045695 7,19 C7,17.8954305 7.8954305,17 9,17 Z M17,17 C18.1045695,17 19,17.8954305 19,19 C19,20.1045695 18.1045695,21 17,21 C15.8954305,21 15,20.1045695 15,19 C15,17.8954305 15.8954305,17 17,17 Z M5,3 C5.4905872,3 5.8986635,3.35327118 5.98371613,3.81930079 L7.41572051,11.328798 C7.57644983,12.2931739 8.41083005,13 9.38850835,13 L16.6114916,13 C17.58917,13 18.4235502,12.2931739 18.5842795,11.328798 L18.9724125,9 L19,9 C19,8.44771525 19.4477153,8 20,8 C20.5522847,8 21,8.44771525 21,9 C21,9.07608301 20.8523558,9.96194833 20.5570673,11.6575959 C20.2356087,13.5863478 18.5668483,15 16.6114916,15 L9.38850835,15 C7.43315174,15 5.7643913,13.5863478 5.44293266,11.6575959 L4.18267266,5 L3,5 C2.44771525,5 2,4.55228475 2,4 C2,3.44771525 2.44771525,3 3,3 L5,3 Z M13,3 C13.5522847,3 14,3.44771525 14,4 L14,5.999 L16,6 C16.5522847,6 17,6.44771525 17,7 C17,7.55228475 16.5522847,8 16,8 L14,8 L14,10 C14,10.5522847 13.5522847,11 13,11 C12.4477153,11 12,10.5522847 12,10 L12,8 L10,8 C9.44771525,8 9,7.55228475 9,7 C9,6.44771525 9.44771525,6 10,6 L12,6 L12,4 C12,3.44771525 12.4477153,3 13,3 Z"/>
</svg>
