<svg xmlns="http://www.w3.org/2000/svg" width="24" height="24" viewBox="0 0 24 24">
  <path fill="#344055" fill-rule="evenodd" d="M9,17 C10.1045695,17 11,17.8954305 11,19 C11,20.1045695 10.1045695,21 9,21 C7.8954305,21 7,20.1045695 7,19 C7,17.8954305 7.8954305,17 9,17 Z M17,17 C18.1045695,17 19,17.8954305 19,19 C19,20.1045695 18.1045695,21 17,21 C15.8954305,21 15,20.1045695 15,19 C15,17.8954305 15.8954305,17 17,17 Z M5,3 C5.4905872,3 5.8986635,3.35327118 5.98371613,3.81930079 L6.78,8 L20,8 C20.5522847,8 21,8.44771525 21,9 C21,9.08949058 20.9882448,9.17623559 20.9661943,9.25877513 C20.9051216,9.63931845 20.7691891,10.43952 20.5570673,11.6575959 C20.2356087,13.5863478 18.5668483,15 16.6114916,15 L9.38850835,15 C7.43315174,15 5.7643913,13.5863478 5.44293266,11.6575959 L4.18267266,5 L3,5 C2.44771525,5 2,4.55228475 2,4 C2,3.44771525 2.44771525,3 3,3 L5,3 Z M18.805,9.999 L7.162,10 L7.41572051,11.328798 C7.57644983,12.2931739 8.41083005,13 9.38850835,13 L16.6114916,13 C17.58917,13 18.4235502,12.2931739 18.5842795,11.328798 L18.805,9.999 Z"/>
</svg>
