<svg xmlns="http://www.w3.org/2000/svg" width="24" height="24" viewBox="0 0 24 24">
  <path fill="#344055" fill-rule="evenodd" d="M9,17 C10.1045695,17 11,17.8954305 11,19 C11,20.1045695 10.1045695,21 9,21 C7.8954305,21 7,20.1045695 7,19 C7,17.8954305 7.8954305,17 9,17 Z M17,17 C18.1045695,17 19,17.8954305 19,19 C19,20.1045695 18.1045695,21 17,21 C15.8954305,21 15,20.1045695 15,19 C15,17.8954305 15.8954305,17 17,17 Z M5,3 C5.4905872,3 5.8986635,3.35327118 5.98371613,3.81930079 L7.41572051,11.328798 C7.57644983,12.2931739 8.41083005,13 9.38850835,13 L16.6114916,13 C17.58917,13 18.4235502,12.2931739 18.5842795,11.328798 L18.9724125,9 L19,9 C19,8.44771525 19.4477153,8 20,8 C20.5522847,8 21,8.44771525 21,9 C21,9.07608301 20.8523558,9.96194833 20.5570673,11.6575959 C20.2356087,13.5863478 18.5668483,15 16.6114916,15 L9.38850835,15 C7.43315174,15 5.7643913,13.5863478 5.44293266,11.6575959 L4.18267266,5 L3,5 C2.44771525,5 2,4.55228475 2,4 C2,3.44771525 2.44771525,3 3,3 L5,3 Z M11.5857864,4.17157288 L13,5.58578644 L14.4142136,4.17157288 C14.8047379,3.78104858 15.4379028,3.78104858 15.8284271,4.17157288 C16.2189514,4.56209717 16.2189514,5.19526215 15.8284271,5.58578644 L14.4149207,6.99929289 L15.8284271,8.41421356 C16.2189514,8.80473785 16.2189514,9.43790283 15.8284271,9.82842712 C15.4379028,10.2189514 14.8047379,10.2189514 14.4142136,9.82842712 L13,8.41421356 L11.5857864,9.82842712 C11.1952621,10.2189514 10.5620972,10.2189514 10.1715729,9.82842712 C9.78104858,9.43790283 9.78104858,8.80473785 10.1715729,8.41421356 L11.5857864,7 L10.1715729,5.58578644 C9.78104858,5.19526215 9.78104858,4.56209717 10.1715729,4.17157288 C10.5620972,3.78104858 11.1952621,3.78104858 11.5857864,4.17157288 Z"/>
</svg>
