<svg xmlns="http://www.w3.org/2000/svg" width="24" height="24" viewBox="0 0 24 24">
  <path fill="#344055" fill-rule="evenodd" d="M13.3088459,14.0817445 C14.576261,15.9988814 15.8318112,16.7936646 17.9997855,16.9638487 L18.001,15.981 L18.003,15.917 L18.0108518,15.8510388 L18.0355534,15.7341604 L18.0709364,15.6289415 L18.1085901,15.5459932 L18.1458279,15.4792912 L18.2127601,15.3829777 L18.2927257,15.2928932 C18.3281197,15.2574992 18.3655069,15.225313 18.4045258,15.1963346 L18.5157704,15.1246712 L18.5767333,15.0936538 L18.6581821,15.0598859 L18.7338395,15.0358451 L18.8513656,15.0110178 L18.9098005,15.003998 L18.9998325,15 L19.081,15.003 L19.2005582,15.0202401 L19.2656721,15.035721 L19.3414989,15.0598946 L19.423054,15.0936734 L19.5205412,15.1459955 L19.6252814,15.2196888 L19.7069392,15.2928932 L21.7069392,17.2928932 L21.777,17.372 L21.8034979,17.4046934 L21.8724243,17.5110272 L21.9225306,17.6137951 L21.9724036,17.7664582 L21.9888147,17.8515331 L21.9983914,17.9461667 L21.9983914,18.0543273 L21.9845512,18.1747075 L21.9641115,18.2658396 L21.9108187,18.4130931 L21.853837,18.5207088 L21.7801437,18.625449 L21.7069392,18.7071068 L19.7069392,20.7071068 L19.628,20.777 L19.5583554,20.8296215 L19.4838946,20.8753288 L19.3711685,20.9287745 L19.3115689,20.9504533 L19.2333743,20.9725712 L19.1173066,20.9931658 L18.9998325,21 L18.917,20.996 L18.7991067,20.9797599 L18.7339928,20.964279 L18.658166,20.9401054 L18.5766109,20.9063266 L18.4791237,20.8540045 L18.3828101,20.7870723 L18.2927257,20.7071068 C18.2573316,20.6717127 18.2251454,20.6343256 18.196167,20.5953066 L18.1245036,20.4840621 L18.0818957,20.3973897 L18.0356776,20.265993 L18.0199976,20.2007941 L18.0038099,20.0898018 L18.0000186,20.0193545 L17.9999255,18.9698954 C15.3632087,18.8022461 13.709518,17.9218491 12.2348781,16.0160509 C12.5717985,15.476453 12.9141179,14.8508648 13.3088459,14.0817445 Z M18.9998325,3 L19.081,3.003 L19.2005582,3.02024007 L19.2656721,3.03572097 L19.3414989,3.05989459 L19.423054,3.09367336 L19.5205412,3.14599545 L19.6252814,3.21968877 L19.7069392,3.29289322 L21.7069392,5.29289322 L21.777,5.372 L21.8034979,5.40469339 L21.8724243,5.51102724 L21.9225306,5.61379505 L21.9724036,5.76645816 L21.9888147,5.85153313 L21.9983914,5.94616666 L21.9983914,6.05432734 L21.9845512,6.17470747 L21.9641115,6.26583961 L21.9108187,6.41309306 L21.853837,6.52070875 L21.7801437,6.62544899 L21.7069392,6.70710678 L19.7069392,8.70710678 L19.628,8.777 L19.5583554,8.82962145 L19.4838946,8.87532883 L19.3711685,8.92877451 L19.3115689,8.95045332 L19.2333743,8.97257118 L19.1173066,8.99316578 L18.9998325,9 L18.917,8.996 L18.7991067,8.97975993 L18.7339928,8.96427903 L18.658166,8.94010541 L18.5766109,8.90632664 L18.4791237,8.85400455 L18.3828101,8.78707231 L18.2927257,8.70710678 C18.2573316,8.67171273 18.2251454,8.63432558 18.196167,8.59530661 L18.1245036,8.4840621 L18.0818957,8.3973897 L18.0356776,8.26599297 L18.0199976,8.2007941 L18.0038099,8.08980185 L18.0000186,8.0193545 L18.0000062,7.03613493 C15.2883994,7.24894323 14.0042261,8.43885907 12.3396992,11.5803279 L12.1824803,11.8805878 L11.7418494,12.7496773 C9.41289129,17.3242445 7.54728749,19 3,19 C2.44771525,19 2,18.5522847 2,18 C2,17.4477153 2.44771525,17 3,17 C6.42554846,17 7.80799899,15.9205936 9.66951649,12.4022666 L9.81751965,12.1194122 L10.2581506,11.2503227 C12.4084899,7.02660074 14.163823,5.27409433 17.9996437,5.03012255 L18.001,3.981 L18.003,3.917 L18.0108518,3.85103878 L18.0355534,3.73416039 L18.0709364,3.62894148 L18.1085901,3.54599318 L18.1458279,3.47929125 L18.2127601,3.38297765 L18.2927257,3.29289322 C18.3281197,3.25749917 18.3655069,3.22531295 18.4045258,3.19633458 L18.5157704,3.12467117 L18.5767333,3.09365378 L18.6581821,3.05988586 L18.7338395,3.03584514 L18.8513656,3.0110178 L18.9098005,3.00399798 L18.9998325,3 Z M3,5 C6.23461736,5 8.1123325,5.84791369 9.76512188,7.98394906 C9.42820152,8.52354699 9.08588205,9.14913523 8.69115411,9.91825549 C7.24051931,7.72397396 5.80542775,7 3,7 C2.44771525,7 2,6.55228475 2,6 C2,5.44771525 2.44771525,5 3,5 Z"/>
</svg>
