<svg xmlns="http://www.w3.org/2000/svg" width="24" height="24" viewBox="0 0 24 24">
  <path fill="#344055" fill-rule="evenodd" d="M12,16 C12.7402524,16 13.3865739,16.4021661 13.7323937,16.9999275 L20,17 C20.5522847,17 21,17.4477153 21,18 C21,18.5522847 20.5522847,19 20,19 L13.7318119,19.0010775 C13.3858493,19.5982846 12.7398375,20 12,20 C11.2601625,20 10.6141507,19.5982846 10.2681881,19.0010775 L4,19 C3.44771525,19 3,18.5522847 3,18 C3,17.4477153 3.44771525,17 4,17 L10.2676063,16.9999275 C10.6134261,16.4021661 11.2597476,16 12,16 Z M9,10 C9.74025244,10 10.3865739,10.4021661 10.7323937,10.9999275 L20,11 C20.5522847,11 21,11.4477153 21,12 C21,12.5522847 20.5522847,13 20,13 L10.7318119,13.0010775 C10.3858493,13.5982846 9.7398375,14 9,14 C8.2601625,14 7.61415066,13.5982846 7.26818814,13.0010775 L4,13 C3.44771525,13 3,12.5522847 3,12 C3,11.4477153 3.44771525,11 4,11 L7.26760632,10.9999275 C7.61342606,10.4021661 8.25974756,10 9,10 Z M17,4 C17.7402524,4 18.3865739,4.40216612 18.7323937,4.99992752 L20,5 C20.5522847,5 21,5.44771525 21,6 C21,6.55228475 20.5522847,7 20,7 L18.7318119,7.0010775 C18.3858493,7.59828461 17.7398375,8 17,8 C16.2601625,8 15.6141507,7.59828461 15.2681881,7.0010775 L4,7 C3.44771525,7 3,6.55228475 3,6 C3,5.44771525 3.44771525,5 4,5 L15.2676063,4.99992752 C15.6134261,4.40216612 16.2597476,4 17,4 Z"/>
</svg>
