<svg xmlns="http://www.w3.org/2000/svg" width="24" height="24" viewBox="0 0 24 24">
  <path fill="#344055" fill-rule="evenodd" d="M9.51140295,14.1403808 L9.61289944,14.2097046 L9.70710678,14.2928932 L12,16.585 L14.2928932,14.2928932 C14.6834175,13.9023689 15.3165825,13.9023689 15.7071068,14.2928932 C16.0675907,14.6533772 16.0953203,15.2206082 15.7902954,15.6128994 L15.7071068,15.7071068 L12.7071068,18.7071068 C12.5569051,18.8573084 12.3708099,18.9497402 12.1764315,18.9844021 L12.0590314,18.9982669 L11.9409686,18.9982669 C11.705064,18.9844021 11.4731352,18.8873488 11.2928932,18.7071068 L8.29289322,15.7071068 C7.90236893,15.3165825 7.90236893,14.6834175 8.29289322,14.2928932 C8.62333685,13.9624496 9.12750547,13.9116121 9.51140295,14.1403808 Z M12.0590314,5.0017331 C12.2163012,5.01097627 12.3718039,5.05719217 12.5114029,5.14038077 L12.6128994,5.20970461 L12.7071068,5.29289322 L15.7071068,8.29289322 C16.0976311,8.68341751 16.0976311,9.31658249 15.7071068,9.70710678 C15.3466228,10.0675907 14.7793918,10.0953203 14.3871006,9.79029539 L14.2928932,9.70710678 L12,7.415 L9.70710678,9.70710678 C9.31658249,10.0976311 8.68341751,10.0976311 8.29289322,9.70710678 C7.93240926,9.34662282 7.90467972,8.77939176 8.20970461,8.38710056 L8.29289322,8.29289322 L11.2928932,5.29289322 C11.4731352,5.11265124 11.705064,5.01559786 11.9409686,5.0017331 L12.0590314,5.0017331 Z"/>
</svg>
