<?xml version="1.0" encoding="UTF-8"?>
<svg width="24px" height="24px" viewBox="0 0 24 24" version="1.1" xmlns="http://www.w3.org/2000/svg" xmlns:xlink="http://www.w3.org/1999/xlink">
    <title>Icons/Soundcloud</title>
    <g id="Icons/Soundcloud" stroke="none" stroke-width="1" fill="none" fill-rule="evenodd">
        <path d="M14.3016667,8 C16.5625,8 18.3958333,9.83418981 18.5658333,12.1551517 C20.1933333,11.3722259 22,12.6312884 22,14.4581152 C22,15.8595279 20.9133333,16.9991472 19.5741667,16.9991472 L19.5741667,16.9991472 L12.5,16.9991472 C12.2238576,16.9991472 12,16.7752895 12,16.4991472 L12,16.4991472 L12,9.03211813 C12,8.8374181 12.1130106,8.66042087 12.2896557,8.57853921 C13.1211484,8.1928464 13.7918187,8 14.3016667,8 Z M10.7689819,9.04639893 C10.9898958,9.04639893 11.1736295,9.20558657 11.2117318,9.41551086 L11.2189819,9.49639893 L11.2189819,16.4963989 C11.2189819,16.7173128 11.0597943,16.9010465 10.84987,16.9391488 L10.7689819,16.9463989 L10.7689819,16.9463989 C10.548068,16.9463989 10.3643344,16.7872113 10.326232,16.577287 L10.3189819,16.4963989 L10.3189819,9.49639893 C10.3189819,9.24787079 10.5204538,9.04639893 10.7689819,9.04639893 Z M7.56054687,10.3880737 C7.78146077,10.3880737 7.96519441,10.5472614 8.00329677,10.7571857 L8.01054687,10.8380737 L8.01054687,16.4963989 C8.01054687,16.7173128 7.85135923,16.9010465 7.64143494,16.9391488 L7.56054687,16.9463989 L7.56054687,16.9463989 C7.33963298,16.9463989 7.15589934,16.7872113 7.11779698,16.577287 L7.11054687,16.4963989 L7.11054687,10.8380737 C7.11054687,10.5895456 7.31201874,10.3880737 7.56054687,10.3880737 Z M9.1305542,9.51356201 C9.3514681,9.51356201 9.53520173,9.67274966 9.5733041,9.88267394 L9.5805542,9.96356201 L9.5805542,16.4963989 C9.5805542,16.7449271 9.37908234,16.9463989 9.1305542,16.9463989 C8.9096403,16.9463989 8.72590667,16.7872113 8.6878043,16.577287 L8.6805542,16.4963989 L8.6805542,9.96356201 C8.6805542,9.71503387 8.88202606,9.51356201 9.1305542,9.51356201 Z M5.92211914,11.9187744 C6.14303304,11.9187744 6.32676667,12.0779621 6.36486904,12.2878863 L6.37211914,12.3687744 L6.37211914,16.4963989 C6.37211914,16.7449271 6.17064728,16.9463989 5.92211914,16.9463989 C5.70120524,16.9463989 5.51747161,16.7872113 5.47936924,16.577287 L5.47211914,16.4963989 L5.47211914,12.3687744 C5.47211914,12.1202463 5.673591,11.9187744 5.92211914,11.9187744 Z M4.28369141,11.9187744 C4.50460531,11.9187744 4.68833894,12.0779621 4.7264413,12.2878863 L4.73369141,12.3687744 L4.73369141,16.4028931 C4.73369141,16.623807 4.57450376,16.8075406 4.36457948,16.845643 L4.28369141,16.8528931 L4.28369141,16.8528931 C4.06277751,16.8528931 3.87904387,16.6937054 3.84094151,16.4837811 L3.83369141,16.4028931 L3.83369141,12.3687744 C3.83369141,12.1202463 4.03516327,11.9187744 4.28369141,11.9187744 Z M2.55914307,12.9499023 C2.78005697,12.9499023 2.9637906,13.10909 3.00189296,13.3190143 L3.00914307,13.3999023 L3.00914307,15.592041 C3.00914307,15.8405692 2.8076712,16.042041 2.55914307,16.042041 C2.33822917,16.042041 2.15449553,15.8828534 2.11639317,15.6729291 L2.10914307,15.592041 L2.10914307,13.3999023 C2.10914307,13.1513742 2.31061493,12.9499023 2.55914307,12.9499023 Z" id="Shape" fill="#344055" fill-rule="nonzero"></path>
    </g>
</svg>