<svg xmlns="http://www.w3.org/2000/svg" width="24" height="24" viewBox="0 0 24 24">
  <path fill="#344055" fill-rule="evenodd" d="M12,4 C12.5522847,4 13,4.44771525 13,5 L13,19 C13,19.5522847 12.5522847,20 12,20 C11.4477153,20 11,19.5522847 11,19 L11,5 C11,4.44771525 11.4477153,4 12,4 Z M6.29289322,7.29289322 C6.68341751,6.90236893 7.31658249,6.90236893 7.70710678,7.29289322 C8.09763107,7.68341751 8.09763107,8.31658249 7.70710678,8.70710678 L7.70710678,8.70710678 L4.41421356,12 L7.70710678,15.2928932 C8.09763107,15.6834175 8.09763107,16.3165825 7.70710678,16.7071068 C7.31658249,17.0976311 6.68341751,17.0976311 6.29289322,16.7071068 L6.29289322,16.7071068 L2.29289322,12.7071068 C1.90236893,12.3165825 1.90236893,11.6834175 2.29289322,11.2928932 L2.29289322,11.2928932 Z M17.7071068,7.29289322 L21.7071068,11.2928932 C22.0976311,11.6834175 22.0976311,12.3165825 21.7071068,12.7071068 L17.7071068,16.7071068 C17.3165825,17.0976311 16.6834175,17.0976311 16.2928932,16.7071068 C15.9023689,16.3165825 15.9023689,15.6834175 16.2928932,15.2928932 L19.5857864,12 L16.2928932,8.70710678 C15.9023689,8.31658249 15.9023689,7.68341751 16.2928932,7.29289322 C16.6834175,6.90236893 17.3165825,6.90236893 17.7071068,7.29289322 Z"/>
</svg>
