<?xml version="1.0" encoding="UTF-8"?>
<svg width="24px" height="24px" viewBox="0 0 24 24" version="1.1" xmlns="http://www.w3.org/2000/svg" xmlns:xlink="http://www.w3.org/1999/xlink">
    <title>Icons/Spotify</title>
    <g id="Icons/Spotify" stroke="none" stroke-width="1" fill="none" fill-rule="evenodd">
        <path d="M17.915,10.865 C14.6916667,8.95083333 9.375,8.775 6.2975,9.70916667 C5.80333333,9.85916667 5.28083333,9.58 5.13166667,9.08583333 C4.98166667,8.59166667 5.26,8.06916667 5.755,7.91916667 C9.2875,6.84666667 15.1591667,7.05416667 18.87,9.25666667 C19.3141667,9.52083333 19.46,10.0941667 19.1966667,10.5383333 C18.9333333,10.9825 18.3591667,11.1291667 17.915,10.865 Z M17.81,13.7008333 C17.5833333,14.0675 17.1041667,14.1825 16.7375,13.9575 C14.05,12.3058333 9.9525,11.8266667 6.7725,12.7916667 C6.36083333,12.9166667 5.925,12.6841667 5.8,12.2725 C5.67583333,11.86 5.90833333,11.4258333 6.32,11.3 C9.95166667,10.1983333 14.4666667,10.7316667 17.5533333,12.6291667 C17.92,12.8541667 18.035,13.335 17.81,13.7008333 Z M16.5858333,16.4233333 C16.4066667,16.7183333 16.0225,16.8108333 15.7291667,16.6308333 C13.3808333,15.1958333 10.425,14.8716667 6.94416667,15.6666667 C6.60916667,15.7433333 6.275,15.5333333 6.19833333,15.1983333 C6.12166667,14.8625 6.33083333,14.5283333 6.66666667,14.4516667 C10.4758333,13.5808333 13.7433333,13.9558333 16.3791667,15.5666667 C16.6733333,15.7458333 16.7658333,16.13 16.5858333,16.4233333 L16.5858333,16.4233333 Z M12,2 C6.4775,2 2,6.4775 2,12 C2,17.5233333 6.4775,22 12,22 C17.5233333,22 22,17.5233333 22,12 C22,6.4775 17.5233333,2 12,2 Z" id="Shape" fill="#344055"></path>
    </g>
</svg>