<svg xmlns="http://www.w3.org/2000/svg" width="24" height="24" viewBox="0 0 24 24">
  <path fill="#344055" fill-rule="evenodd" d="M21.8946355,8.89 L20.8446355,4.52 C20.6246355,3.62 19.91,3 19,3 L5,3 C4.1,3 3.35463552,3.63 3.14463552,4.52 L2.09463552,8.89 C1.85463552,9.91 2,11 3,12 L2.99463552,17 C3,19 5,21 6.99463552,21 L17,21 C19,21 21,19 21,17 L21,12 C22,11 22.1446355,9.91 21.8946355,8.89 Z M7.01463552,5 L6.43463552,9.86 C6.35463552,10.51 5.83463552,11 5.22463552,11 C4.73463552,11 4.42463552,10.71 4.29463552,10.53 C4.03463552,10.2 3.94463552,9.77 4.04463552,9.36 L5.04463552,5 L7.01463552,5 Z M18.9046355,4.99 L19.9546355,9.36 C20.0546355,9.78 19.9646355,10.2 19.7046355,10.53 C19.5646355,10.71 19.2646355,11 18.7646355,11 C18.1546355,11 17.6246355,10.51 17.5546355,9.86 L16.9746355,5 L18.9046355,4.99 Z M15.5046355,9.52 C15.5546355,9.91 15.4346355,10.3 15.1746355,10.59 C14.9446355,10.85 14.6246355,11 14.2146355,11 C13.5446355,11 12.9946355,10.41 12.9946355,9.69 L12.9946355,5 L14.9546355,5 L15.5046355,9.52 Z M10.9946355,9.69 C10.9946355,10.41 10.4446355,11 9.70463552,11 C9.36463552,11 9.05463552,10.85 8.81463552,10.59 C8.56463552,10.3 8.44463552,9.91 8.48463552,9.52 L9.03463552,5 L10.9946355,5 L10.9946355,9.69 Z M17,19 L7,19 C6,19 5,18 5,17 L4.99463552,12.97 C5.07463552,12.98 5.14463552,13 5.22463552,13 C6.09463552,13 6.88463552,12.64 7.46463552,12.05 C8.06463552,12.65 8.86463552,13 9.77463552,13 C10.6446355,13 11.4246355,12.64 12.0046355,12.07 C12.5946355,12.64 13.3946355,13 14.2946355,13 C15.1346355,13 15.9346355,12.65 16.5346355,12.05 C17.1146355,12.64 17.9046355,13 18.7746355,13 C18.8546355,13 18.9246355,12.98 19.0046355,12.97 L19.0046355,17 C19,18 18,19 17,19 Z"/>
</svg>
