<svg xmlns="http://www.w3.org/2000/svg" width="24" height="24" viewBox="0 0 24 24">
  <path fill="#344055" fill-rule="evenodd" d="M14,13 L4,13 C3.447,13 3,12.553 3,12 C3,11.447 3.447,11 4,11 L20,11 C20.553,11 21,11.447 21,12 C21,12.553 20.553,13 20,13 L17.6631844,13 C17.8791545,13.4546277 18,13.9632014 18,14.5 L18,15.5 C18,17.4329966 16.4329966,19 14.5,19 L9.5,19 C8.10380202,19 6.89854755,18.1824737 6.33681558,17 L14,17 C15.1045695,17 16,16.1045695 16,15 C16,13.8954305 15.1045695,13 14,13 Z M8,9 L6,9 L6,8.5 C6,6.56700338 7.56700338,5 9.5,5 L14.5,5 C15.896198,5 17.1014525,5.81752633 17.6631844,7 L10,7 C8.8954305,7 8,7.8954305 8,9 Z"/>
</svg>
