<svg xmlns="http://www.w3.org/2000/svg" width="24" height="24" viewBox="0 0 24 24">
  <path fill="#344055" fill-rule="evenodd" d="M20.4999,16 C20.774955,16 21,15.775 21,15.5 L21,13.5 C21,13.225 20.774955,13 20.4999,13 L17.4992999,13 C17.2242449,13 16.9991999,13.225 16.9991999,13.5 C16.9991999,13.775 17.2242449,14 17.4992999,14 L19.9998,14 L19.9998,15 L17.4992999,15 C17.2242449,15 16.9991999,15.225 16.9991999,15.5 L16.9991999,17.5 C16.9991999,17.775 17.2242449,18 17.4992999,18 L20.4999,18 C20.774955,18 21,17.775 21,17.5 C21,17.225 20.774955,17 20.4999,17 L17.9993999,17 L17.9993999,16 L20.4999,16 Z M10.4265064,12.0001261 L14.704513,7.72184985 C14.9011682,7.52518227 15,7.26699305 15,7.00880382 C15,6.75061459 14.9011682,6.49242536 14.704513,6.29575778 C14.3112026,5.90141407 13.6728296,5.90141407 13.2785108,6.29575778 L9.00050424,10.574034 L4.7214892,6.29575778 C4.32717035,5.90141407 3.68879738,5.90141407 3.29548702,6.29575778 C3.09782335,6.49242536 3,6.75061459 3,7.00880382 C3,7.26699305 3.09782335,7.52518227 3.29548702,7.72184985 L7.57450206,12.0001261 L3.29548702,16.2784023 C3.09782335,16.4750699 3,16.7332591 3,16.9914483 C3,17.2496376 3.09782335,17.5078268 3.29548702,17.7044944 C3.4921422,17.9021705 3.75031515,18 4.00848811,18 C4.26666106,18 4.52382553,17.9021705 4.7214892,17.7044944 L9.00050424,13.4262181 L13.2785108,17.7044944 C13.475166,17.9021705 13.7333389,18 13.9915119,18 C14.2496848,18 14.5078578,17.9021705 14.704513,17.7044944 C14.9011682,17.5078268 15,17.2496376 15,16.9914483 C15,16.7332591 14.9011682,16.4750699 14.704513,16.2784023 L10.4265064,12.0001261 Z"/>
</svg>
