<svg xmlns="http://www.w3.org/2000/svg" width="24" height="24" viewBox="0 0 24 24">
  <path fill="#344055" fill-rule="evenodd" d="M8,15 L15,15 C15.5522847,15 16,15.4477153 16,16 C16,16.5522847 15.5522847,17 15,17 L8,17 L8,18.8649584 C8,19.4172431 7.55228475,19.8649584 7,19.8649584 C6.76606349,19.8649584 6.5395306,19.7829422 6.3598156,19.6331797 L2.92186554,16.7682213 C2.49758864,16.4146572 2.44026457,15.7840925 2.79382866,15.3598156 C2.83254788,15.3133525 2.87540247,15.2704979 2.92186554,15.2317787 L6.3598156,12.3668203 C6.7840925,12.0132563 7.4146572,12.0705803 7.76822128,12.4948572 C7.91798378,12.6745722 8,12.9011051 8,13.1350416 L8,15 Z M16,9 L9,9 C8.44771525,9 8,8.55228475 8,8 C8,7.44771525 8.44771525,7 9,7 L16,7 L16,5.13504161 C16,4.90110511 16.0820162,4.67457221 16.2317787,4.49485721 C16.5853428,4.07058032 17.2159075,4.01325625 17.6401844,4.36682033 L21.0781345,7.23177872 C21.1245975,7.27049794 21.1674521,7.31335254 21.2061713,7.3598156 C21.5597354,7.7840925 21.5024114,8.4146572 21.0781345,8.76822128 L17.6401844,11.6331797 C17.4604694,11.7829422 17.2339365,11.8649584 17,11.8649584 C16.4477153,11.8649584 16,11.4172431 16,10.8649584 L16,9 Z"/>
</svg>
