<svg xmlns="http://www.w3.org/2000/svg" width="24" height="24" viewBox="0 0 24 24">
  <path fill="#344055" fill-rule="evenodd" d="M21,12 C21.5522847,12 22,12.4477153 22,13 C22,16.1342422 20.3114574,17.9052648 17.2511342,17.996306 L17,18 L8,18 L8,19 L7.99638403,19.0852242 L7.98898066,19.1489612 C7.98637192,19.165949 7.98329783,19.1833753 7.97975993,19.2007258 C7.9753602,19.2227461 7.97016637,19.2444365 7.96427903,19.2658396 C7.95990227,19.2814633 7.95527128,19.2968513 7.95026191,19.3121425 C7.94387751,19.3317977 7.93668426,19.3515792 7.92889604,19.3710585 L7.90632664,19.4232215 C7.89662336,19.4438914 7.88620608,19.4642939 7.87512423,19.484277 C7.86850117,19.4963944 7.86139308,19.5086131 7.85400455,19.5207088 C7.8382813,19.546275 7.82150991,19.5711307 7.80368649,19.5951593 L7.775,19.629 L7.70710678,19.7071068 C7.67864047,19.7355731 7.64846592,19.7623312 7.61675008,19.787214 C7.60984241,19.7927155 7.60260304,19.7982466 7.59530661,19.8036654 C7.57113069,19.8215099 7.54627495,19.8382813 7.52066019,19.8539326 L7.4840621,19.8753288 C7.46429395,19.8862061 7.4438914,19.8966234 7.42309915,19.9063462 L7.37133602,19.9287745 C7.3515792,19.9366843 7.33179768,19.9438775 7.31173641,19.9504533 C7.29685134,19.9552713 7.28146328,19.9599023 7.26599297,19.9641549 C7.24443648,19.9701664 7.22274608,19.9753602 7.2007941,19.9798348 C7.18337526,19.9832978 7.16594901,19.9863719 7.14846687,19.9889822 C7.12811445,19.9920941 7.10705742,19.994564 7.08581099,19.9963697 C7.06792309,19.997855 7.05059097,19.9988772 7.03324678,19.9994506 L7.01676501,19.999862 L7,20 L6.918,19.996 L6.85103878,19.9889807 C6.83405099,19.9863719 6.81662474,19.9832978 6.79927424,19.9797599 C6.77725392,19.9753602 6.75556352,19.9701664 6.73416039,19.964279 C6.71853672,19.9599023 6.70314866,19.9552713 6.68785748,19.9502619 C6.66820232,19.9438775 6.6484208,19.9366843 6.62894148,19.928896 L6.57677845,19.9063266 C6.5561086,19.8966234 6.53570605,19.8862061 6.51572305,19.8751242 C6.50360556,19.8685012 6.49138689,19.8613931 6.47929125,19.8540045 C6.45372505,19.8382813 6.42886931,19.8215099 6.4048407,19.8036865 L6.37,19.775 L6.29289322,19.7071068 L4.29006146,17.7042637 L4.278,17.692 L4.224,17.629 L4.19633458,17.5953066 L4.19633458,17.5953066 C4.17849009,17.5711307 4.1617187,17.546275 4.14606743,17.5206602 C4.13742865,17.5066842 4.12923885,17.4924942 4.12142608,17.4781534 C4.11172314,17.4602209 4.10240705,17.4418179 4.09365378,17.4230991 L4.07122549,17.371336 L4.07122549,17.371336 C4.06331574,17.3515792 4.05612249,17.3317977 4.04954668,17.3117364 C4.04472872,17.2968513 4.04009773,17.2814633 4.03584514,17.265993 C4.02983363,17.2444365 4.0246398,17.2227461 4.02016515,17.2007941 C4.01670217,17.1833753 4.01362808,17.165949 4.0110178,17.1484669 L4.003,17.081 L4.001,17.019 L4.001,17.054 L4.00018615,17.0193545 L4.00018615,17.0193545 L4.00018018,16.980824 L4.00018018,16.980824 C4.00059932,16.9579802 4.0018656,16.9343349 4.00396641,16.9107499 C4.00576612,16.890153 4.00811223,16.8705042 4.01101934,16.8510388 C4.01362808,16.834051 4.01670217,16.8166247 4.02024007,16.7992742 C4.0246398,16.7772539 4.02983363,16.7555635 4.03572097,16.7341604 C4.04009773,16.7185367 4.04472872,16.7031487 4.04973809,16.6878575 C4.05612249,16.6682023 4.06331574,16.6484208 4.07110396,16.6289415 L4.09367336,16.5767785 L4.09367336,16.5767785 C4.10337664,16.5561086 4.11379392,16.5357061 4.12487577,16.515723 C4.13149883,16.5036056 4.13860692,16.4913869 4.14599545,16.4792912 C4.1617187,16.453725 4.17849009,16.4288693 4.19631351,16.4048407 C4.20071786,16.3987914 4.20517454,16.3929267 4.20970461,16.3871006 C4.23766884,16.3515341 4.26442691,16.3213595 4.29289322,16.2928932 L6.29289322,14.2928932 L6.37455101,14.2196888 L6.37889067,14.2162256 C6.39015759,14.2072845 6.39739696,14.2017534 6.40469339,14.1963346 C6.42886931,14.1784901 6.45372505,14.1617187 6.47933981,14.1460674 L6.5159379,14.1246712 C6.53570605,14.1137939 6.5561086,14.1033766 6.57690085,14.0936538 L6.62866398,14.0712255 C6.6484208,14.0633157 6.66820232,14.0561225 6.68826359,14.0495467 C6.70314866,14.0447287 6.71853672,14.0400977 6.73400703,14.0358451 C6.75556352,14.0298336 6.77725392,14.0246398 6.7992059,14.0201652 C6.81662474,14.0167022 6.83405099,14.0136281 6.85153313,14.0110178 L6.90996805,14.003998 C6.93433491,14.0018656 6.95798023,14.0005993 6.98163795,14.0001675 L7,14 L7.081,14.003 L7.14896122,14.0110193 C7.16594901,14.0136281 7.18337526,14.0167022 7.20072576,14.0202401 C7.22274608,14.0246398 7.24443648,14.0298336 7.26583961,14.035721 C7.28146328,14.0400977 7.29685134,14.0447287 7.31214252,14.0497381 C7.33179768,14.0561225 7.3515792,14.0633157 7.37105852,14.071104 L7.42322155,14.0936734 C7.4438914,14.1033766 7.46429395,14.1137939 7.48427695,14.1248758 C7.49639444,14.1314988 7.50861311,14.1386069 7.52070875,14.1459955 C7.54627495,14.1617187 7.57113069,14.1784901 7.5951593,14.1963135 L7.629,14.224 L7.70710678,14.2928932 C7.73557309,14.3213595 7.76233116,14.3515341 7.78721404,14.3832499 C7.79271552,14.3901576 7.79824656,14.397397 7.80366542,14.4046934 C7.82150991,14.4288693 7.8382813,14.453725 7.85393257,14.4793398 L7.87532883,14.5159379 C7.88620608,14.5357061 7.89662336,14.5561086 7.90634622,14.5769009 L7.92877451,14.628664 C7.93668426,14.6484208 7.94387751,14.6682023 7.95045332,14.6882636 C7.95527128,14.7031487 7.95990227,14.7185367 7.96415486,14.734007 C7.97016637,14.7555635 7.9753602,14.7772539 7.97983485,14.7992059 C7.98329783,14.8166247 7.98637192,14.834051 7.9889822,14.8515331 C7.9920328,14.8714753 7.99446658,14.892114 7.99626233,14.912935 C7.9978436,14.9317345 7.99890526,14.9497336 7.99948292,14.9677454 C7.99981828,14.9777892 8,14.9888734 8,15 L8,16 L17,16 C19.0439025,16 19.9395935,15.1724391 19.9970352,13.207355 L20,13 C20,12.4477153 20.4477153,12 21,12 Z M19.999,6.967 L20,7 L20,7 L19.998,6.94 L19.999,6.967 L20,7 C20,7.01122253 19.9998151,7.02240189 19.9994483,7.03353519 C19.9988772,7.05059097 19.997855,7.06792309 19.996384,7.08522423 C19.994564,7.10705742 19.9920941,7.12811445 19.9889807,7.14896122 C19.9863719,7.16594901 19.9832978,7.18337526 19.9797599,7.20072576 C19.9753602,7.22274608 19.9701664,7.24443648 19.964279,7.26583961 C19.9599023,7.28146328 19.9552713,7.29685134 19.9502619,7.31214252 C19.9438775,7.33179768 19.9366843,7.3515792 19.928896,7.37105852 L19.9063266,7.42322155 L19.9063266,7.42322155 C19.8966234,7.4438914 19.8862061,7.46429395 19.8751242,7.48427695 C19.8685012,7.49639444 19.8613931,7.50861311 19.8540045,7.52070875 L19.8188709,7.57412559 L19.8188709,7.57412559 C19.808586,7.58888642 19.7980411,7.60306663 19.7870723,7.61702235 C19.7849289,7.61966276 19.7826279,7.62256244 19.7803112,7.62544899 L19.7071068,7.70710678 L17.7071068,9.70710678 L17.629,9.775 L17.5953066,9.80366542 C17.5711307,9.82150991 17.546275,9.8382813 17.5206602,9.85393257 L17.4840621,9.87532883 C17.4642939,9.88620608 17.4438914,9.89662336 17.4230991,9.90634622 L17.371336,9.92877451 C17.3515792,9.93668426 17.3317977,9.94387751 17.3117364,9.95045332 C17.2968513,9.95527128 17.2814633,9.95990227 17.265993,9.96415486 C17.2444365,9.97016637 17.2227461,9.9753602 17.2007941,9.97983485 C17.1833753,9.98329783 17.165949,9.98637192 17.1484669,9.9889822 C17.1281144,9.99209407 17.1070574,9.99456404 17.085811,9.9963697 C17.0679231,9.99785504 17.050591,9.99887723 17.0332468,9.99945061 L17.016765,9.999862 L17,10 L16.918,9.996 L16.8510388,9.98898066 C16.834051,9.98637192 16.8166247,9.98329783 16.7992742,9.97975993 C16.7772539,9.9753602 16.7555635,9.97016637 16.7341604,9.96427903 C16.7185367,9.95990227 16.7031487,9.95527128 16.6878575,9.95026191 C16.6682023,9.94387751 16.6484208,9.93668426 16.6289415,9.92889604 L16.5767785,9.90632664 C16.5561086,9.89662336 16.5357061,9.88620608 16.515723,9.87512423 C16.5036056,9.86850117 16.4913869,9.86139308 16.4792912,9.85400455 C16.453725,9.8382813 16.4288693,9.82150991 16.4048407,9.80368649 L16.3829777,9.78707231 L16.2928932,9.70710678 C16.2574992,9.67171273 16.225313,9.63432558 16.1963346,9.59530661 C16.1784901,9.57113069 16.1617187,9.54627495 16.1460674,9.52066019 L16.1246712,9.4840621 C16.1137939,9.46429395 16.1033766,9.4438914 16.0936538,9.42309915 L16.0712255,9.37133602 C16.0633157,9.3515792 16.0561225,9.33179768 16.0495467,9.31173641 C16.0447287,9.29685134 16.0400977,9.28146328 16.0358451,9.26599297 C16.0298336,9.24443648 16.0246398,9.22274608 16.0201652,9.2007941 C16.0167022,9.18337526 16.0136281,9.16594901 16.0110178,9.14846687 C16.008101,9.12942044 16.005748,9.10969493 16.0039775,9.08980185 C16.001895,9.06599489 16.0006349,9.04268105 16.0001861,9.0193545 L16,8 L7,8 C4.95609748,8 4.0604065,8.8275609 4.00296477,10.792645 L4,11 C4,11.5522847 3.55228475,12 3,12 C2.44771525,12 2,11.5522847 2,11 C2,7.86575783 3.6885426,6.09473518 6.74886584,6.00369399 L7,6 L16,6 L16.0001675,4.98163795 L16.001,4.946 L16.001,4.981 L16.003,4.918 L16.0110193,4.85103878 C16.0136281,4.83405099 16.0167022,4.81662474 16.0202401,4.79927424 C16.0246398,4.77725392 16.0298336,4.75556352 16.035721,4.73416039 C16.0400977,4.71853672 16.0447287,4.70314866 16.0497381,4.68785748 C16.0561225,4.66820232 16.0633157,4.6484208 16.071104,4.62894148 L16.0936734,4.57677845 C16.1033766,4.5561086 16.1137939,4.53570605 16.1248758,4.51572305 C16.1314988,4.50360556 16.1386069,4.49138689 16.1459955,4.47929125 C16.1617187,4.45372505 16.1784901,4.42886931 16.1963135,4.4048407 L16.2129277,4.38297765 L16.2928932,4.29289322 C16.3282873,4.25749917 16.3656744,4.22531295 16.4046934,4.19633458 C16.4288693,4.17849009 16.453725,4.1617187 16.4793398,4.14606743 L16.5159379,4.12467117 C16.5357061,4.11379392 16.5561086,4.10337664 16.5769009,4.09365378 L16.628664,4.07122549 C16.6484208,4.06331574 16.6682023,4.05612249 16.6882636,4.04954668 C16.7031487,4.04472872 16.7185367,4.04009773 16.734007,4.03584514 C16.7555635,4.02983363 16.7772539,4.0246398 16.7992059,4.02016515 C16.8166247,4.01670217 16.834051,4.01362808 16.8515331,4.0110178 L16.909968,4.00399798 C16.9343349,4.0018656 16.9579802,4.00059932 16.9816379,4.00016755 L17,4 L17.081,4.003 L17.1489612,4.01101934 C17.165949,4.01362808 17.1833753,4.01670217 17.2007258,4.02024007 C17.2227461,4.0246398 17.2444365,4.02983363 17.2658396,4.03572097 C17.2814633,4.04009773 17.2968513,4.04472872 17.3121425,4.04973809 C17.3317977,4.05612249 17.3515792,4.06331574 17.3710585,4.07110396 L17.4232215,4.09367336 C17.4438914,4.10337664 17.4642939,4.11379392 17.484277,4.12487577 C17.4963944,4.13149883 17.5086131,4.13860692 17.5207088,4.14599545 C17.546275,4.1617187 17.5711307,4.17849009 17.5951593,4.19631351 L17.6170223,4.21292769 C17.6196628,4.21507113 17.6225624,4.2173721 17.625449,4.21968877 L17.7071068,4.29289322 L19.71,6.295 L19.775,6.37 L19.8036654,6.40469339 L19.8036654,6.40469339 C19.8215099,6.42886931 19.8382813,6.45372505 19.8539326,6.47933981 L19.8753288,6.5159379 L19.8753288,6.5159379 C19.8862061,6.53570605 19.8966234,6.5561086 19.9063462,6.57690085 L19.9287745,6.62866398 L19.9287745,6.62866398 C19.9366843,6.6484208 19.9438775,6.66820232 19.9504533,6.68826359 C19.9552713,6.70314866 19.9599023,6.71853672 19.9641549,6.73400703 C19.9701664,6.75556352 19.9753602,6.77725392 19.9798348,6.7992059 C19.9832978,6.81662474 19.9863719,6.83405099 19.9889822,6.85153313 L19.997,6.921 L19.9972123,6.92482325 L19.998,6.94 L19.999,6.967 Z"/>
</svg>
