<svg xmlns="http://www.w3.org/2000/svg" width="24" height="24" viewBox="0 0 24 24">
  <path fill="#344055" fill-rule="evenodd" d="M13.4201071,2.65582022 L19.0689383,3.09034569 C20.0524969,3.16600405 20.833996,3.94750311 20.9096543,4.93106167 L21.3441798,10.5798929 C21.4337382,11.7441529 21.0100772,12.8894177 20.184389,13.715106 L13,20.8994949 C11.4379028,22.4615921 8.90524292,22.4615921 7.34314575,20.8994949 L3.10050506,16.6568542 C1.5384079,15.0947571 1.5384079,12.5620972 3.10050506,11 L10.284894,3.81561104 C11.1105823,2.98992277 12.2558471,2.56626175 13.4201071,2.65582022 Z M11.6991076,5.2298246 L4.51471863,12.4142136 C3.73367004,13.1952621 3.73367004,14.4615921 4.51471863,15.2426407 L8.75735931,19.4852814 C9.5384079,20.26633 10.8047379,20.26633 11.5857864,19.4852814 L18.7701754,12.3008924 C19.1830195,11.8880483 19.39485,11.3154159 19.3500708,10.7332859 L18.9155453,5.08445467 L13.2667141,4.64992919 C12.6845841,4.60514996 12.1119517,4.81698046 11.6991076,5.2298246 Z M13.7071068,7.46446609 C14.4881554,6.68341751 15.7544853,6.68341751 16.5355339,7.46446609 C17.3165825,8.24551468 17.3165825,9.51184464 16.5355339,10.2928932 C15.7544853,11.0739418 14.4881554,11.0739418 13.7071068,10.2928932 C12.9260582,9.51184464 12.9260582,8.24551468 13.7071068,7.46446609 Z"/>
</svg>
