<svg xmlns="http://www.w3.org/2000/svg" width="24" height="24" viewBox="0 0 24 24">
  <path fill="#344055" fill-rule="evenodd" d="M21,22 L3,22 C2.447,22 2,21.552 2,21 C2,20.448 2.447,20 3,20 L21,20 C21.553,20 22,20.448 22,21 C22,21.552 21.553,22 21,22 M9.7393,11.9878 L12.0183,6.5998 L14.2393,12.0118 L9.7393,11.9878 Z M17.8923,15.6468 L12.9573,3.6198 C12.8033,3.2468 12.4403,3.0028 12.0373,2.99978765 C11.6343,2.9978 11.2683,3.2388 11.1113,3.6108 L6.0473,15.5838 C5.8313,16.0918 6.0693,16.6788 6.5783,16.8938 C7.0873,17.1108 7.6733,16.8718 7.8883,16.3628 L8.9013,13.9678 C8.9283,13.9698 8.9513,13.9838 8.9783,13.9838 L14.9783,14.0158 C15.0063,14.0158 15.0293,14.0028 15.0553,14.0008 L16.0433,16.4068 C16.2013,16.7908 16.5713,17.0248 16.9633,17.0278 C17.0923,17.0278 17.2213,17.0038 17.3473,16.9518 C17.8583,16.7418 18.1023,16.1578 17.8923,15.6468 L17.8923,15.6468 Z"/>
</svg>
