<?xml version="1.0" encoding="UTF-8"?>
<svg width="24px" height="24px" viewBox="0 0 24 24" version="1.1" xmlns="http://www.w3.org/2000/svg" xmlns:xlink="http://www.w3.org/1999/xlink">
    <title>Icons/Thumbs Up</title>
    <g id="Icons/Thumbs-Up" stroke="none" stroke-width="1" fill="none" fill-rule="evenodd">
        <path d="M13.5,2 C15.9142733,2 17.8844891,3.90123652 17.995102,6.2881643 L18,6.5 L18,9 L19,9 C20.5976809,9 21.9036609,10.24892 21.9949073,11.8237272 L22,12 L22,15 C22,18.2383969 19.4344251,20.8775718 16.2249383,20.9958615 L16,21 L8.73181186,21.0010775 C8.38584934,21.5982846 7.7398375,22 7,22 L7,22 L4,22 C2.8954305,22 2,21.1045695 2,20 L2,20 L2,11 C2,9.8954305 2.8954305,9 4,9 L4,9 L7,9 C7.74025244,9 8.38657394,9.40216612 8.73239368,9.99992752 L10,10 C10.5128358,10 10.9355072,9.61395981 10.9932723,9.11662113 L11,9 L11,3 C11,2.48716416 11.3860402,2.06449284 11.8833789,2.00672773 L12,2 L13.5,2 Z M7,11 L4,11 L4,20 L7,20 L7,11 Z M13.5,4 L13,4 L13,9 C13,10.5976809 11.75108,11.9036609 10.1762728,11.9949073 L10,12 L9,12 L9,19 L16,19 C18.1421954,19 19.8910789,17.3160315 19.9951047,15.1996403 L20,15 L20,12 C20,11.4871642 19.6139598,11.0644928 19.1166211,11.0067277 L19,11 L18,11 C16.9456382,11 16.0818349,10.1841222 16.0054857,9.14926234 L16,9 L16,6.5 C16,5.1745166 14.9684641,4.08996133 13.6643757,4.00531768 L13.5,4 Z" id="🎨-Icon-color" fill="#344055"></path>
    </g>
</svg>