<svg xmlns="http://www.w3.org/2000/svg" width="24" height="24" viewBox="0 0 24 24">
  <path fill="#344055" fill-rule="evenodd" d="M8,7 L4.897,7 C4.35351301,7 4,7.30939752 4,7.53575 L4,8.53512878 C5.19560274,9.22674762 6,10.5194353 6,12 C6,13.4805647 5.19560274,14.7732524 4,15.4648712 L4,16.465125 C4,16.6906181 4.35357936,17 4.897,17 L8,17 L8,7 Z M8,7 L10,7 L10,17 L19.103,17 C19.6464206,17 20,16.6906181 20,16.465125 L20,15.4648712 C18.8043973,14.7732524 18,13.4805647 18,12 C18,10.5194353 18.8043973,9.22674762 20,8.53512878 L20,7.53575 C20,7.30939752 19.646487,7 19.103,7 L8,7 Z M2,10 L2,7.53575 C2,6.141 3.304,5 4.897,5 L19.103,5 C20.696,5 22,6.141 22,7.53575 L22,10 C20.8954305,10 20,10.8954305 20,12 C20,13.1045695 20.8954305,14 22,14 L22,16.465125 C22,17.859 20.696,19 19.103,19 L4.897,19 C3.304,19 2,17.859 2,16.465125 L2,14 C3.1045695,14 4,13.1045695 4,12 C4,10.8954305 3.1045695,10 2,10 Z"/>
</svg>
