<svg xmlns="http://www.w3.org/2000/svg" width="24" height="24" viewBox="0 0 24 24">
  <path fill="#344055" fill-rule="evenodd" d="M12,20 C7.58,20 4,16.42 4,12 C4,7.58 7.58,4 12,4 C16.42,4 20,7.58 20,12 C20,16.42 16.42,20 12,20 L12,20 Z M11.99,2 C6.47,2 2,6.48 2,12 C2,17.52 6.47,22 11.99,22 C17.52,22 22,17.52 22,12 C22,6.48 17.52,2 11.99,2 L11.99,2 Z M16,14 L12,14 C11.447,14 11,13.552 11,13 L11,7 C11,6.448 11.447,6 12,6 C12.553,6 13,6.448 13,7 L13,12 L16,12 C16.553,12 17,12.448 17,13 C17,13.552 16.553,14 16,14"/>
</svg>
