<svg xmlns="http://www.w3.org/2000/svg" width="24" height="24" viewBox="0 0 24 24">
  <path fill="#344055" fill-rule="evenodd" d="M19.6585046,4.24742331 C20.0421692,4.58312982 20.107569,5.14726 19.8293145,5.5589723 L19.7525767,5.65850461 L18.6423166,6.92705708 L18.564,6.845 L18.556,6.837 L18.7594558,7.06063661 C20.1543072,8.64583703 21,10.7247577 21,13 C21,17.968 16.968,22 11.991,22 C7.023,22 3,17.968 3,13 C3,8.032 7.023,4 11.991,4 C14.0186293,4 15.8894125,4.66920988 17.3946126,5.79828411 L17.629,5.98 L17.8575432,6.16987604 C18.0076403,6.29867269 18.1534432,6.43232062 18.2947083,6.57057566 L18.49,6.768 L18.365438,6.63751626 C18.1766241,6.44861528 17.9794543,6.26806707 17.7745306,6.09647353 L17.629,5.98 L17.4614046,5.84587448 C17.3551409,5.76463029 17.247014,5.68570001 17.1370991,5.60915888 L18.2474233,4.34149539 C18.6111054,3.92585876 19.242868,3.88374125 19.6585046,4.24742331 Z M11.991,6 C8.12990426,6 5,9.13423331 5,13 C5,16.8657667 8.12990426,20 11.991,20 C15.8623472,20 19,16.8645126 19,13 C19,9.1354874 15.8623472,6 11.991,6 Z M12,8 C12.5522847,8 13,8.44771525 13,9 L13,13 C13,13.5522847 12.5522847,14 12,14 C11.4477153,14 11,13.5522847 11,13 L11,9 C11,8.44771525 11.4477153,8 12,8 Z M14,1 C14.5522847,1 15,1.44771525 15,2 C15,2.55228475 14.5522847,3 14,3 L10,3 C9.44771525,3 9,2.55228475 9,2 C9,1.44771525 9.44771525,1 10,1 L14,1 Z"/>
</svg>
