<svg xmlns="http://www.w3.org/2000/svg" width="24" height="24" viewBox="0 0 24 24">
  <path fill="#344055" fill-rule="evenodd" d="M12.503871,3.83514167 C12.8110887,4.014352 13,4.34325351 13,4.69892057 L12.999037,10.9997578 L16.258963,11 C16.8112478,11 17.258963,11.4477153 17.258963,12 C17.258963,12.1770546 17.2119546,12.350935 17.1227419,12.503871 L12.8637789,19.8049505 C12.5854986,20.2820024 11.9731809,20.4431386 11.496129,20.1648583 C11.1889113,19.985648 11,19.6567465 11,19.3010794 L10.999037,12.9997578 L7.741037,13 C7.18875225,13 6.741037,12.5522847 6.741037,12 C6.741037,11.8229454 6.7880454,11.649065 6.8772581,11.496129 L11.1362211,4.19504954 C11.4145014,3.71799763 12.0268191,3.55686139 12.503871,3.83514167 Z"/>
</svg>
