<svg xmlns="http://www.w3.org/2000/svg" width="24" height="24" viewBox="0 0 24 24">
  <path fill="#344055" fill-rule="evenodd" d="M8.661,19.629 C15.454,19.629 19.169,14.001 19.169,9.121 C19.169,8.962 19.165,8.803 19.158,8.644 C19.879,8.123 20.506,7.473 21,6.732 C20.339,7.025 19.626,7.224 18.88,7.314 C19.642,6.856 20.227,6.133 20.504,5.271 C19.79,5.693 19,6.001 18.159,6.167 C17.485,5.449 16.525,5 15.463,5 C13.423,5 11.769,6.654 11.769,8.692 C11.769,8.983 11.802,9.265 11.866,9.534 C8.796,9.38 6.075,7.911 4.253,5.676 C3.936,6.222 3.753,6.856 3.753,7.532 C3.753,8.814 4.405,9.944 5.396,10.607 C4.79,10.588 4.221,10.421 3.724,10.145 C3.723,10.16 3.723,10.175 3.723,10.191 C3.723,11.981 4.996,13.474 6.686,13.812 C6.376,13.897 6.049,13.942 5.712,13.942 C5.474,13.942 5.243,13.918 5.018,13.875 C5.488,15.343 6.851,16.41 8.468,16.441 C7.204,17.431 5.612,18.021 3.881,18.021 C3.583,18.021 3.289,18.004 3,17.97 C4.635,19.018 6.576,19.629 8.661,19.629"/>
</svg>
