<svg xmlns="http://www.w3.org/2000/svg" width="24" height="24" viewBox="0 0 24 24">
  <path fill="#344055" fill-rule="evenodd" d="M19,3 C20.6568542,3 22,4.34314575 22,6 C22,7.30588222 21.1656226,8.41688515 20.0009007,8.82897577 L20,17 C20,19.209139 18.209139,21 16,21 L8,21 C5.790861,21 4,19.209139 4,17 L4.00008893,8.82932572 C2.8348501,8.41751442 2,7.30625206 2,6 C2,4.34314575 3.34314575,3 5,3 L19,3 Z M18,9 L6,9 L6,17 C6,18.1045695 6.8954305,19 8,19 L16,19 C17.1045695,19 18,18.1045695 18,17 L18,9 Z M11.2928932,11.2928932 C11.6834175,10.9023689 12.3165825,10.9023689 12.7071068,11.2928932 L12.7071068,11.2928932 L15.7228569,14.3086433 C16.1133812,14.6991676 16.1133812,15.3323326 15.7228569,15.7228569 C15.3323326,16.1133812 14.6991676,16.1133812 14.3086433,15.7228569 L14.3086433,15.7228569 L12,13.4142136 L9.69135667,15.7228569 C9.30083238,16.1133812 8.6676674,16.1133812 8.27714311,15.7228569 C7.88661882,15.3323326 7.88661882,14.6991676 8.27714311,14.3086433 L8.27714311,14.3086433 Z M19,5 L5,5 C4.44771525,5 4,5.44771525 4,6 C4,6.55228475 4.44771525,7 5,7 L19,7 C19.5522847,7 20,6.55228475 20,6 C20,5.44771525 19.5522847,5 19,5 Z"/>
</svg>
