<svg xmlns="http://www.w3.org/2000/svg" width="24" height="24" viewBox="0 0 24 24">
  <path fill="#344055" fill-rule="evenodd" d="M18,21 L6,21 C5.447,21 5,20.553 5,20 C5,19.447 5.447,19 6,19 L18,19 C18.553,19 19,19.447 19,20 C19,20.553 18.553,21 18,21 Z M18,4 L18,11 C18,14.3137085 15.3137085,17 12,17 C8.6862915,17 6,14.3137085 6,11 L6,4 C6,3.44771525 6.44771525,3 7,3 C7.55228475,3 8,3.44771525 8,4 L8,11 C8,13.209139 9.790861,15 12,15 C14.209139,15 16,13.209139 16,11 L16,4 C16,3.44771525 16.4477153,3 17,3 C17.5522847,3 18,3.44771525 18,4 Z"/>
</svg>
