<svg xmlns="http://www.w3.org/2000/svg" width="24" height="24" viewBox="0 0 24 24">
  <path fill="#344055" fill-rule="evenodd" d="M12.0656572,14.94 L15.7906572,17.65 L14.3636572,13.271 L18.0656572,10.636 L13.5296572,10.636 L12.0656572,6.093 L10.6016572,10.636 L6.0656572,10.636 L9.7676572,13.271 L8.3406572,17.65 L12.0656572,14.94 Z M7.3876572,20.463 C7.0786572,20.463 6.7696572,20.368 6.5046572,20.175 C5.9766572,19.792 5.7576572,19.117 5.9616572,18.496 L7.4106572,14.048 L3.6296572,11.358 C3.0976572,10.979 2.8736572,10.305 3.0706572,9.682 C3.2716572,9.055 3.8456572,8.636 4.5006572,8.636 L9.1446572,8.636 L10.6376572,4.002 C10.8316572,3.403 11.4046572,3 12.0656572,3 C12.7266572,3 13.2996572,3.403 13.4936572,4.003 L14.9866572,8.636 L19.6306572,8.636 C20.2856572,8.636 20.8596572,9.055 21.0596572,9.678 L21.0606572,9.682 C21.2576572,10.305 21.0336572,10.979 20.5016572,11.358 L16.7206572,14.048 L18.1696572,18.499 C18.3736572,19.117 18.1546572,19.792 17.6256572,20.176 C17.1156572,20.549 16.3756572,20.552 15.8576572,20.173 L12.0656572,17.413 L8.2706572,20.175 C8.0056572,20.368 7.6976572,20.463 7.3876572,20.463 L7.3876572,20.463 Z"/>
</svg>
