<svg xmlns="http://www.w3.org/2000/svg" width="24" height="24" viewBox="0 0 24 24">
  <path fill="#344055" fill-rule="evenodd" d="M8,5 C5.794,5 4,6.794 4,9 C4,9.562 4.127,10.123 4.376,10.666 C5.789,14.09 10.396,17.624 12,18.778 C13.604,17.623 18.211,14.09 19.607,10.703 C19.873,10.123 20,9.562 20,9 C20,6.794 18.206,5 16,5 C14.736,5 13.571,5.592 12.802,6.625 C12.425,7.131 11.575,7.131 11.198,6.625 C10.429,5.592 9.264,5 8,5 M12,21 C11.807,21 11.612,20.944 11.444,20.832 C11.161,20.642 4.468,16.133 2.543,11.465 C2.188,10.695 2,9.854 2,9 C2,5.691 4.691,3 8,3 C9.501,3 10.908,3.552 12,4.544 C13.092,3.552 14.499,3 16,3 C19.309,3 22,5.691 22,9 C22,9.854 21.812,10.695 21.44,11.502 C19.532,16.133 12.839,20.642 12.556,20.832 C12.388,20.944 12.193,21 12,21"/>
</svg>
