<svg xmlns="http://www.w3.org/2000/svg" width="24" height="24" viewBox="0 0 24 24">
  <path fill="#344055" fill-rule="evenodd" d="M16.5908734,2.76658091 C16.7222629,2.84784702 16.843794,2.94406314 16.9530354,3.05330459 L20.9465977,7.0468669 C21.7276463,7.82791548 21.7276463,9.09424544 20.9465977,9.87529402 C20.8373563,9.98453547 20.7158252,10.0807516 20.5844357,10.1620177 L17.8045402,11.8814188 C17.0352833,12.3572141 16.4499956,13.0796841 16.1441893,13.9309301 L15.066371,16.9311576 C14.6929263,17.9706829 13.5474877,18.5106478 12.5079625,18.137203 C12.2304593,18.0375112 11.9784328,17.8776919 11.7699305,17.6691896 L9.757,15.6562416 L5.70710678,19.7071068 L5.70710678,19.7071068 C5.31658249,20.0976311 4.68341751,20.0976311 4.29289322,19.7071068 C3.93240926,19.3466228 3.90467972,18.7793918 4.20970461,18.3871006 L4.29289322,18.2928932 C5.98046497,16.6053215 7.33112222,15.2546642 8.34486497,14.2409215 L6.33071273,12.2299718 C5.54966415,11.4489232 5.54966415,10.1825933 6.33071273,9.40154468 C6.53921505,9.19304236 6.79124157,9.033223 7.06874469,8.93353125 L10.0689722,7.85571297 C10.9202182,7.54990665 11.6426882,6.96461899 12.1184835,6.19536212 L13.8378846,3.41546659 C14.4189166,2.47606489 15.6514717,2.18554888 16.5908734,2.76658091 Z M15.5388218,4.46751815 L13.8194207,7.24741368 C13.1567059,8.31887861 12.17495,9.15240377 11.0157475,9.63328062 L10.7451538,9.73793996 L7.7449263,10.8157582 L13.1841441,16.254976 L14.2619623,13.2547485 C14.6879069,12.0690844 15.4753234,11.049975 16.5095035,10.3390148 L16.7524886,10.1804816 L19.5323841,8.46108046 L15.5388218,4.46751815 Z"/>
</svg>
