<svg xmlns="http://www.w3.org/2000/svg" width="24" height="24" viewBox="0 0 24 24">
  <path fill="#344055" fill-rule="evenodd" d="M13,8.414 L13,18 C13,18.5522847 12.5522847,19 12,19 C11.4477153,19 11,18.5522847 11,18 L11,8.4145 L7.70725,11.70725 C7.31625,12.09825 6.68425,12.09825 6.29325,11.70725 C5.90225,11.31625 5.90225,10.68425 6.29325,10.29325 L11.2707201,5.31577989 C11.45315,5.12141291 11.7123962,5 12,5 C12.2824126,5 12.5374821,5.11706954 12.7193267,5.3053267 L17.70725,10.29325 C18.09825,10.68425 18.09825,11.31625 17.70725,11.70725 C17.51225,11.90225 17.25625,12.00025 17.00025,12.00025 C16.74425,12.00025 16.48825,11.90225 16.29325,11.70725 L13,8.414 Z"/>
</svg>
