<svg xmlns="http://www.w3.org/2000/svg" width="24" height="24" viewBox="0 0 24 24">
  <path fill="#344055" fill-rule="evenodd" d="M12,2 C17.52,2 22,6.48 22,12 C22,17.52 17.52,22 12,22 C6.48,22 2,17.52 2,12 C2,6.48 6.48,2 12,2 Z M15,8 C15,6.34 13.66,5 12,5 C10.34,5 9,6.34 9,8 C9,9.66 10.34,11 12,11 C13.66,11 15,9.66 15,8 Z M8.9486833,17.3162278 C9.48158564,15.7175207 10.4382799,15 12,15 C13.5617201,15 14.5184144,15.7175207 15.0513167,17.3162278 C15.2259645,17.8401711 15.7922844,18.1233311 16.3162278,17.9486833 C16.8401711,17.7740355 17.1233311,17.2077156 16.9486833,16.6837722 C16.1482523,14.2824793 14.4382799,13 12,13 C9.56172005,13 7.85174769,14.2824793 7.0513167,16.6837722 C6.87666893,17.2077156 7.15982892,17.7740355 7.68377223,17.9486833 C8.20771555,18.1233311 8.77403553,17.8401711 8.9486833,17.3162278 Z"/>
</svg>
