<svg xmlns="http://www.w3.org/2000/svg" width="24" height="24" viewBox="0 0 24 24">
  <path fill="#344055" fill-rule="evenodd" d="M12,12 C15.7854517,12 18.8690987,15.0047834 18.995941,18.7593502 L19,19 C19,19.5522847 18.5522847,20 18,20 C17.4871642,20 17.0644928,19.6139598 17.0067277,19.1166211 L17,19 C17,16.2385763 14.7614237,14 12,14 C9.3112453,14 7.11818189,16.1223067 7.00461951,18.7831104 L7,19 C7,19.5522847 6.55228475,20 6,20 C5.48716416,20 5.06449284,19.6139598 5.00672773,19.1166211 L5,19 C5,15.1340068 8.13400675,12 12,12 Z M12,4 C13.66,4 15,5.34 15,7 C15,8.66 13.66,10 12,10 C10.34,10 9,8.66 9,7 C9,5.34 10.34,4 12,4 Z"/>
</svg>
