<svg xmlns="http://www.w3.org/2000/svg" width="24" height="24" viewBox="0 0 24 24">
  <path fill="#344055" fill-rule="evenodd" d="M17.753,8.659 L10.753,16.659 C10.57,16.867 10.31,16.991 10.033,17 C10.023,17 10.011,17 10,17 C9.735,17 9.481,16.895 9.293,16.707 L5.293,12.707 C4.902,12.317 4.902,11.684 5.293,11.293 C5.684,10.903 6.316,10.903 6.707,11.293 L9.951,14.537 L16.247,7.342 C16.611,6.925 17.243,6.884 17.658,7.248 C18.074,7.612 18.116,8.243 17.753,8.659 M12,2 C6.481,2 2,6.48 2,12 C2,17.52 6.481,22 12,22 C17.52,22 22,17.52 22,12 C22,6.48 17.52,2 12,2"/>
</svg>
