<svg xmlns="http://www.w3.org/2000/svg" width="24" height="24" viewBox="0 0 24 24">
  <path fill="#344055" fill-rule="evenodd" d="M12,2 L18.4385029,4.14616764 C20.0346987,4.6782329 21.1272992,6.15229056 21.1721703,7.83423023 C21.2083375,9.19000617 21.1509474,10.2452628 21,11 C19.6933333,17.5333333 16.786,21.1854667 12.278,21.9564 L12,22 C7.33333333,21.3333333 4.33333333,17.6666667 3,11 C2.84905255,10.2452628 2.79166246,9.19000617 2.82782971,7.83423023 C2.87270085,6.15229056 3.96530129,4.6782329 5.56149709,4.14616764 L12,2 Z M12,4.10818511 L6.19395262,6.04353423 C5.39585505,6.30956676 4.84955398,7.04659614 4.82711846,7.88756411 C4.794595,9.10674784 4.84450659,10.0244939 4.96116135,10.6077677 C6.11347121,16.369317 8.44972454,19.3361887 12.0004422,19.974593 C15.5428815,19.3403967 17.8857232,16.3733451 19.0388386,10.6077677 C19.1554934,10.0244939 19.205405,9.10674784 19.1728816,7.88756767 C19.150446,7.04659614 18.604145,6.30956676 17.8060474,6.04353423 L12,4.10818511 Z M15.2926821,8.29310435 C15.6832064,7.90258006 16.3163714,7.90258006 16.7068956,8.29310435 C17.0974199,8.68362865 17.0974199,9.31679362 16.7068956,9.70731792 L16.7068956,9.70731792 L11.7071068,14.7071068 C11.3165825,15.0976311 10.6834175,15.0976311 10.2928932,14.7071068 L10.2928932,14.7071068 L8.29289322,12.7071068 C7.90236893,12.3165825 7.90236893,11.6834175 8.29289322,11.2928932 C8.68341751,10.9023689 9.31658249,10.9023689 9.70710678,11.2928932 L9.70710678,11.2928932 L11,12.5857864 Z"/>
</svg>
