<svg xmlns="http://www.w3.org/2000/svg" width="24" height="24" viewBox="0 0 24 24">
  <path fill="#344055" fill-rule="evenodd" d="M12,20 C16.418278,20 20,16.418278 20,12 C20,7.581722 16.418278,4 12,4 C7.581722,4 4,7.581722 4,12 C4,16.418278 7.581722,20 12,20 Z M12,22 C6.4771525,22 2,17.5228475 2,12 C2,6.4771525 6.4771525,2 12,2 C17.5228475,2 22,6.4771525 22,12 C22,17.5228475 17.5228475,22 12,22 Z M11.753,15.659 C11.57,15.867 11.31,15.991 11.033,16 C10.735,16 10.481,15.895 10.293,15.707 L7.293,12.707 C6.902,12.317 6.902,11.684 7.293,11.293 C7.684,10.903 8.316,10.903 8.707,11.293 C8.76122222,11.3472222 8.96855556,11.5545556 9.329,11.915 C9.68944444,12.2754444 10.2301111,12.8161111 10.951,13.537 L15.247,8.342 C15.611,7.925 16.243,7.884 16.658,8.248 C17.074,8.612 17.116,9.243 16.753,9.659 L11.753,15.659 Z"/>
</svg>
