<svg xmlns="http://www.w3.org/2000/svg" width="24" height="24" viewBox="0 0 24 24">
  <path fill="#344055" fill-rule="evenodd" d="M18,3 C20.209139,3 22,4.790861 22,7 L22,17 C22,19.209139 20.209139,21 18,21 L6,21 C3.790861,21 2,19.209139 2,17 L2,7 C2,4.790861 3.790861,3 6,3 L18,3 Z M20,9 L4,9 L4,17 C4,18.1045695 4.8954305,19 6,19 L18,19 C19.1045695,19 20,18.1045695 20,17 L20,9 Z M11.3333333,11.14994 L14.6666667,13.3999631 C14.8766667,13.5417146 15,13.7637168 15,13.9999693 C15,14.2362217 14.8766667,14.458974 14.6666667,14.5999754 L11.3333333,16.8499985 C11.1866667,16.9497495 11.01,17 10.8333333,17 C10.7066667,17 10.5791667,16.9737497 10.4608333,16.9212492 C10.1783333,16.7937479 10,16.5342452 10,16.2499923 L10,11.7499462 C10,11.4656933 10.1783333,11.2061906 10.4608333,11.0794393 C10.7425,10.951938 11.0808333,10.9796883 11.3333333,11.14994 Z M18,5 C17.4477153,5 17,5.44771525 17,6 C17,6.55228475 17.4477153,7 18,7 C18.5522847,7 19,6.55228475 19,6 C19,5.44771525 18.5522847,5 18,5 Z M6,5 C5.44771525,5 5,5.44771525 5,6 C5,6.55228475 5.44771525,7 6,7 C6.55228475,7 7,6.55228475 7,6 C7,5.44771525 6.55228475,5 6,5 Z M10,5 C9.44771525,5 9,5.44771525 9,6 C9,6.55228475 9.44771525,7 10,7 C10.5522847,7 11,6.55228475 11,6 C11,5.44771525 10.5522847,5 10,5 Z M14,5 C13.4477153,5 13,5.44771525 13,6 C13,6.55228475 13.4477153,7 14,7 C14.5522847,7 15,6.55228475 15,6 C15,5.44771525 14.5522847,5 14,5 Z"/>
</svg>
