<svg xmlns="http://www.w3.org/2000/svg" width="24" height="24" viewBox="0 0 24 24">
  <path fill="#344055" fill-rule="evenodd" d="M5,6 L7,6 C7.55228475,6 8,6.44771525 8,7 L8,9 C8,9.55228475 7.55228475,10 7,10 L5,10 C4.44771525,10 4,9.55228475 4,9 L4,7 C4,6.44771525 4.44771525,6 5,6 Z M11,6 L13,6 C13.5522847,6 14,6.44771525 14,7 L14,9 C14,9.55228475 13.5522847,10 13,10 L11,10 C10.4477153,10 10,9.55228475 10,9 L10,7 C10,6.44771525 10.4477153,6 11,6 Z M17,6 L19,6 C19.5522847,6 20,6.44771525 20,7 L20,9 C20,9.55228475 19.5522847,10 19,10 L17,10 C16.4477153,10 16,9.55228475 16,9 L16,7 C16,6.44771525 16.4477153,6 17,6 Z M5,14 L7,14 C7.55228475,14 8,14.4477153 8,15 L8,17 C8,17.5522847 7.55228475,18 7,18 L5,18 C4.44771525,18 4,17.5522847 4,17 L4,15 C4,14.4477153 4.44771525,14 5,14 Z M11,14 L13,14 C13.5522847,14 14,14.4477153 14,15 L14,17 C14,17.5522847 13.5522847,18 13,18 L11,18 C10.4477153,18 10,17.5522847 10,17 L10,15 C10,14.4477153 10.4477153,14 11,14 Z M17,14 L19,14 C19.5522847,14 20,14.4477153 20,15 L20,17 C20,17.5522847 19.5522847,18 19,18 L17,18 C16.4477153,18 16,17.5522847 16,17 L16,15 C16,14.4477153 16.4477153,14 17,14 Z"/>
</svg>
