<svg xmlns="http://www.w3.org/2000/svg" width="24" height="24" viewBox="0 0 24 24">
  <path fill="#344055" fill-rule="evenodd" d="M17.1191,13.4458889 C16.7931,13.4439 16.5151,13.7119 16.5021,14.0419 C16.4871,14.3939 16.7621,14.6839 17.1111,14.6849029 C17.4491,14.6859 17.7171,14.4309 17.7281,14.0939 C17.7421,13.7409 17.4681,13.4479 17.1191,13.4458889 M13.2371,14.6899 C13.5741,14.6899 13.8511,14.4259 13.8641,14.0929 C13.8781,13.7419 13.5941,13.4459 13.2411,13.4448901 C12.8921,13.4429 12.5991,13.7429 12.6121,14.0899 C12.6231,14.4209 12.9021,14.6889 13.2371,14.6899 M19.2601,20.5209 C18.7301,20.2849 18.2451,19.9309 17.7281,19.8779 C17.2141,19.8239 16.6731,20.1209 16.1341,20.1759 C14.4941,20.3429 13.0241,19.8859 11.8121,18.7659 C9.5081,16.6339 9.8371,13.3659 12.5041,11.6189 C14.8731,10.0659 18.3481,10.5839 20.0191,12.7379 C21.4771,14.6179 21.3061,17.1129 19.5261,18.6919 C19.0111,19.1489 18.8261,19.5259 19.1561,20.1289 C19.2181,20.2399 19.2241,20.3809 19.2601,20.5209 M11.8281,8.6529 C11.4161,8.6609 11.0671,9.0119 11.0741,9.4129 C11.0821,9.8279 11.4241,10.1529 11.8481,10.1479 C12.2721,10.1419 12.5951,9.8139 12.5911,9.3899 C12.5881,8.9739 12.2471,8.6449 11.8281,8.6529 M7.8151,9.4239 C7.8311,9.0249 7.4851,8.6659 7.0741,8.6529 C6.6541,8.6409 6.3081,8.9629 6.2961,9.3769 C6.2831,9.7969 6.6041,10.1329 7.0281,10.1439 C7.4481,10.1549 7.8001,9.8329 7.8151,9.4239 M15.5061,10.1039 C13.8351,10.1909 12.3821,10.6979 11.2021,11.8419 C10.0111,12.9989 9.4671,14.4149 9.6151,16.1719 C8.9621,16.0899 8.3671,16.0019 7.7681,15.9509 C7.5621,15.9329 7.3171,15.9589 7.1421,16.0569 C6.5611,16.3839 6.0041,16.7549 5.3441,17.1679 C5.4661,16.6199 5.5441,16.1399 5.6821,15.6779 C5.7841,15.3399 5.7371,15.1509 5.4251,14.9299 C3.4191,13.5139 2.5731,11.3939 3.2061,9.2129 C3.7921,7.1939 5.2291,5.9699 7.1821,5.3319 C9.8491,4.4609 12.8451,5.3489 14.4671,7.4659 C15.0521,8.2309 15.4111,9.0889 15.5061,10.1039"/>
</svg>
