<svg xmlns="http://www.w3.org/2000/svg" width="24" height="24" viewBox="0 0 24 24">
  <path fill="#344055" fill-rule="evenodd" d="M12,14 C13.1045695,14 14,14.8954305 14,16 C14,17.1045695 13.1045695,18 12,18 C10.8954305,18 10,17.1045695 10,16 C10,14.8954305 10.8954305,14 12,14 Z M5.63603897,12.2928932 C9.15075759,8.77817459 14.8492424,8.77817459 18.363961,12.2928932 C18.7544853,12.6834175 18.7544853,13.3165825 18.363961,13.7071068 C17.9734367,14.0976311 17.3402718,14.0976311 16.9497475,13.7071068 C14.2160774,10.9734367 9.78392257,10.9734367 7.05025253,13.7071068 C6.65972824,14.0976311 6.02656326,14.0976311 5.63603897,13.7071068 C5.24551468,13.3165825 5.24551468,12.6834175 5.63603897,12.2928932 Z M2.80761184,9.29289322 C7.88442764,4.21607743 16.1155724,4.21607743 21.1923882,9.29289322 C21.5829124,9.68341751 21.5829124,10.3165825 21.1923882,10.7071068 C20.8018639,11.0976311 20.1686989,11.0976311 19.7781746,10.7071068 C15.4824074,6.41133957 8.51759262,6.41133957 4.22182541,10.7071068 C3.83130112,11.0976311 3.19813614,11.0976311 2.80761184,10.7071068 C2.41708755,10.3165825 2.41708755,9.68341751 2.80761184,9.29289322 Z"/>
</svg>
