<svg xmlns="http://www.w3.org/2000/svg" width="24" height="24" viewBox="0 0 24 24">
  <path fill="#344055" fill-rule="evenodd" d="M13.01,15.19 L16.34,15.19 C16.8037452,15.19 17.21,15.5874232 17.21,16.06 C17.21,16.5325768 16.8037452,16.93 16.34,16.93 L13.01,16.93 L13.01,18.32 C13.01,18.893982 12.5621252,19.35 12,19.35 C11.4378748,19.35 10.99,18.893982 10.99,18.32 L10.99,16.93 L7.66,16.93 C7.1962548,16.93 6.79,16.5325768 6.79,16.06 C6.79,15.5874232 7.1962548,15.19 7.66,15.19 L10.99,15.19 L10.99,13.93 L7.66,13.93 C7.1962548,13.93 6.79,13.5325768 6.79,13.06 C6.79,12.5874232 7.1962548,12.19 7.66,12.19 L10.2582422,12.19 L6.14562677,6.34862394 C6.00212164,6.10944872 5.93,5.88707367 5.93,5.66 C5.93,5.11192881 6.39192881,4.65 6.96,4.65 C7.37631647,4.65 7.67798647,4.85739812 7.90761494,5.24073035 L12.0201583,11.3714662 L16.154452,5.21769751 C16.4017362,4.86050919 16.7143104,4.65 17.1,4.65 C17.6440172,4.65 18.09,5.08772389 18.09,5.64 C18.09,5.86529039 18.0156361,6.05863652 17.843787,6.36481324 L13.7043456,12.19 L16.34,12.19 C16.8037452,12.19 17.21,12.5874232 17.21,13.06 C17.21,13.5325768 16.8037452,13.93 16.34,13.93 L13.01,13.93 L13.01,15.19 Z"/>
</svg>
