<svg xmlns="http://www.w3.org/2000/svg" width="24" height="24" viewBox="0 0 24 24">
  <path fill="#344055" fill-rule="evenodd" d="M10.000047,14.9999765 L10.000047,8.99985889 L15.1959454,12.0000823 L10.000047,14.9999765 Z M21.5821211,7.18596174 C21.3521326,6.32560355 20.674514,5.64782041 19.8139912,5.41783182 C18.2542833,5 11.9999765,5 11.9999765,5 C11.9999765,5 5.74583426,5 4.18612637,5.41783182 C3.32560355,5.64782041 2.64798504,6.32560355 2.41799645,7.18596174 C2,8.74583426 2,11.9999177 2,11.9999177 C2,11.9999177 2,15.2541657 2.41799645,16.8138736 C2.64798504,17.6742318 3.32560355,18.3521796 4.18612637,18.5820036 C5.74583426,19 11.9999765,19 11.9999765,19 C11.9999765,19 18.2542833,19 19.8139912,18.5820036 C20.674514,18.3521796 21.3521326,17.6742318 21.5821211,16.8138736 C22.0001176,15.2541657 22.0001176,11.9999177 22.0001176,11.9999177 C22.0001176,11.9999177 22.0001176,8.74583426 21.5821211,7.18596174 L21.5821211,7.18596174 Z"/>
</svg>
