<?xml version="1.0" encoding="utf-8"?>
<!-- Generator: Adobe Illustrator 24.1.2, SVG Export Plug-In . SVG Version: 6.00 Build 0)  -->
<svg version="1.1" xmlns="http://www.w3.org/2000/svg" xmlns:xlink="http://www.w3.org/1999/xlink" x="0px" y="0px"
	 viewBox="0 0 160.4 191.9" style="enable-background:new 0 0 160.4 191.9;" xml:space="preserve">
<style type="text/css">
	.st0{fill:#101E1E;}
	.st1{fill:#007FFF;}
	.st2{fill:#FFFFFF;}
</style>
<g id="Layer_2">
	<g>
		<path class="st0" d="M113.9,171.3c0,1.4,1.1,2.4,2.4,2.4s2.4-1.1,2.4-2.4v-7.4c0-2.3,1.1-3.5,3-3.5c1.8,0,2.9,1.2,2.9,3.5v7.4
			c0,1.4,1.1,2.4,2.4,2.4c1.4,0,2.4-1.1,2.4-2.4v-7.4c0-2.3,1.1-3.5,3-3.5c1.8,0,2.9,1.2,2.9,3.5v7.4c0,1.4,1.1,2.4,2.4,2.4
			c1.4,0,2.4-1.1,2.4-2.4v-9c0-4.2-2.2-6.3-5.8-6.3c-2.4,0-4.2,1-5.7,2.7c-0.9-1.7-2.6-2.7-4.9-2.7c-2.5,0-4,1.3-5.1,2.8v-0.2
			c0-1.4-1.1-2.4-2.4-2.4s-2.4,1.1-2.4,2.4V171.3z M102.2,169.7c-2.7,0-4.5-2.2-4.5-4.8v-0.1c0-2.5,1.7-4.7,4.5-4.7
			c2.7,0,4.5,2.2,4.5,4.8v0.1C106.6,167.6,105,169.7,102.2,169.7 M102.1,173.9c5.4,0,9.4-4,9.4-9v-0.1c0-5-4-8.9-9.3-8.9
			c-5.4,0-9.4,4-9.4,9v0.1C92.8,170,96.8,173.9,102.1,173.9 M84.8,173.9c2.8,0,4.7-0.9,6.1-2.2c0.4-0.4,0.7-0.9,0.7-1.5
			c0-1.2-0.9-2.1-2.1-2.1c-0.6,0-1.1,0.3-1.3,0.5c-0.9,0.7-1.9,1.2-3.2,1.2c-2.7,0-4.4-2.1-4.4-4.8v-0.1c0-2.5,1.7-4.7,4.2-4.7
			c1.3,0,2.2,0.4,3.1,1.1c0.3,0.2,0.8,0.5,1.4,0.5c1.2,0,2.2-1,2.2-2.2c0-0.8-0.5-1.4-0.8-1.7c-1.5-1.2-3.3-1.9-5.9-1.9
			c-5.3,0-9.1,4.1-9.1,9v0.1C75.8,169.9,79.7,173.9,84.8,173.9 M68.8,170.9L68.8,170.9c0,1.6,1.2,2.8,2.8,2.8c1.6,0,2.8-1.2,2.8-2.7
			v-0.1c0-1.5-1.2-2.7-2.8-2.7C70,168.2,68.8,169.4,68.8,170.9 M43.4,171.3c0,1.4,1.1,2.4,2.4,2.4c1.4,0,2.4-1.1,2.4-2.4v-11.2
			l4.3,6.6c0.5,0.8,1.2,1.3,2.1,1.3c0.9,0,1.5-0.5,2.1-1.3L61,160v11.2c0,1.4,1.1,2.5,2.4,2.5c1.4,0,2.5-1.1,2.5-2.5v-17.9
			c0-1.4-1.1-2.5-2.5-2.5h-0.5c-1,0-1.7,0.4-2.2,1.3l-6,9.8l-6-9.8c-0.5-0.7-1.2-1.3-2.3-1.3h-0.5c-1.4,0-2.5,1.1-2.5,2.5V171.3z
			 M31.4,173.9c3.6,0,6-1.1,8-2.8c0.5-0.4,0.8-1,0.8-1.8c0-1.3-1.1-2.3-2.3-2.3c-0.6,0-1.1,0.2-1.5,0.5c-1.4,1.1-2.8,1.8-4.9,1.8
			c-3.9,0-6.5-3.2-6.5-7.1v-0.1c0-3.9,2.7-7,6.5-7c1.8,0,3.2,0.6,4.6,1.6c0.4,0.2,0.8,0.5,1.5,0.5c1.4,0,2.4-1.1,2.4-2.4
			c0-0.9-0.5-1.6-1-2c-1.9-1.4-4.2-2.3-7.5-2.3c-6.9,0-11.8,5.3-11.8,11.7v0.1C19.8,168.8,24.8,173.9,31.4,173.9"/>
	</g>
	<g>
		<path class="st0" d="M80.2,18C46.5,18,19,45.4,19,79.2c0,33.7,27.5,61.2,61.2,61.2c33.7,0,61.2-27.5,61.2-61.2
			C141.4,45.4,114,18,80.2,18"/>
		<path class="st1" d="M120.3,92.3c0-2.7,2.2-4.9,4.9-4.9c2.7,0,4.9,2.2,4.9,4.9c0,2.7-2.2,4.9-4.9,4.9
			C122.5,97.2,120.3,95,120.3,92.3"/>
		<path class="st2" d="M54.7,99.7c-11.3,0-20.5-9.2-20.5-20.5c0-11.3,9.2-20.5,20.5-20.5c2.2,0,4.3,0.3,6.4,1
			c2.3,0.7,3.5,3.2,2.7,5.4c-0.7,2.3-3.2,3.5-5.4,2.7c-1.2-0.4-2.4-0.6-3.7-0.6c-6.5,0-11.8,5.3-11.8,11.8c0,6.5,5.3,11.8,11.8,11.8
			c6,0,9.5-3.2,12.4-11.4l6.4-18c0.6-1.7,2.2-2.8,4-2.9c1.8,0,3.4,1.1,4.1,2.8l7.4,19.2l7.5-19.2c0.6-1.7,2.2-2.7,4-2.7
			c0,0,0,0,0.1,0c1.8,0,3.4,1.2,4,2.9l10.7,29.9c0.8,2.2-0.4,4.7-2.6,5.5c-2.2,0.8-4.7-0.4-5.5-2.6l-6.8-19l-7.3,18.8
			c-0.6,1.7-2.2,2.7-4,2.7h0c-1.8,0-3.4-1.1-4-2.8l-7.3-18.7l-2.5,7.1C72.7,89.9,67.7,99.7,54.7,99.7"/>
	</g>
</g>
<g id="Layer_1">
</g>
</svg>
