<?xml version="1.0" encoding="utf-8"?>
<!-- Generator: Adobe Illustrator 24.1.2, SVG Export Plug-In . SVG Version: 6.00 Build 0)  -->
<svg version="1.1" id="Layer_1" xmlns="http://www.w3.org/2000/svg" xmlns:xlink="http://www.w3.org/1999/xlink" x="0px" y="0px"
	 viewBox="0 0 410.1 183.9" style="enable-background:new 0 0 410.1 183.9;" xml:space="preserve">
<style type="text/css">
	.st0{fill:#101E1E;}
	.st1{fill:#007FFF;}
	.st2{fill:#FFFFFF;}
</style>
<g>
	<path class="st0" d="M333.1,107.2c0,2.3,1.9,4.2,4.2,4.2c2.3,0,4.2-1.9,4.2-4.2V94.6c0-4,1.9-6,5.1-6s4.9,2,4.9,6v12.6
		c0,2.3,1.9,4.2,4.2,4.2c2.3,0,4.2-1.9,4.2-4.2V94.6c0-4,1.9-6,5.1-6s4.9,2,4.9,6v12.6c0,2.3,1.9,4.2,4.2,4.2c2.3,0,4.2-1.9,4.2-4.2
		V91.9c0-7.1-3.8-10.8-10-10.8c-4,0-7.1,1.7-9.7,4.7c-1.5-3-4.5-4.7-8.3-4.7c-4.2,0-6.8,2.3-8.7,4.7v-0.3c0-2.3-1.9-4.2-4.2-4.2
		c-2.3,0-4.2,1.9-4.2,4.2V107.2z M313,104.5c-4.6,0-7.8-3.8-7.8-8.2v-0.1c0-4.3,2.9-8,7.7-8c4.6,0,7.8,3.8,7.8,8.2v0.1
		C320.6,100.8,317.8,104.5,313,104.5 M312.9,111.7c9.2,0,16-6.9,16-15.4v-0.1c0-8.5-6.8-15.3-15.9-15.3c-9.2,0-16,6.9-16,15.4v0.1
		C297,105,303.7,111.7,312.9,111.7 M283.4,111.7c4.9,0,8-1.5,10.5-3.8c0.7-0.7,1.2-1.5,1.2-2.6c0-2-1.5-3.6-3.5-3.6
		c-1,0-1.8,0.4-2.3,0.8c-1.6,1.3-3.3,2-5.5,2c-4.6,0-7.5-3.6-7.5-8.2v-0.1c0-4.3,3-8,7.2-8c2.2,0,3.8,0.7,5.2,1.9
		c0.5,0.4,1.3,0.8,2.4,0.8c2.1,0,3.8-1.7,3.8-3.8c0-1.4-0.8-2.4-1.3-2.9c-2.5-2.1-5.6-3.3-10.1-3.3c-9,0-15.5,6.9-15.5,15.4v0.1
		C268,104.9,274.5,111.7,283.4,111.7 M256,106.6v0.1c0,2.6,2,4.7,4.8,4.7s4.8-2,4.8-4.7v-0.1c0-2.6-2-4.7-4.8-4.7
		C258,101.9,256,104,256,106.6 M212.5,107.3c0,2.3,1.8,4.1,4.1,4.1s4.2-1.8,4.2-4.1V88.1l7.3,11.3c0.9,1.3,2,2.2,3.5,2.2
		c1.5,0,2.6-0.8,3.5-2.2l7.4-11.5v19.2c0,2.3,1.9,4.2,4.2,4.2c2.4,0,4.2-1.9,4.2-4.2V76.5c0-2.4-1.9-4.2-4.2-4.2h-0.9
		c-1.7,0-2.9,0.7-3.8,2.2l-10.3,16.8l-10.2-16.7c-0.8-1.3-2-2.2-3.9-2.2h-0.9c-2.4,0-4.2,1.9-4.2,4.2L212.5,107.3L212.5,107.3z
		 M192.1,111.7c6.2,0,10.2-1.8,13.7-4.8c0.8-0.7,1.4-1.7,1.4-3c0-2.2-1.8-3.9-4-3.9c-1,0-1.9,0.4-2.5,0.9c-2.4,1.9-4.8,3-8.4,3
		c-6.6,0-11.2-5.5-11.2-12.1v-0.1c0-6.6,4.7-12,11.2-12c3,0,5.5,1,7.9,2.8c0.6,0.4,1.4,0.8,2.5,0.8c2.3,0,4.2-1.8,4.2-4.1
		c0-1.5-0.8-2.7-1.6-3.4c-3.2-2.4-7.1-3.9-12.9-3.9c-11.9,0-20.1,9-20.1,20v0.1C172.3,103,180.7,111.7,192.1,111.7"/>
</g>
<g>
	<path class="st0" d="M93.1,30.7C59.4,30.7,32,58.2,32,91.9s27.5,61.2,61.2,61.2s61.2-27.4,61.2-61.2S126.9,30.7,93.1,30.7"/>
	<path class="st1" d="M133.3,105c0-2.7,2.2-4.9,4.9-4.9c2.7,0,4.9,2.2,4.9,4.9c0,2.7-2.2,4.9-4.9,4.9
		C135.4,109.9,133.3,107.7,133.3,105"/>
	<path class="st2" d="M67.7,112.4c-11.3,0-20.5-9.2-20.5-20.5s9.2-20.5,20.5-20.5c2.2,0,4.3,0.3,6.4,1c2.3,0.8,3.5,3.2,2.8,5.5
		c-0.8,2.3-3.2,3.5-5.5,2.8c-1.2-0.4-2.4-0.6-3.7-0.6c-6.5,0-11.8,5.3-11.8,11.8s5.3,11.8,11.8,11.8c6,0,9.5-3.2,12.4-11.4l6.4-18
		c0.6-1.7,2.2-2.8,4-2.9c1.8,0,3.4,1.1,4.1,2.8l7.4,19.2l7.5-19.2c0.7-1.7,2.2-2.8,4-2.8c0,0,0,0,0.1,0c1.8,0,3.4,1.2,4,2.9
		l10.7,29.8c0.8,2.2-0.4,4.7-2.6,5.5c-2.2,0.8-4.7-0.4-5.5-2.6l-6.8-19l-7.3,18.8c-0.7,1.7-2.2,2.8-4,2.8l0,0c-1.8,0-3.4-1.1-4-2.8
		l-7.3-18.7l-2.5,7.1C85.6,102.6,80.7,112.4,67.7,112.4"/>
</g>
</svg>
