<?xml version="1.0" encoding="utf-8"?>
<!-- Generator: Adobe Illustrator 24.1.2, SVG Export Plug-In . SVG Version: 6.00 Build 0)  -->
<svg version="1.1" xmlns="http://www.w3.org/2000/svg" xmlns:xlink="http://www.w3.org/1999/xlink" x="0px" y="0px"
	 viewBox="0 0 186.3 183.9" style="enable-background:new 0 0 186.3 183.9;" xml:space="preserve">
<style type="text/css">
	.st0{fill:#101E1E;}
	.st1{fill:#007FFF;}
	.st2{fill:#FFFFFF;}
</style>
<g id="Layer_2">
	<g>
		<path class="st0" d="M93.1,30.7C59.4,30.7,32,58.2,32,91.9c0,33.7,27.5,61.2,61.2,61.2c33.7,0,61.2-27.5,61.2-61.2
			C154.3,58.2,126.9,30.7,93.1,30.7"/>
		<path class="st1" d="M133.3,105c0-2.7,2.2-4.9,4.9-4.9c2.7,0,4.9,2.2,4.9,4.9c0,2.7-2.2,4.9-4.9,4.9
			C135.4,109.9,133.3,107.7,133.3,105"/>
		<path class="st2" d="M67.7,112.4c-11.3,0-20.5-9.2-20.5-20.5c0-11.3,9.2-20.5,20.5-20.5c2.2,0,4.3,0.3,6.4,1
			c2.3,0.7,3.5,3.2,2.7,5.4c-0.7,2.3-3.2,3.5-5.4,2.7c-1.2-0.4-2.4-0.6-3.7-0.6c-6.5,0-11.8,5.3-11.8,11.8c0,6.5,5.3,11.8,11.8,11.8
			c6,0,9.5-3.2,12.4-11.4l6.4-18c0.6-1.7,2.2-2.8,4-2.9c1.8,0,3.4,1.1,4.1,2.8l7.4,19.2l7.5-19.2c0.6-1.7,2.2-2.7,4-2.7
			c0,0,0,0,0.1,0c1.8,0,3.4,1.2,4,2.9l10.7,29.9c0.8,2.2-0.4,4.7-2.6,5.5c-2.2,0.8-4.7-0.4-5.5-2.6l-6.8-19l-7.3,18.8
			c-0.6,1.7-2.2,2.7-4,2.7h0c-1.8,0-3.4-1.1-4-2.8l-7.3-18.7l-2.5,7.1C85.6,102.6,80.7,112.4,67.7,112.4"/>
	</g>
</g>
<g id="Layer_1">
</g>
</svg>
