<?xml version="1.0" encoding="utf-8"?>
<!-- Generator: Adobe Illustrator 24.1.2, SVG Export Plug-In . SVG Version: 6.00 Build 0)  -->
<svg version="1.1" xmlns="http://www.w3.org/2000/svg" xmlns:xlink="http://www.w3.org/1999/xlink" x="0px" y="0px"
	 viewBox="0 0 163.8 198.5" style="enable-background:new 0 0 163.8 198.5;" xml:space="preserve">
<style type="text/css">
	.st0{fill:#FFFFFF;}
</style>
<g id="Layer_2">
	<g>
		<path class="st0" d="M117.4,178.3c0,1.4,1.1,2.6,2.6,2.6c1.4,0,2.6-1.1,2.6-2.6v-7.7c0-2.4,1.2-3.7,3.1-3.7c1.9,0,3,1.2,3,3.7v7.7
			c0,1.4,1.1,2.6,2.6,2.6c1.4,0,2.6-1.1,2.6-2.6v-7.7c0-2.4,1.2-3.7,3.1-3.7s3,1.2,3,3.7v7.7c0,1.4,1.1,2.6,2.6,2.6
			c1.4,0,2.6-1.1,2.6-2.6v-9.4c0-4.4-2.3-6.6-6.1-6.6c-2.5,0-4.4,1-5.9,2.9c-0.9-1.8-2.7-2.9-5.1-2.9c-2.6,0-4.2,1.4-5.3,2.9V165
			c0-1.4-1.1-2.6-2.6-2.6c-1.4,0-2.6,1.1-2.6,2.6L117.4,178.3z M105.1,176.7c-2.8,0-4.8-2.3-4.8-5v-0.1c0-2.7,1.8-4.9,4.7-4.9
			c2.8,0,4.8,2.3,4.8,5v0.1C109.8,174.4,108,176.7,105.1,176.7 M105,181.1c5.6,0,9.8-4.2,9.8-9.4v-0.1c0-5.2-4.2-9.3-9.8-9.3
			c-5.6,0-9.8,4.2-9.8,9.4v0.1C95.2,177,99.4,181.1,105,181.1 M86.9,181.1c3,0,4.9-0.9,6.4-2.3c0.4-0.4,0.7-0.9,0.7-1.6
			c0-1.2-0.9-2.2-2.2-2.2c-0.6,0-1.1,0.3-1.4,0.5c-1,0.8-2,1.2-3.4,1.2c-2.8,0-4.6-2.2-4.6-5v-0.1c0-2.7,1.8-4.9,4.4-4.9
			c1.4,0,2.3,0.4,3.2,1.1c0.3,0.2,0.8,0.5,1.5,0.5c1.3,0,2.3-1,2.3-2.3c0-0.9-0.5-1.5-0.8-1.8c-1.5-1.3-3.4-2-6.2-2
			c-5.5,0-9.5,4.3-9.5,9.4v0.1C77.5,176.9,81.5,181.1,86.9,181.1 M70.1,178L70.1,178c0,1.7,1.2,2.9,2.9,2.9c1.7,0,2.9-1.2,2.9-2.9
			V178c0-1.6-1.2-2.9-2.9-2.9C71.4,175.1,70.1,176.3,70.1,178 M43.5,178.4c0,1.4,1.1,2.5,2.5,2.5c1.4,0,2.6-1.1,2.6-2.5l0-11.7
			l4.5,6.9c0.5,0.8,1.2,1.3,2.2,1.3s1.6-0.5,2.2-1.3l4.6-7l0,11.8c0,1.4,1.1,2.6,2.6,2.6c1.5,0,2.6-1.1,2.6-2.6l0-18.8
			c0-1.5-1.1-2.6-2.6-2.6H64c-1,0-1.8,0.4-2.3,1.3l-6.3,10.3L49,158.3c-0.5-0.8-1.2-1.4-2.4-1.4h-0.6c-1.5,0-2.6,1.1-2.6,2.6
			L43.5,178.4z M31,181.1c3.8,0,6.3-1.1,8.4-3c0.5-0.4,0.9-1,0.9-1.9c0-1.3-1.1-2.4-2.4-2.4c-0.6,0-1.1,0.2-1.6,0.6
			c-1.5,1.2-2.9,1.9-5.1,1.9c-4.1,0-6.9-3.4-6.9-7.4v-0.1c0-4.1,2.9-7.4,6.9-7.4c1.9,0,3.4,0.6,4.8,1.7c0.4,0.2,0.8,0.5,1.6,0.5
			c1.4,0,2.6-1.1,2.6-2.5c0-0.9-0.5-1.7-1-2.1c-2-1.5-4.4-2.4-7.9-2.4c-7.3,0-12.3,5.5-12.3,12.2v0.1C18.9,175.7,24,181.1,31,181.1"
			/>
	</g>
	<g>
		<path class="st0" d="M120.1,92.3c0-2.6,2.1-4.7,4.7-4.7c2.6,0,4.7,2.1,4.7,4.7s-2.1,4.7-4.7,4.7C122.2,97,120.1,94.9,120.1,92.3"
			/>
		<path class="st0" d="M57.6,99.4c-10.7,0-19.5-8.7-19.5-19.5c0-10.7,8.7-19.5,19.5-19.5c2.1,0,4.1,0.3,6.1,1c2.2,0.7,3.3,3,2.6,5.2
			c-0.7,2.2-3,3.3-5.2,2.6c-1.1-0.4-2.3-0.6-3.5-0.6c-6.2,0-11.3,5.1-11.3,11.3c0,6.2,5.1,11.3,11.3,11.3c5.7,0,9.1-3,11.8-10.8
			l6.1-17.2c0.6-1.6,2.1-2.7,3.8-2.7c1.7,0,3.3,1,3.9,2.6l7.1,18.3L97.5,63c0.6-1.6,2.1-2.6,3.8-2.6c0,0,0,0,0.1,0
			c1.7,0,3.2,1.1,3.8,2.7l10.2,28.4c0.8,2.1-0.3,4.5-2.5,5.3c-2.1,0.8-4.5-0.3-5.3-2.5l-6.5-18.1l-7,17.9c-0.6,1.6-2.1,2.6-3.8,2.6
			h0c-1.7,0-3.2-1-3.8-2.6l-6.9-17.9L77.2,83C74.7,90,70,99.4,57.6,99.4"/>
	</g>
	<path class="st0" d="M81.9,16.2c-35,0-63.6,28.5-63.6,63.6c0,35,28.5,63.6,63.6,63.6s63.6-28.5,63.6-63.6
		C145.4,44.8,116.9,16.2,81.9,16.2z M140.2,79.8c0,32.2-26.2,58.4-58.4,58.4S23.5,112,23.5,79.8s26.2-58.4,58.4-58.4
		S140.2,47.6,140.2,79.8z"/>
</g>
<g id="Layer_1">
</g>
</svg>
