<?xml version="1.0" encoding="utf-8"?>
<!-- Generator: Adobe Illustrator 24.1.2, SVG Export Plug-In . SVG Version: 6.00 Build 0)  -->
<svg version="1.1" xmlns="http://www.w3.org/2000/svg" xmlns:xlink="http://www.w3.org/1999/xlink" x="0px" y="0px"
	 viewBox="0 0 423.4 197.1" style="enable-background:new 0 0 423.4 197.1;" xml:space="preserve">
<style type="text/css">
	.st0{fill:#FFFFFF;}
</style>
<g id="Layer_2">
	<g>
		<path class="st0" d="M346.4,114c0,2.3,1.9,4.2,4.2,4.2s4.2-1.9,4.2-4.2v-12.6c0-4,1.9-6,5.1-6c3.1,0,4.9,2,4.9,6V114
			c0,2.3,1.9,4.2,4.2,4.2c2.3,0,4.2-1.9,4.2-4.2v-12.6c0-4,1.9-6,5.1-6s4.9,2,4.9,6V114c0,2.3,1.9,4.2,4.2,4.2
			c2.3,0,4.2-1.9,4.2-4.2V98.6c0-7.1-3.7-10.9-10-10.9c-4,0-7.1,1.7-9.7,4.7c-1.5-3-4.5-4.7-8.3-4.7c-4.2,0-6.8,2.3-8.7,4.7v-0.3
			c0-2.3-1.9-4.2-4.2-4.2s-4.2,1.9-4.2,4.2V114z M326.3,111.3c-4.6,0-7.8-3.8-7.8-8.2V103c0-4.4,2.9-8,7.7-8c4.6,0,7.8,3.8,7.8,8.2
			v0.1C334,107.6,331.1,111.3,326.3,111.3 M326.2,118.5c9.2,0,16-6.9,16-15.4V103c0-8.5-6.8-15.3-15.9-15.3c-9.2,0-16,6.9-16,15.4
			v0.1C310.3,111.7,317.1,118.5,326.2,118.5 M296.7,118.5c4.8,0,8-1.5,10.5-3.8c0.7-0.7,1.2-1.5,1.2-2.6c0-2-1.5-3.6-3.5-3.6
			c-1,0-1.8,0.4-2.3,0.8c-1.6,1.3-3.3,2-5.5,2c-4.6,0-7.5-3.6-7.5-8.2V103c0-4.4,3-8,7.2-8c2.2,0,3.7,0.7,5.2,1.9
			c0.5,0.4,1.3,0.8,2.4,0.8c2.1,0,3.8-1.7,3.8-3.7c0-1.4-0.8-2.4-1.3-2.9c-2.5-2.1-5.6-3.3-10.1-3.3c-9,0-15.5,6.9-15.5,15.4v0.1
			C281.3,111.7,287.8,118.5,296.7,118.5 M269.3,113.4v0.1c0,2.6,2,4.7,4.8,4.7c2.8,0,4.8-2,4.8-4.7v-0.1c0-2.6-2-4.7-4.8-4.7
			C271.3,108.7,269.3,110.7,269.3,113.4 M225.8,114c0,2.3,1.8,4.1,4.1,4.1c2.3,0,4.2-1.8,4.2-4.1V94.9l7.3,11.3
			c0.9,1.3,2,2.1,3.5,2.1c1.5,0,2.6-0.8,3.5-2.1l7.4-11.5v19.2c0,2.3,1.9,4.2,4.2,4.2c2.4,0,4.2-1.9,4.2-4.2V83.3
			c0-2.4-1.9-4.2-4.2-4.2h-0.9c-1.7,0-2.9,0.7-3.8,2.1L245.1,98l-10.2-16.7c-0.8-1.3-2-2.2-3.9-2.2h-0.9c-2.4,0-4.2,1.9-4.2,4.2V114
			z M205.4,118.5c6.2,0,10.2-1.8,13.7-4.8c0.8-0.7,1.4-1.7,1.4-3c0-2.1-1.8-3.9-4-3.9c-1,0-1.9,0.4-2.5,0.9c-2.4,1.9-4.8,3-8.4,3
			c-6.6,0-11.2-5.5-11.2-12.1v-0.1c0-6.6,4.7-12,11.2-12c3,0,5.5,1,7.9,2.8c0.6,0.4,1.4,0.8,2.5,0.8c2.3,0,4.2-1.8,4.2-4.1
			c0-1.5-0.8-2.7-1.7-3.4c-3.2-2.4-7.1-3.9-12.9-3.9c-11.8,0-20.1,9-20.1,19.9v0.1C185.6,109.7,194,118.5,205.4,118.5"/>
	</g>
</g>
<g id="Layer_1">
	<g>
		<path class="st0" d="M139.9,111.7c0-2.7,2.2-4.9,4.9-4.9c2.7,0,4.9,2.2,4.9,4.9s-2.2,4.9-4.9,4.9
			C142.1,116.6,139.9,114.4,139.9,111.7"/>
		<path class="st0" d="M74.3,119.1c-11.3,0-20.5-9.2-20.5-20.5c0-11.3,9.2-20.5,20.5-20.5c2.2,0,4.3,0.3,6.4,1
			c2.3,0.7,3.5,3.2,2.8,5.5c-0.7,2.3-3.2,3.5-5.5,2.8c-1.2-0.4-2.4-0.6-3.7-0.6c-6.5,0-11.8,5.3-11.8,11.8s5.3,11.8,11.8,11.8
			c6,0,9.5-3.2,12.4-11.4L93.1,81c0.6-1.7,2.2-2.8,4-2.9c1.8,0,3.4,1.1,4.1,2.8l7.5,19.2l7.5-19.2c0.6-1.7,2.2-2.8,4-2.8
			c0,0,0,0,0.1,0c1.8,0,3.4,1.2,4,2.9l10.7,29.9c0.8,2.2-0.4,4.7-2.6,5.5c-2.2,0.8-4.7-0.4-5.5-2.6l-6.8-19l-7.3,18.8
			c-0.6,1.7-2.2,2.8-4,2.8h0c-1.8,0-3.4-1.1-4-2.8l-7.3-18.8l-2.5,7.1C92.2,109.3,87.3,119.1,74.3,119.1"/>
	</g>
	<path class="st0" d="M99.8,31.8c-36.8,0-66.7,29.9-66.7,66.7c0,36.8,29.9,66.7,66.7,66.7s66.7-29.9,66.7-66.7
		C166.5,61.8,136.6,31.8,99.8,31.8z M161,98.6c0,33.8-27.5,61.3-61.3,61.3s-61.3-27.5-61.3-61.3S66,37.3,99.8,37.3
		S161,64.8,161,98.6z"/>
</g>
</svg>
