<?xml version="1.0" encoding="utf-8"?>
<!-- Generator: Adobe Illustrator 24.1.2, SVG Export Plug-In . SVG Version: 6.00 Build 0)  -->
<svg version="1.1" xmlns="http://www.w3.org/2000/svg" xmlns:xlink="http://www.w3.org/1999/xlink" x="0px" y="0px"
	 viewBox="0 0 199.5 197.1" style="enable-background:new 0 0 199.5 197.1;" xml:space="preserve">
<style type="text/css">
	.st0{fill:#007FFF;}
	.st1{fill:#FFFFFF;}
</style>
<g id="Layer_2">
</g>
<g id="Layer_1">
	<g>
		<path class="st0" d="M139.9,111.7c0-2.7,2.2-4.9,4.9-4.9c2.7,0,4.9,2.2,4.9,4.9s-2.2,4.9-4.9,4.9
			C142.1,116.6,139.9,114.4,139.9,111.7"/>
		<path class="st1" d="M74.3,119.1c-11.3,0-20.5-9.2-20.5-20.5c0-11.3,9.2-20.5,20.5-20.5c2.2,0,4.3,0.3,6.4,1
			c2.3,0.7,3.5,3.2,2.8,5.5c-0.7,2.3-3.2,3.5-5.5,2.8c-1.2-0.4-2.4-0.6-3.7-0.6c-6.5,0-11.8,5.3-11.8,11.8s5.3,11.8,11.8,11.8
			c6,0,9.5-3.2,12.4-11.4L93.1,81c0.6-1.7,2.2-2.8,4-2.9c1.8,0,3.4,1.1,4.1,2.8l7.5,19.2l7.5-19.2c0.6-1.7,2.2-2.8,4-2.8
			c0,0,0,0,0.1,0c1.8,0,3.4,1.2,4,2.9l10.7,29.9c0.8,2.2-0.4,4.7-2.6,5.5c-2.2,0.8-4.7-0.4-5.5-2.6l-6.8-19l-7.3,18.8
			c-0.6,1.7-2.2,2.8-4,2.8h0c-1.8,0-3.4-1.1-4-2.8l-7.3-18.8l-2.5,7.1C92.2,109.3,87.3,119.1,74.3,119.1"/>
	</g>
	<path class="st1" d="M99.8,30.7C62.4,30.7,32,61.2,32,98.6c0,37.4,30.4,67.8,67.8,67.8s67.8-30.4,67.8-67.8
		C167.6,61.2,137.2,30.7,99.8,30.7z M161,98.6c0,33.8-27.5,61.3-61.3,61.3s-61.3-27.5-61.3-61.3S66,37.3,99.8,37.3
		S161,64.8,161,98.6z"/>
</g>
</svg>
